<svg width="16" height="16" viewBox="0 0 16 16" fill="none" xmlns="http://www.w3.org/2000/svg">
<path d="M3.9408 10.9305C3.79281 10.8752 3.63448 10.8447 3.47615 10.8447H3.15C2.30992 10.8447 1.88988 10.8447 1.56901 10.6812C1.28677 10.5374 1.0573 10.3079 0.91349 10.0257C0.75 9.70483 0.75 9.28479 0.75 8.44472V7.50537C0.75 6.66529 0.75 6.24525 0.91349 5.92438C1.0573 5.64214 1.28677 5.41267 1.56901 5.26886C1.88988 5.10537 2.30992 5.10537 3.15 5.10537H3.47615C3.63714 5.10537 3.79814 5.07381 3.94825 5.01677C3.9543 5.01447 3.93917 5.02022 4.00144 4.98972C4.03113 4.97518 4.13425 4.91653 4.16193 4.89845C4.21998 4.86053 4.24137 4.84354 4.28417 4.80957L4.8577 4.35422C6.10454 3.36433 6.72796 2.86938 7.25228 2.87018C7.70831 2.87087 8.13926 3.07898 8.42336 3.4357C8.75 3.84585 8.75 4.64186 8.75 6.23387V9.72403C8.75 11.3277 8.75 12.1295 8.42151 12.5403C8.13584 12.8975 7.70277 13.1049 7.24536 13.1035C6.71937 13.1019 6.0947 12.5992 4.84535 11.5938L4.28956 11.1465C4.24532 11.1109 4.22319 11.0931 4.16294 11.0535C4.13421 11.0346 4.027 10.9736 3.99609 10.9585C3.93128 10.927 3.94714 10.9329 3.9408 10.9305Z" stroke="white" stroke-width="1.5"/>
<path d="M15.2502 9.42101L12.3792 6.55" stroke="white" stroke-width="1.5" stroke-miterlimit="10" stroke-linecap="round" stroke-linejoin="round"/>
<path d="M15.2211 6.57899L12.3501 9.45" stroke="white" stroke-width="1.5" stroke-miterlimit="10" stroke-linecap="round" stroke-linejoin="round"/>
</svg>
