<svg width="16" height="16" viewBox="0 0 16 16" fill="none" xmlns="http://www.w3.org/2000/svg">
<g clip-path="url(#clip0_151_3915)">
<path d="M0.990211 10.7595C2.08929 7.81158 4.82611 5.75 8 5.75C11.1739 5.75 13.9107 7.81158 15.0098 10.7595C15.2459 11.3927 15.2585 11.4812 15.2171 11.6647C15.2087 11.702 15.1702 11.7993 15.0877 11.9182C15.0051 12.037 14.9274 12.1071 14.8954 12.128C14.7492 12.2235 14.5968 12.25 13.6819 12.25H2.31811C1.40319 12.25 1.25082 12.2235 1.1046 12.128C1.07258 12.1071 0.994882 12.037 0.912346 11.9182C0.829809 11.7993 0.791256 11.702 0.782859 11.6647C0.741548 11.4812 0.754106 11.3927 0.990211 10.7595Z" stroke="white" stroke-width="1.5"/>
<rect x="4.37524" y="9.33929" width="0.75" height="0.75" rx="0.375" fill="white" stroke="white" stroke-width="0.75"/>
<rect x="10.8752" y="9.33929" width="0.75" height="0.75" rx="0.375" fill="white" stroke="white" stroke-width="0.75"/>
<path d="M1.87596 3.84458C1.6462 3.49994 1.73933 3.03428 2.08397 2.80452C2.42862 2.57476 2.89427 2.66789 3.12404 3.01253L1.87596 3.84458ZM3.12404 3.01253L5.12404 6.01253L3.87596 6.84458L1.87596 3.84458L3.12404 3.01253Z" fill="white"/>
<path d="M14.124 3.84458C14.3538 3.49994 14.2607 3.03428 13.916 2.80452C13.5714 2.57476 13.1057 2.66789 12.876 3.01253L14.124 3.84458ZM12.876 3.01253L10.876 6.01253L12.124 6.84458L14.124 3.84458L12.876 3.01253Z" fill="white"/>
</g>
<defs>
<clipPath id="clip0_151_3915">
<rect width="16" height="16" fill="white"/>
</clipPath>
</defs>
</svg>
