<svg width="16" height="16" viewBox="0 0 16 16" fill="none" xmlns="http://www.w3.org/2000/svg">
<path d="M3.97222 10.3167H3.58459C2.80772 10.3167 2.41929 10.3167 2.10619 10.2103C1.51816 10.0103 1.05639 9.54857 0.856456 8.96054C0.75 8.64744 0.75 8.25901 0.75 7.48214V7.48214C0.75 6.70528 0.75 6.31685 0.856456 6.00375C1.05639 5.41572 1.51816 4.95394 2.10619 4.75401C2.41929 4.64756 2.80772 4.64756 3.58459 4.64756H3.97222M3.97222 10.3167V4.64756M3.97222 10.3167V13.0599C3.97222 13.2364 3.97222 13.3247 3.97779 13.3992C4.0516 14.3861 4.83614 15.1706 5.82306 15.2444C5.89754 15.25 5.9858 15.25 6.16232 15.25V15.25C6.27579 15.25 6.33252 15.25 6.3851 15.2472C7.06677 15.2113 7.68304 14.8302 8.01971 14.2364C8.04567 14.1906 8.07102 14.1398 8.12171 14.0383L9.00694 12.2655M3.97222 10.3167L9.00694 12.2655M3.97222 4.64756L13.1817 1.08287C13.7102 0.878315 14.3086 0.984789 14.734 1.35909V1.35909C15.062 1.64761 15.25 2.06332 15.25 2.50015V12.4641C15.25 12.901 15.062 13.3167 14.734 13.6052V13.6052C14.3086 13.9795 13.7102 14.086 13.1817 13.8814L9.00694 12.2655" stroke="white" stroke-width="1.5"/>
</svg>
