<svg width="16" height="16" viewBox="0 0 16 16" fill="none" xmlns="http://www.w3.org/2000/svg">
<path d="M10.3541 1.02856C10.2331 1.44786 10.0146 1.79773 9.76071 2.09386L9.7607 2.09385L9.75781 2.09725C9.4729 2.43361 9.17044 2.70855 8.78469 2.84764C8.89558 2.3857 9.13304 2.01174 9.42313 1.67368L9.42431 1.67231C9.58251 1.48705 9.86341 1.27378 10.2245 1.09114C10.2673 1.06945 10.3106 1.04857 10.3541 1.02856Z" stroke="white" stroke-width="1.5"/>
<path d="M8.14355 5.34598C8.39348 5.33863 8.61323 5.2714 8.77321 5.2138C8.85456 5.18451 8.93341 5.15273 8.99816 5.12662L8.99888 5.12634C9.06765 5.09862 9.12198 5.07672 9.1746 5.0575C9.22768 5.03833 9.27975 5.0194 9.33093 5.0008C10.0762 4.72993 10.6329 4.52759 11.3726 4.63885C12.0146 4.73598 12.7602 5.19824 13.335 5.76454C13.3365 5.76592 13.3376 5.76714 13.3386 5.7682C13.3386 5.76826 13.3386 5.76832 13.3386 5.76838C13.3347 5.78863 13.312 5.84304 13.2398 5.88918C12.8445 6.14186 12.3988 6.47123 12.078 6.96013C11.7432 7.47034 11.5851 8.08949 11.6475 8.84823C11.702 9.52225 11.8866 10.0581 12.2317 10.4843C12.5663 10.8976 12.9952 11.1341 13.3748 11.3138C13.5051 11.3754 13.5523 11.5058 13.5177 11.6154C13.3773 12.0599 13.2267 12.5212 13.0632 12.9382C12.8961 13.3641 12.7336 13.6954 12.5831 13.9039C12.559 13.937 12.5353 13.9697 12.5119 14.0021C12.2689 14.3377 12.0541 14.6343 11.7937 14.8688C11.529 15.1073 11.2666 15.2338 10.9484 15.2338C10.6277 15.2338 10.3518 15.1348 9.93778 14.9739C9.92596 14.9693 9.91401 14.9647 9.90194 14.96C9.51542 14.8095 9.00367 14.6102 8.37857 14.5995L8.37787 14.5995C7.71486 14.5888 7.20543 14.7576 6.78464 14.9163C6.71896 14.9411 6.65673 14.965 6.59712 14.9879C6.28023 15.1095 6.03738 15.2027 5.74382 15.25H5.74343H5.74293H5.74244H5.74194H5.74145H5.74095H5.74046H5.73996H5.73947H5.73897H5.73848H5.73798H5.73749H5.73699H5.7365H5.736H5.73551H5.73501H5.73452H5.73402H5.73353H5.73303H5.73254H5.73204H5.73155H5.73105H5.73056H5.73006H5.72957H5.72907H5.72858H5.72808H5.72759H5.72709H5.7266H5.7261H5.72561H5.72512H5.72462H5.72413H5.72363H5.72314H5.72264H5.72215H5.72165H5.72116H5.72066H5.72017H5.71967H5.71918H5.71868H5.71819H5.71769H5.7172H5.7167H5.71621H5.71572H5.71522H5.71473H5.71423H5.71374H5.71324H5.71275H5.71225H5.71176H5.71126H5.71077H5.71027H5.70978H5.70929H5.70879H5.7083H5.7078H5.70731H5.70681H5.70632H5.70582H5.70533H5.70483H5.70434H5.70385H5.70335H5.70286H5.70236H5.70187H5.70137H5.70088H5.70038H5.69989H5.6994H5.6989H5.69841H5.69791H5.69742H5.69692H5.69643H5.69594H5.69544H5.69495H5.69445H5.69396H5.69346H5.69297H5.69248H5.69198H5.69149H5.69099H5.6905H5.69H5.68951H5.68902H5.68852H5.68803H5.68753H5.68704H5.68654H5.68605H5.68556H5.68506H5.68457H5.68407H5.68358H5.68309H5.68259H5.6821H5.6816H5.68111H5.68062H5.68012H5.67963H5.67913H5.67864H5.67815H5.67765H5.67716H5.67666H5.67617H5.67568H5.67518H5.67469H5.67419H5.6737H5.67321H5.67271H5.67222H5.67172H5.67123H5.67074H5.67024H5.66975H5.66926H5.66876H5.66827H5.66777H5.66728H5.66679H5.66629H5.6658H5.66531H5.66481H5.66432H5.66383H5.66333H5.66284H5.66234H5.66185H5.66136H5.66086H5.66037H5.65988H5.65938H5.65889H5.6584H5.6579H5.65741H5.65692H5.65642H5.65593H5.65544H5.65494H5.65445H5.65395H5.65346H5.65297H5.65247H5.65198H5.65149H5.651H5.6505H5.65001H5.64952H5.64902H5.64853H5.64804H5.64754H5.64705H5.64656H5.64606H5.64557H5.64508H5.64458H5.64409H5.6436H5.6431H5.64261H5.64212H5.64162H5.64113H5.64064H5.64015H5.63965H5.63916H5.63867H5.63817H5.63768H5.63719H5.63669H5.6362H5.63571H5.63522H5.63472H5.63423H5.63374H5.63324H5.63275H5.63226H5.63177H5.63127H5.63078H5.63029H5.6298H5.6293H5.62881H5.62832H5.62783H5.62733H5.62684H5.62635H5.62585H5.62536H5.62487H5.62438H5.62388H5.62339H5.6229H5.62241H5.62191H5.62142H5.62093H5.62044H5.61995H5.61945H5.61896H5.61847H5.61798H5.61748H5.61699H5.6165H5.61601H5.61551H5.61502H5.61453H5.61404H5.61355H5.61305H5.61256H5.61207H5.61158H5.61108H5.61059H5.6101H5.60961H5.60912H5.60862H5.60813H5.60764H5.60715H5.60666H5.60616H5.60567H5.60518H5.60469H5.6042H5.60371H5.60321H5.60272H5.60223H5.60174H5.60125H5.60075H5.60026H5.59977H5.59928H5.59879H5.5983H5.5978H5.59731H5.59682H5.59633H5.59584H5.59535H5.59486H5.59436H5.59387H5.59338H5.59289H5.5924H5.59191H5.59142H5.59092H5.59043H5.58994H5.58945H5.58896H5.58847H5.58798H5.58748H5.58699H5.5865H5.58601H5.58552H5.58503H5.58454H5.58405H5.58356H5.58306H5.58257H5.58208H5.58159H5.5811H5.58061H5.58012H5.57963H5.57914H5.57865H5.57816H5.57766H5.57717H5.57668H5.57619H5.5757H5.57521H5.57472H5.57423H5.57374H5.57325H5.57276H5.57227H5.57178H5.57128H5.57079H5.5703H5.56981H5.56932H5.56883H5.56834H5.56785H5.56736H5.56687H5.56638H5.56589H5.5654H5.56491H5.56442H5.56393H5.56344H5.56295H5.56246H5.56197H5.56148H5.56099H5.5605H5.56001H5.55952H5.55903H5.55854H5.55805H5.55756H5.55707H5.55658H5.55609H5.5556H5.55511H5.55462H5.55413H5.55364H5.55315H5.55266H5.55217H5.55168H5.55119H5.5507H5.55021H5.54972H5.54923H5.54874H5.54825H5.54776H5.54727C5.54252 15.25 5.53913 15.2499 5.53689 15.2498C5.15501 15.1736 4.765 14.8368 4.38007 14.3697C3.25771 13.0045 2.39477 11.2532 2.22827 9.00449V9.00375V9.00235V9.00095V8.99955V8.99815V8.99675V8.99536V8.99396V8.99256V8.99116V8.98976V8.98836V8.98696V8.98556V8.98416V8.98276V8.98136V8.97996V8.97857V8.97717V8.97577V8.97437V8.97297V8.97157V8.97017V8.96877V8.96737V8.96597V8.96457V8.96318V8.96178V8.96038V8.95898V8.95758V8.95618V8.95478V8.95338V8.95198V8.95059V8.94919V8.94779V8.94639V8.94499V8.94359V8.94219V8.94079V8.93939V8.938V8.9366V8.9352V8.9338V8.9324V8.931V8.9296V8.92821V8.92681V8.92541V8.92401V8.92261V8.92121V8.91981V8.91842V8.91702V8.91562V8.91422V8.91282V8.91142V8.91002V8.90863V8.90723V8.90583V8.90443V8.90303V8.90163V8.90023V8.89884V8.89744V8.89604V8.89464V8.89324V8.89184V8.89045V8.88905V8.88765V8.88625V8.88485V8.88345V8.88206V8.88066V8.87926V8.87786V8.87646V8.87506V8.87367V8.87227V8.87087V8.86947V8.86807V8.86667V8.86528V8.86388V8.86248V8.86108V8.85968V8.85828V8.85689V8.85549V8.85409V8.85269V8.85129V8.8499V8.8485V8.8471V8.8457V8.8443V8.84291V8.84151V8.84011V8.83871V8.83731V8.83592V8.83452V8.83312V8.83172V8.83032V8.82893V8.82753V8.82613V8.82473V8.82333V8.82194V8.82054V8.81914V8.81774V8.81634V8.81495V8.81355V8.81215V8.81075V8.80935V8.80796V8.80656V8.80516V8.80376V8.80236V8.80097V8.79957V8.79817V8.79677V8.79537V8.79398V8.79258V8.79118V8.78978V8.78839V8.78699V8.78559V8.78419V8.78279V8.7814V8.78V8.7786V8.7772V8.77581V8.77441V8.77301V8.77161V8.77021V8.76882V8.76742V8.76602V8.76462V8.76323V8.76183V8.76043V8.75903V8.75763V8.75624V8.75484V8.75344V8.75204V8.75065V8.74925V8.74785V8.74645V8.74505V8.74366V8.74226V8.74086V8.73946V8.73807V8.73667V8.73527V8.73387V8.73248V8.73108V8.72968V8.72828V8.72688V8.72549V8.72409V8.72269V8.72129V8.7199V8.7185V8.7171V8.7157V8.71431V8.71291V8.71151V8.71011V8.70872V8.70732V8.70592V8.70452V8.70312V8.70173V8.70033V8.69893V8.69753V8.69614V8.69474V8.69334V8.69194V8.69055V8.68915V8.68775V8.68635V8.68496V8.68356V8.68216V8.68076V8.67937V8.67797V8.67657V8.67517V8.67377V8.67238V8.67098V8.66958V8.66818V8.66679V8.66539V8.66399V8.66259V8.6612V8.6598V8.6584V8.657V8.65561V8.65421V8.65281V8.65141V8.65001V8.64862V8.64722V8.64582V8.64442V8.64303V8.64163V8.64023V8.63883V8.63744V8.63604V8.63464V8.63324V8.63185V8.63045V8.62905V8.62765V8.62626V8.62486V8.62346V8.62206V8.62066V8.61927V8.61787V8.61647V8.61507V8.61368V8.61228V8.61088V8.60948V8.60809V8.60669V8.60529V8.60389V8.60249V8.6011V8.5997V8.5983V8.5969V8.59551V8.59411V8.59271V8.59131V8.58992V8.58852V8.58712V8.58572V8.58432V8.58293V8.58153V8.58013V8.57873V8.57734V8.57594V8.57454V8.57314V8.57174V8.57035V8.56895V8.56755V8.56615V8.56475V8.56336V8.56196V8.56056V8.55916V8.55777V8.55637V8.55497V8.55357V8.55217V8.55078V8.54938V8.54798V8.54658V8.54519V8.54379V8.54239V8.54099V8.53959V8.5382V8.5368V8.5354V8.534V8.5326V8.53121V8.52981V8.52841V8.52701V8.52561V8.52422V8.52282V8.52142V8.52002V8.51862V8.51723V8.51583V8.51443V8.51303V8.51163V8.51024V8.50884V8.50744V8.50604V8.50464V8.50325V8.50185V8.50045V8.49905V8.49765V8.49625V8.49486V8.49346V8.49206V8.49066V8.48926V8.48787V8.48647V8.48507V8.48367V8.48227V8.48088V8.47948V8.47808V8.47668V8.47528V8.47388V8.47249V8.47109V8.46969V8.46829V8.46689V8.46549V8.4641V8.4627V8.4613V8.4599V8.4585V8.4571V8.45571V8.45431V8.45291V8.45151V8.45011V8.44871V8.44732V8.44592V8.44452V8.44312V8.44172V8.44032V8.43892V8.43753V8.43613V8.43473V8.43333V8.43193V8.43053V8.42913V8.42774V8.42634V8.42494V8.42354V8.42214V8.42074V8.41934V8.41795V8.41655V8.41515V8.41375V8.41235V8.41095V8.40955V8.40815V8.40676V8.40536V8.40396V8.40256V8.40116V8.39976V8.39836V8.39696V8.39557V8.39417V8.39277V8.39137V8.38997V8.38857V8.38717V8.38577V8.38437V8.38297V8.38158V8.38018V8.37878V8.37738V8.37598V8.37458V8.37318V8.37178V8.37038V8.36898V8.36759V8.36619V8.36479V8.36339V8.36199V8.36059V8.35919V8.35779V8.35639V8.35499V8.35359V8.35219V8.35079V8.3494V8.348V8.3466V8.3452V8.3438V8.3424V8.341V8.3396V8.3382V8.3368V8.3354V8.334V8.3326V8.33221C2.29722 6.81084 3.0348 5.64505 3.91623 5.10729L3.91623 5.10729L3.91834 5.10599C4.42483 4.79468 5.0606 4.56828 5.73287 4.67083C6.04299 4.71898 6.38158 4.82945 6.71716 4.95632C6.77495 4.97858 6.83645 5.00474 6.91538 5.03831C6.92761 5.04351 6.94025 5.04889 6.95337 5.05446C7.04567 5.09366 7.15606 5.14002 7.27263 5.18259C7.49795 5.26488 7.80559 5.35618 8.14355 5.34598ZM8.14355 5.34598C8.14338 5.34599 8.14321 5.34599 8.14304 5.346L8.12123 4.59631L8.14406 5.34597C8.14389 5.34597 8.14372 5.34598 8.14355 5.34598Z" stroke="white" stroke-width="1.5"/>
</svg>
