<svg width="16" height="16" viewBox="0 0 16 16" fill="none" xmlns="http://www.w3.org/2000/svg">
<path d="M13.65 5H2.35C1.78995 5 1.50992 5 1.29601 5.10899C1.10785 5.20487 0.954867 5.35785 0.858993 5.54601C0.75 5.75992 0.75 6.03995 0.75 6.6V13.15C0.75 13.7101 0.75 13.9901 0.858993 14.204C0.954867 14.3922 1.10785 14.5451 1.29601 14.641C1.50992 14.75 1.78995 14.75 2.35 14.75H13.65C14.2101 14.75 14.4901 14.75 14.704 14.641C14.8922 14.5451 15.0451 14.3922 15.141 14.204C15.25 13.9901 15.25 13.7101 15.25 13.15V6.6C15.25 6.03995 15.25 5.75992 15.141 5.54601C15.0451 5.35785 14.8922 5.20487 14.704 5.10899C14.4901 5 14.2101 5 13.65 5Z" stroke="white" stroke-width="1.5" stroke-linecap="round" stroke-linejoin="round"/>
<path d="M0.75 8.25V6.03796C0.75 5.65263 0.75 5.45997 0.785312 5.27456C0.816649 5.11001 0.868532 4.95005 0.939744 4.79844C1.01999 4.6276 1.13307 4.47162 1.35925 4.15966L2.51051 2.5717C2.86158 2.08748 3.03711 1.84537 3.26214 1.67056C3.46143 1.51575 3.6882 1.40006 3.93051 1.32958C4.20412 1.25 4.50317 1.25 5.10127 1.25H10.8987C11.4968 1.25 11.7959 1.25 12.0695 1.32958C12.3118 1.40006 12.5386 1.51575 12.7379 1.67056C12.9629 1.84537 13.1384 2.08748 13.4895 2.5717L14.6408 4.15966C14.8669 4.47162 14.98 4.6276 15.0603 4.79844C15.1315 4.95005 15.1834 5.11001 15.2147 5.27456C15.25 5.45997 15.25 5.65263 15.25 6.03796V8.25" stroke="white" stroke-width="1.5" stroke-linecap="round" stroke-linejoin="round"/>
<path d="M8 11.875V7.875M8 11.875L6.5 10.375M8 11.875L9.5 10.375" stroke="white" stroke-width="1.5" stroke-linecap="round" stroke-linejoin="round"/>
</svg>
