<svg width="16" height="16" viewBox="0 0 16 16" fill="none" xmlns="http://www.w3.org/2000/svg">
<path d="M8.0001 10.9C9.60172 10.9 10.9001 9.60159 10.9001 7.99996C10.9001 6.39834 9.60172 5.09996 8.0001 5.09996C6.39847 5.09996 5.1001 6.39834 5.1001 7.99996C5.1001 9.60159 6.39847 10.9 8.0001 10.9Z" stroke="white" stroke-width="1.5" stroke-linecap="round" stroke-linejoin="round"/>
<path d="M10.9005 5.09997V8.72496C10.9005 9.30181 11.1296 9.85503 11.5375 10.2629C11.9454 10.6708 12.4986 10.9 13.0755 10.9C13.6523 10.9 14.2056 10.6708 14.6134 10.2629C15.0213 9.85503 15.2505 9.30181 15.2505 8.72496V7.99996C15.2504 6.36366 14.6968 4.77551 13.6796 3.49375C12.6625 2.21199 11.2416 1.31201 9.64815 0.940133C8.05467 0.568261 6.38224 0.746373 4.90282 1.44551C3.4234 2.14464 2.22398 3.32368 1.49961 4.79091C0.775231 6.25815 0.568496 7.92727 0.913017 9.5269C1.25754 11.1265 2.13305 12.5626 3.3972 13.6015C4.66135 14.6405 6.23978 15.2212 7.87584 15.2493C9.5119 15.2775 11.1094 14.7513 12.4085 13.7565" stroke="white" stroke-width="1.5" stroke-linecap="round" stroke-linejoin="round"/>
</svg>
