<svg width="16" height="16" viewBox="0 0 16 16" fill="none" xmlns="http://www.w3.org/2000/svg">
<g clip-path="url(#clip0_151_3839)">
<path fill-rule="evenodd" clip-rule="evenodd" d="M10.1509 3.76378C9.50515 3.43522 8.77421 3.25 8 3.25C5.37665 3.25 3.25 5.37665 3.25 8C3.25 10.6234 5.37665 12.75 8 12.75C10.6234 12.75 12.75 10.6234 12.75 8C12.75 7.51477 12.6772 7.04654 12.542 6.60561C12.1744 6.82354 11.7265 6.90812 11.2761 6.80958C11.1761 6.78772 11.0801 6.75772 10.9884 6.72043C11.1568 7.11312 11.25 7.54567 11.25 8C11.25 9.79493 9.79493 11.25 8 11.25C6.20507 11.25 4.75 9.79493 4.75 8C4.75 6.20507 6.20507 4.75 8 4.75C8.71909 4.75 9.38363 4.98354 9.92192 5.3789C9.88783 5.16804 9.89204 4.94735 9.94045 4.72604L10.1509 3.76378ZM8.75 0.75C8.75 0.335786 8.41421 0 8 0C7.58579 0 7.25 0.335786 7.25 0.75V1.75C7.25 2.16421 7.58579 2.5 8 2.5C8.41421 2.5 8.75 2.16421 8.75 1.75V0.75ZM3.40381 2.34315C3.11091 2.05025 2.63604 2.05025 2.34315 2.34314C2.05025 2.63604 2.05025 3.11091 2.34315 3.40381L3.05025 4.11091C3.34315 4.40381 3.81802 4.40381 4.11091 4.11091C4.40381 3.81802 4.40381 3.34315 4.11091 3.05025L3.40381 2.34315ZM0.75 7.25C0.335786 7.25 0 7.58579 0 8C0 8.41421 0.335786 8.75 0.75 8.75H1.75C2.16421 8.75 2.5 8.41421 2.5 8C2.5 7.58579 2.16421 7.25 1.75 7.25H0.75ZM14.25 7.25C13.8358 7.25 13.5 7.58579 13.5 8C13.5 8.41421 13.8358 8.75 14.25 8.75H15.25C15.6642 8.75 16 8.41421 16 8C16 7.58579 15.6642 7.25 15.25 7.25H14.25ZM4.11091 12.9497C4.40381 12.6569 4.40381 12.182 4.11091 11.8891C3.81802 11.5962 3.34315 11.5962 3.05025 11.8891L2.34315 12.5962C2.05025 12.8891 2.05025 13.364 2.34315 13.6569C2.63604 13.9497 3.11091 13.9497 3.40381 13.6569L4.11091 12.9497ZM12.9497 11.8891C12.6569 11.5962 12.182 11.5962 11.8891 11.8891C11.5962 12.182 11.5962 12.6569 11.8891 12.9497L12.5962 13.6569C12.8891 13.9497 13.364 13.9497 13.6569 13.6569C13.9497 13.364 13.9497 12.8891 13.6569 12.5962L12.9497 11.8891ZM8.75 14.25C8.75 13.8358 8.41421 13.5 8 13.5C7.58579 13.5 7.25 13.8358 7.25 14.25V15.25C7.25 15.6642 7.58579 16 8 16C8.41421 16 8.75 15.6642 8.75 15.25V14.25Z" fill="white"/>
<path d="M11.6499 5.10001L12.0249 3.38572M15.1499 5.10001L14.7749 3.38572M12.0249 3.38572L12.2025 2.57369V2.57369C12.3715 1.80139 12.4559 1.41524 12.5327 1.28156C12.9171 0.612188 13.8827 0.612188 14.2671 1.28156C14.3439 1.41524 14.4283 1.80139 14.5973 2.57369V2.57369L14.7749 3.38572M12.0249 3.38572H14.7749" stroke="white" stroke-width="1.5" stroke-linecap="round"/>
</g>
<defs>
<clipPath id="clip0_151_3839">
<rect width="16" height="16" fill="white"/>
</clipPath>
</defs>
</svg>
