<svg width="16" height="16" viewBox="0 0 16 16" fill="none" xmlns="http://www.w3.org/2000/svg">
<g clip-path="url(#clip0_151_3910)">
<path d="M3.8025 11.704L3.00388 10.9561C2.34405 10.3382 1.88346 9.90605 1.55398 9.54125C1.23002 9.18258 1.08225 8.94106 1.00832 8.7233C0.849084 8.25424 0.849084 7.74576 1.00832 7.2767C1.08225 7.05894 1.23002 6.81742 1.55398 6.45875C1.88346 6.09395 2.34405 5.66178 3.00388 5.04387L3.82382 4.27601L3.82382 4.276C3.82682 4.2732 3.82981 4.2704 3.83279 4.26761C4.53306 3.61188 4.80329 3.36527 5.10345 3.19067C5.38589 3.02639 5.69149 2.90564 6.00995 2.83249C6.34982 2.75442 6.71731 2.75 7.68584 2.75H10C10.9421 2.75 11.6112 2.75041 12.1376 2.78632C12.6572 2.82178 12.9828 2.88931 13.2437 2.99739C14.0401 3.32725 14.6728 3.95994 15.0026 4.75628C15.1107 5.0172 15.1782 5.34279 15.2137 5.86243C15.2496 6.38881 15.25 7.05786 15.25 8C15.25 8.94214 15.2496 9.61119 15.2137 10.1376C15.1782 10.6572 15.1107 10.9828 15.0026 11.2437C14.6728 12.0401 14.0401 12.6728 13.2437 13.0026C12.9828 13.1107 12.6572 13.1782 12.1376 13.2137C11.6112 13.2496 10.9421 13.25 10 13.25H7.68584C6.71731 13.25 6.34982 13.2456 6.00995 13.1675C5.69149 13.0944 5.38589 12.9736 5.10345 12.8093C4.80201 12.634 4.53076 12.386 3.82382 11.724L3.82382 11.724L3.8025 11.704Z" stroke="white" stroke-width="1.5"/>
<path d="M11.5 10L7.5 6M7.5 10L11.5 6" stroke="white" stroke-width="1.5" stroke-linecap="round" stroke-linejoin="round"/>
</g>
<defs>
<clipPath id="clip0_151_3910">
<rect width="16" height="16" fill="white"/>
</clipPath>
</defs>
</svg>
