<svg width="16" height="16" viewBox="0 0 16 16" fill="none" xmlns="http://www.w3.org/2000/svg">
<g clip-path="url(#clip0_151_3866)">
<path d="M3.1875 3.875L11.3952 10.9102C11.8835 11.3287 12.1276 11.5379 12.217 11.7869C12.2955 12.0055 12.2955 12.2445 12.217 12.4631C12.1276 12.7121 11.8835 12.9213 11.3952 13.3398L10.6413 13.9861C9.80081 14.7065 9.38058 15.0666 9.0248 15.0755C8.71559 15.0831 8.42024 14.9473 8.22484 14.7075C8 14.4317 8 13.8782 8 12.7712V3.22875C8 2.1218 8 1.56833 8.22484 1.29246C8.42024 1.0527 8.71559 0.916858 9.0248 0.924528C9.38058 0.933353 9.80081 1.29355 10.6413 2.01394L11.3952 2.66019C11.8835 3.07868 12.1276 3.28793 12.217 3.53693C12.2955 3.75547 12.2955 3.99453 12.217 4.21307C12.1276 4.46207 11.8835 4.67132 11.3952 5.08981L3.1875 12.125" stroke="white" stroke-width="1.5" stroke-linecap="round" stroke-linejoin="round"/>
</g>
<defs>
<clipPath id="clip0_151_3866">
<rect width="16" height="16" fill="white"/>
</clipPath>
</defs>
</svg>
