<svg width="16" height="16" viewBox="0 0 16 16" fill="none" xmlns="http://www.w3.org/2000/svg">
<path d="M3 8V2.85C3 2.28995 3 2.00992 3.10899 1.79601C3.20487 1.60785 3.35785 1.45487 3.54601 1.35899C3.75992 1.25 4.03995 1.25 4.6 1.25H9.66667C11.5076 1.25 13 2.76104 13 4.625C13 6.48896 11.5076 8 9.66667 8M3 8V13.15C3 13.7101 3 13.9901 3.10899 14.204C3.20487 14.3922 3.35785 14.5451 3.54601 14.641C3.75992 14.75 4.03995 14.75 4.6 14.75H9.66667C11.5076 14.75 13 13.239 13 11.375C13 9.51104 11.5076 8 9.66667 8M3 8H9.66667" stroke="white" stroke-width="2.5" stroke-linecap="round"/>
</svg>
