<svg width="16" height="16" viewBox="0 0 16 16" fill="none" xmlns="http://www.w3.org/2000/svg">
<path d="M13.5 11H4.625C4.50894 11 4.4509 11 4.40186 11.0024C3.37446 11.0529 2.55288 11.8745 2.50241 12.9019C2.5 12.9509 2.5 13.0089 2.5 13.125V13.125C2.5 13.2411 2.5 13.2991 2.50241 13.3481C2.55288 14.3755 3.37446 15.1971 4.40186 15.2476C4.4509 15.25 4.50894 15.25 4.625 15.25H8" stroke="white" stroke-width="1.5" stroke-linecap="round" stroke-linejoin="round"/>
<path d="M13.5 15.25V0.75H5.7C4.5799 0.75 4.01984 0.75 3.59202 0.967987C3.21569 1.15973 2.90973 1.46569 2.71799 1.84202C2.5 2.26984 2.5 2.8299 2.5 3.95V12.05C2.5 13.1701 2.5 13.7302 2.71799 14.158C2.90973 14.5343 3.21569 14.8403 3.59202 15.032C4.01984 15.25 4.57989 15.25 5.7 15.25H13.5Z" stroke="white" stroke-width="1.5" stroke-linecap="round" stroke-linejoin="round"/>
</svg>
