<svg width="16" height="16" viewBox="0 0 16 16" fill="none" xmlns="http://www.w3.org/2000/svg">
<g clip-path="url(#clip0_151_3968)">
<path d="M9.09077 12.4413L10.8092 14.0426C11.6589 14.8344 12.0838 15.2303 12.4462 15.2499C12.7609 15.2668 13.0651 15.1345 13.2672 14.8927C13.5 14.6142 13.5 14.0335 13.5 12.8721V2.35C13.5 1.78995 13.5 1.50992 13.391 1.29601C13.2951 1.10785 13.1422 0.954867 12.954 0.858993C12.7401 0.75 12.4601 0.75 11.9 0.75H4.1C3.53995 0.75 3.25992 0.75 3.04601 0.858993C2.85785 0.954867 2.70487 1.10785 2.60899 1.29601C2.5 1.50992 2.5 1.78995 2.5 2.35V12.8721C2.5 14.0335 2.5 14.6142 2.73276 14.8927C2.93488 15.1345 3.23915 15.2668 3.55382 15.2499C3.91622 15.2303 4.34107 14.8344 5.19077 14.0426L6.90923 12.4413C7.29357 12.0832 7.48574 11.9041 7.70443 11.8365C7.89697 11.7769 8.10303 11.7769 8.29557 11.8365C8.51426 11.9041 8.70643 12.0832 9.09077 12.4413Z" stroke="white" stroke-width="1.5" stroke-linecap="round" stroke-linejoin="round"/>
</g>
<defs>
<clipPath id="clip0_151_3968">
<rect width="16" height="16" fill="white"/>
</clipPath>
</defs>
</svg>
