<svg width="16" height="16" viewBox="0 0 16 16" fill="none" xmlns="http://www.w3.org/2000/svg">
<path d="M5.71429 9.2542C6.1285 9.2542 6.46429 8.91842 6.46429 8.5042C6.46429 8.08999 6.1285 7.7542 5.71429 7.7542C4.93815 7.7542 4.30896 7.12502 4.30896 6.34888V6.20752H6.63975C6.65633 6.20752 6.67268 6.20752 6.68883 6.20753C7.02214 6.20761 7.26577 6.20767 7.50818 6.17105C7.72253 6.13866 7.9331 6.08491 8.13675 6.0106C8.36706 5.92655 8.58085 5.80973 8.87333 5.6499C8.88751 5.64216 8.90186 5.63432 8.91641 5.62637L8.55694 4.96813L8.91641 5.62637L10.1241 4.96681C10.4771 4.77407 10.5877 4.71586 10.6991 4.67522C10.8087 4.6352 10.9221 4.60626 11.0375 4.58882C11.1547 4.57111 11.2797 4.56918 11.6819 4.56918H12.1992C12.8162 4.56918 13.2398 4.56962 13.5697 4.59303C13.8924 4.61594 14.0679 4.65807 14.1954 4.71328C14.6036 4.89003 14.9291 5.2156 15.1059 5.62379L15.7942 5.32577L15.1059 5.62379C15.1611 5.75129 15.2032 5.92679 15.2262 6.24952C15.2496 6.57937 15.25 7.00299 15.25 7.61994C15.25 8.35814 15.2496 8.87271 15.221 9.27506C15.193 9.6703 15.1405 9.89989 15.0647 10.0749C14.8375 10.5997 14.4189 11.0183 13.8941 11.2456C13.719 11.3214 13.4895 11.3738 13.0942 11.4019C12.6919 11.4304 12.1773 11.4308 11.4391 11.4308H3.36166C3.00859 11.4308 2.88448 11.43 2.78728 11.4208C1.71279 11.3187 0.86212 10.4681 0.760078 9.39357C0.750847 9.29636 0.75 9.17225 0.75 8.81918C0.75 8.46611 0.750847 8.34201 0.760078 8.2448C0.86212 7.17031 1.71279 6.31964 2.78728 6.2176C2.79434 6.21693 2.80154 6.2163 2.80896 6.21572V6.34888C2.80896 7.95345 4.10972 9.2542 5.71429 9.2542Z" stroke="white" stroke-width="1.5" stroke-linecap="round"/>
</svg>
