<svg width="16" height="16" viewBox="0 0 16 16" fill="none" xmlns="http://www.w3.org/2000/svg">
<path d="M6.5 6.71557L6.5 2.25C6.5 1.42157 7.17157 0.749999 8 0.75C8.82843 0.75 9.5 1.42157 9.5 2.25L9.5 6.71556C9.5 7.18517 9.5 7.41997 9.56473 7.6331C9.62203 7.82179 9.71597 7.99732 9.84118 8.14966C9.98262 8.32174 10.178 8.45199 10.5687 8.71248L10.5687 8.71248L11.6621 9.4414C11.9712 9.64748 12.1258 9.75051 12.2475 9.88263C12.3554 9.99975 12.4439 10.1333 12.5098 10.2783C12.5842 10.4418 12.6189 10.6243 12.6884 10.9892L12.9573 12.4009C13.1435 13.3786 13.2366 13.8674 13.1017 14.2495C12.9833 14.5847 12.7498 14.8669 12.4426 15.0459C12.0925 15.25 11.5949 15.25 10.5997 15.25L5.40035 15.25C4.40512 15.25 3.90751 15.25 3.55741 15.0459C3.25029 14.8669 3.01672 14.5847 2.89835 14.2495C2.76341 13.8674 2.85652 13.3786 3.04273 12.4009L3.31163 10.9892C3.38114 10.6243 3.4159 10.4418 3.49022 10.2783C3.55611 10.1333 3.64467 9.99975 3.75257 9.88263C3.87427 9.75051 4.02883 9.64748 4.33793 9.4414L4.33794 9.4414L5.4313 8.71248L5.43131 8.71248C5.82203 8.45199 6.01739 8.32174 6.15882 8.14966C6.28403 7.99732 6.37797 7.82179 6.43528 7.63311C6.5 7.41997 6.5 7.18517 6.5 6.71557Z" stroke="white" stroke-width="1.5" stroke-linejoin="round"/>
<path d="M12.5 11L3.5 11" stroke="white" stroke-width="1.5"/>
</svg>
