<svg width="16" height="16" viewBox="0 0 16 16" fill="none" xmlns="http://www.w3.org/2000/svg">
<g clip-path="url(#clip0_151_3974)">
<path d="M6.63726 3.01274L2.76274 6.88726L2.76274 6.88726C1.97071 7.67929 1.57469 8.07531 1.42631 8.53197C1.2958 8.93365 1.2958 9.36635 1.42631 9.76803C1.57469 10.2247 1.97071 10.6207 2.76274 11.4127L4.83726 13.4873C5.62929 14.2793 6.02531 14.6753 6.48197 14.8237C6.88365 14.9542 7.31635 14.9542 7.71803 14.8237C8.17469 14.6753 8.57071 14.2793 9.36274 13.4873L13.2373 9.61274C14.0293 8.82071 14.4253 8.42469 14.5737 7.96803C14.7042 7.56635 14.7042 7.13365 14.5737 6.73197C14.4253 6.27531 14.0293 5.87929 13.2373 5.08726L11.1627 3.01274C10.3707 2.22071 9.97469 1.82469 9.51803 1.67631C9.11635 1.5458 8.68365 1.5458 8.28197 1.67631C7.82531 1.82469 7.42929 2.22071 6.63726 3.01274Z" stroke="white" stroke-width="1.5"/>
<path d="M4.1001 0.75L7.7001 4.35" stroke="white" stroke-width="1.5" stroke-linecap="round" stroke-linejoin="bevel"/>
</g>
<defs>
<clipPath id="clip0_151_3974">
<rect width="16" height="16" fill="white"/>
</clipPath>
</defs>
</svg>
