<svg width="16" height="16" viewBox="0 0 16 16" fill="none" xmlns="http://www.w3.org/2000/svg">
<path d="M15.25 8.00009L15.25 9.79991C15.25 10.92 15.25 11.4801 15.032 11.9079C14.8403 12.2842 14.5343 12.5902 14.158 12.7819C13.7302 12.9999 13.1701 12.9999 12.05 12.9999L3.95 12.9999C2.82989 12.9999 2.26984 12.9999 1.84202 12.7819C1.46569 12.5902 1.15973 12.2842 0.967986 11.9079C0.749999 11.4801 0.749999 10.92 0.749999 9.79991L0.749999 8.00009" stroke="white" stroke-width="1.5" stroke-linecap="round"/>
<path d="M15.25 6L15.25 7.10166C15.25 8.22176 15.25 8.78182 15.032 9.20964C14.8403 9.58596 14.5343 9.89192 14.158 10.0837C13.7302 10.3017 13.1701 10.3017 12.05 10.3017L3.95 10.3017C2.82989 10.3017 2.26984 10.3017 1.84202 10.0837C1.46569 9.89192 1.15973 9.58596 0.967986 9.20964C0.749999 8.78181 0.749999 8.22176 0.749999 7.10166L0.749999 6" stroke="white" stroke-width="1.5"/>
<path d="M5.5 6.5H10.5" stroke="white" stroke-width="1.5" stroke-linecap="round"/>
<path d="M15.25 11.0001L15.25 6.20009C15.25 5.07999 15.25 4.51993 15.032 4.09211C14.8403 3.71579 14.5343 3.40983 14.158 3.21808C13.7302 3.00009 13.1701 3.00009 12.05 3.00009L3.95 3.00009C2.82989 3.00009 2.26984 3.00009 1.84202 3.21808C1.46569 3.40982 1.15973 3.71579 0.967986 4.09211C0.749999 4.51993 0.749999 5.07999 0.749999 6.20009L0.749999 11.0001" stroke="white" stroke-width="1.5"/>
</svg>
