<svg width="16" height="16" viewBox="0 0 16 16" fill="none" xmlns="http://www.w3.org/2000/svg">
<g clip-path="url(#clip0_151_3909)">
<path d="M3.25 13C3.25 11.6193 2.13071 10.5 0.75 10.5" stroke="white" stroke-width="1.5" stroke-linecap="round"/>
<path d="M5.75048 3L10.2505 3C11.1798 3 11.6445 3 12.0308 3.07686C13.6176 3.39249 14.858 4.63288 15.1736 6.21964C15.2505 6.60604 15.2505 7.07069 15.2505 8C15.2505 8.92931 15.2505 9.39397 15.1736 9.78036C14.858 11.3671 13.6176 12.6075 12.0308 12.9231C11.6445 13 11.1798 13 10.2505 13H5.75C5.75 10.2386 3.51142 8 0.75 8C0.750091 7.07032 0.750136 6.60548 0.827098 6.21893C1.14294 4.63261 2.38305 3.39261 3.96941 3.07693C4.35596 3 4.8208 3 5.75048 3Z" stroke="white" stroke-width="1.5" stroke-linecap="round" stroke-linejoin="round"/>
<mask id="path-3-inside-1_151_3909" fill="white">
<path d="M1.5 13C1.5 12.5858 1.16421 12.25 0.75 12.25C0.335786 12.25 0 12.5858 0 13C0 13.4142 0.335786 13.75 0.75 13.75C1.16421 13.75 1.5 13.4142 1.5 13Z"/>
</mask>
<path d="M1.5 13C1.5 12.5858 1.16421 12.25 0.75 12.25C0.335786 12.25 0 12.5858 0 13C0 13.4142 0.335786 13.75 0.75 13.75C1.16421 13.75 1.5 13.4142 1.5 13Z" fill="white"/>
<path d="M0.75 13.75C0.335786 13.75 0 13.4142 0 13H3C3 11.7574 1.99264 10.75 0.75 10.75V13.75ZM0.75 12.25C1.16421 12.25 1.5 12.5858 1.5 13H-1.5C-1.5 14.2426 -0.492641 15.25 0.75 15.25V12.25ZM0.75 15.25C1.99264 15.25 3 14.2426 3 13H0C0 12.5858 0.335786 12.25 0.75 12.25V15.25ZM0.75 10.75C-0.492641 10.75 -1.5 11.7574 -1.5 13H1.5C1.5 13.4142 1.16421 13.75 0.75 13.75V10.75Z" fill="white" mask="url(#path-3-inside-1_151_3909)"/>
</g>
<defs>
<clipPath id="clip0_151_3909">
<rect width="16" height="11.5" fill="white" transform="translate(0 2.25)"/>
</clipPath>
</defs>
</svg>
