<svg width="16" height="16" viewBox="0 0 16 16" fill="none" xmlns="http://www.w3.org/2000/svg">
<path d="M10.8636 2.25V2.25C11.2225 2.25 11.4019 2.25 11.5521 2.27297C12.4165 2.4051 13.0948 3.08341 13.2269 3.94777C13.2499 4.098 13.2499 4.27742 13.2499 4.63626L13.25 12.05C13.25 13.1701 13.25 13.7301 13.032 14.158C12.8403 14.5343 12.5343 14.8403 12.158 15.032C11.7301 15.25 11.1701 15.25 10.05 15.25H5.95C4.82989 15.25 4.26984 15.25 3.84202 15.032C3.46569 14.8403 3.15973 14.5343 2.96799 14.158C2.75 13.7302 2.75 13.1701 2.75 12.05L2.75 4.63626C2.75 4.27744 2.75 4.09803 2.77296 3.9478C2.90509 3.08342 3.58342 2.40509 4.4478 2.27296C4.59803 2.25 4.77744 2.25 5.13626 2.25V2.25" stroke="white" stroke-width="1.5" stroke-linecap="round" stroke-linejoin="round"/>
<path d="M9.25 0.75H6.75C6.51775 0.75 6.40162 0.75 6.30446 0.76539C5.76959 0.850104 5.3501 1.26959 5.26539 1.80446C5.25 1.90162 5.25 2.01775 5.25 2.25C5.25 2.48225 5.25 2.59838 5.26539 2.69554C5.3501 3.23041 5.76959 3.6499 6.30446 3.73461C6.40162 3.75 6.51775 3.75 6.75 3.75H9.25C9.48225 3.75 9.59838 3.75 9.69554 3.73461C10.2304 3.6499 10.6499 3.23041 10.7346 2.69554C10.75 2.59838 10.75 2.48225 10.75 2.25C10.75 2.01775 10.75 1.90162 10.7346 1.80446C10.6499 1.26959 10.2304 0.850104 9.69554 0.76539C9.59838 0.75 9.48225 0.75 9.25 0.75Z" stroke="white" stroke-width="1.5" stroke-linecap="round" stroke-linejoin="round"/>
</svg>
