<svg width="16" height="16" viewBox="0 0 16 16" fill="none" xmlns="http://www.w3.org/2000/svg">
<g clip-path="url(#clip0_151_3884)">
<path d="M1.03564 14.9642L1.61448 14.3853M1.61448 14.3853H3.06742C3.5566 14.3853 3.80119 14.3853 4.03136 14.3301C4.23544 14.2811 4.43053 14.2003 4.60947 14.0906C4.8113 13.9669 4.98426 13.794 5.33016 13.4481L12.1493 6.62891M1.61448 14.3853V12.9324C1.61448 12.4432 1.61448 12.1986 1.66974 11.9684C1.71874 11.7644 1.79954 11.5693 1.9092 11.3903C2.03288 11.1885 2.20584 11.0156 2.55174 10.6696L9.3709 3.85049M12.1493 6.62891L10.7601 5.2397L9.3709 3.85049M12.1493 6.62891L13.5385 8.01812M12.1493 6.62891L14.1462 4.63238C14.9135 3.86511 14.9136 2.62102 14.1463 1.8537V1.8537C13.379 1.08642 12.135 1.08642 11.3677 1.8537L9.3709 3.85049M9.3709 3.85049L7.98169 2.46128" stroke="white" stroke-width="1.5" stroke-linecap="round"/>
</g>
<defs>
<clipPath id="clip0_151_3884">
<rect width="16" height="16" fill="white"/>
</clipPath>
</defs>
</svg>
