<svg width="16" height="16" viewBox="0 0 16 16" fill="none" xmlns="http://www.w3.org/2000/svg">
<g clip-path="url(#clip0_151_4009)">
<path d="M2.16975 5.86317L1.45069 8.76905C0.822883 11.3062 0.508979 12.5747 0.856112 13.4625C1.15914 14.2375 1.77043 14.8518 2.54392 15.1586C3.42998 15.5101 4.70006 15.2024 7.24023 14.5871L7.24024 14.5871L10.1968 13.8709C11.2205 13.6229 11.7323 13.4989 12.1492 13.2355C12.518 13.0025 12.8315 12.6918 13.0679 12.3252C13.3352 11.9107 13.4639 11.4 13.7212 10.3787L13.7212 10.3787L14.469 7.41146C15.1212 4.823 15.4474 3.52877 15.0945 2.63185C14.7865 1.84921 14.1641 1.23178 13.379 0.930049C12.4793 0.584267 11.1878 0.920697 8.60457 1.59356L5.6193 2.37115C4.61406 2.63299 4.11144 2.76391 3.70303 3.02964C3.34175 3.26471 3.03537 3.57487 2.80474 3.93899C2.54403 4.35062 2.41927 4.85481 2.16975 5.86317Z" stroke="white" stroke-width="1.5" stroke-linecap="round" stroke-linejoin="round"/>
<path d="M6.08729 9.85314C7.11075 10.8766 8.77011 10.8766 9.79357 9.85314C10.817 8.82968 10.817 7.17032 9.79357 6.14686C8.77011 5.1234 7.11075 5.1234 6.08729 6.14686C5.06383 7.17032 5.06383 8.82968 6.08729 9.85314Z" stroke="white" stroke-width="1.5" stroke-linecap="round" stroke-linejoin="round"/>
</g>
<defs>
<clipPath id="clip0_151_4009">
<rect width="16" height="16" fill="white"/>
</clipPath>
</defs>
</svg>
