<svg width="16" height="16" viewBox="0 0 16 16" fill="none" xmlns="http://www.w3.org/2000/svg">
<path d="M12.05 12.5H3.95C2.8299 12.5 2.26984 12.5 1.84202 12.282C1.46569 12.0903 1.15973 11.7843 0.967987 11.408C0.75 10.9802 0.75 10.4201 0.75 9.3V5.43533C0.75 5.32482 0.75 5.26957 0.772465 5.24195C0.791991 5.21795 0.821512 5.20432 0.852444 5.20502C0.888034 5.20583 0.930093 5.24166 1.01421 5.31332L3.74325 7.63827C3.78338 7.67245 3.80344 7.68954 3.82565 7.69533C3.84521 7.70043 3.86586 7.69949 3.88488 7.69264C3.90648 7.68486 3.9249 7.66602 3.96176 7.62834L3.96176 7.62834L7.88543 3.61713C7.92544 3.57622 7.94545 3.55576 7.96863 3.54812C7.989 3.5414 8.011 3.5414 8.03137 3.54812C8.05455 3.55576 8.07456 3.57622 8.11457 3.61713L12.0382 7.62834L12.0382 7.62835C12.0751 7.66602 12.0935 7.68486 12.1151 7.69264C12.1341 7.69949 12.1548 7.70043 12.1743 7.69533C12.1966 7.68954 12.2166 7.67245 12.2567 7.63827L14.9858 5.31332C15.0699 5.24166 15.112 5.20583 15.1476 5.20502C15.1785 5.20432 15.208 5.21795 15.2275 5.24195C15.25 5.26957 15.25 5.32482 15.25 5.43533V9.3C15.25 10.4201 15.25 10.9802 15.032 11.408C14.8403 11.7843 14.5343 12.0903 14.158 12.282C13.7302 12.5 13.1701 12.5 12.05 12.5Z" stroke="white" stroke-width="1.5"/>
</svg>
