<svg width="16" height="16" viewBox="0 0 16 16" fill="none" xmlns="http://www.w3.org/2000/svg">
<g clip-path="url(#clip0_151_3916)">
<path d="M0.75 0.75L15.25 15.25" stroke="white" stroke-width="1.5" stroke-linecap="round"/>
<path d="M6.32694 7.07693C6.74116 7.07693 7.07694 6.74115 7.07694 6.32693C7.07694 5.91272 6.74116 5.57693 6.32694 5.57693V7.07693ZM2.42283 9.86538C2.83705 9.86538 3.17283 9.52959 3.17283 9.11538C3.17283 8.70117 2.83705 8.36538 2.42283 8.36538V9.86538ZM3.16308 6.89067C3.41105 7.22246 3.88104 7.2904 4.21282 7.04242C4.54461 6.79445 4.61255 6.32446 4.36458 5.99268L3.16308 6.89067ZM6.32694 5.57693H5.4231V7.07693H6.32694V5.57693ZM5.4231 13.0769H9.11899V11.5769H5.4231V13.0769ZM2.42283 8.36538C1.91303 8.36538 1.49976 7.9521 1.49976 7.4423H-0.000244141C-0.000244141 8.78053 1.0846 9.86538 2.42283 9.86538V8.36538ZM1.49976 7.4423C1.49976 6.9325 1.91303 6.51923 2.42283 6.51923V5.01923C1.0846 5.01923 -0.000244141 6.10407 -0.000244141 7.4423H1.49976ZM2.42283 6.51923C2.72513 6.51923 2.99348 6.66375 3.16308 6.89067L4.36458 5.99268C3.924 5.40319 3.21816 5.01923 2.42283 5.01923V6.51923ZM9.11899 13.0769C10.2218 13.0769 11.2627 12.5671 11.9387 11.6958L10.7536 10.7763C10.3617 11.2814 9.75831 11.5769 9.11899 11.5769V13.0769ZM1.6731 9.32693C1.6731 11.398 3.35203 13.0769 5.4231 13.0769V11.5769C4.18045 11.5769 3.1731 10.5696 3.1731 9.32693H1.6731ZM5.4231 5.57693C3.35203 5.57693 1.6731 7.25587 1.6731 9.32693H3.1731C3.1731 8.08429 4.18046 7.07693 5.4231 7.07693V5.57693Z" fill="white"/>
<path d="M7.5001 12V12C7.5001 11.7346 7.5001 11.6019 7.48543 11.4905C7.38416 10.7213 6.77883 10.1159 6.00957 10.0147C5.89817 10 5.76548 10 5.5001 10H5.40015" stroke="white" stroke-width="1.5" stroke-linecap="round"/>
<path d="M13.0193 9.704C12.6051 9.704 12.2693 10.0398 12.2693 10.454C12.2693 10.8682 12.6051 11.204 13.0193 11.204V9.704ZM14.1124 6.27819L14.4805 5.6247L14.4766 5.62257L14.1124 6.27819ZM13.4145 5.80204L13.9425 5.26937L13.9425 5.26937L13.4145 5.80204ZM10.2952 2.71018L9.76718 3.24285L9.76718 3.24285L10.2952 2.71018ZM8.81361 3.92645L9.36856 3.42195L9.36856 3.42195L8.81361 3.92645ZM10.0729 2.53298L10.5189 1.92997L10.5189 1.92997L10.0729 2.53298ZM10.1863 2.61683L9.74036 3.21985L9.74036 3.21985L10.1863 2.61683ZM8.59355 3.50894L9.3234 3.33627L9.3234 3.33627L8.59355 3.50894ZM14.1124 6.27818L13.7443 6.93167L13.7482 6.93379L14.1124 6.27818ZM13.6647 6.02178L13.2453 6.64359L13.2453 6.64359L13.6647 6.02178ZM13.567 5.94796L14.0504 5.3746L14.0504 5.3746L13.567 5.94796ZM14.5001 8.22323C14.5001 9.04104 13.8371 9.704 13.0193 9.704V11.204C14.6655 11.204 16.0001 9.86947 16.0001 8.22323H14.5001ZM13.7444 6.93167C14.1971 7.18663 14.5001 7.67004 14.5001 8.22323H16.0001C16.0001 7.10671 15.3859 6.13463 14.4805 5.62471L13.7444 6.93167ZM13.9425 5.26937L10.8231 2.17751L9.76718 3.24285L12.8865 6.33471L13.9425 5.26937ZM8.25865 4.43096L9.68915 6.0045L10.7991 4.9955L9.36856 3.42195L8.25865 4.43096ZM9.62698 3.136L9.74036 3.21985L10.6323 2.01381L10.5189 1.92997L9.62698 3.136ZM9.3234 3.33627C9.31012 3.28011 9.318 3.24358 9.32915 3.21757C9.34226 3.18701 9.36761 3.15486 9.40521 3.13006C9.44281 3.10525 9.48233 3.0946 9.5156 3.09458C9.54389 3.09456 9.58058 3.10169 9.62698 3.136L10.5189 1.92997C9.24999 0.991591 7.50037 2.14582 7.8637 3.6816L9.3234 3.33627ZM9.36856 3.42195C9.34649 3.39767 9.33096 3.36819 9.3234 3.33627L7.8637 3.6816C7.92975 3.96081 8.06565 4.21866 8.25865 4.43096L9.36856 3.42195ZM10.8231 2.17751C10.7635 2.11843 10.6997 2.06372 10.6323 2.01381L9.74036 3.21985C9.74984 3.22686 9.75881 3.23455 9.76718 3.24285L10.8231 2.17751ZM14.4766 5.62257L14.4766 5.62256L13.7482 6.93379L13.7482 6.93381L14.4766 5.62257ZM14.4804 5.62469C14.3431 5.54732 14.2429 5.49088 14.1721 5.45049C14.1366 5.43028 14.1111 5.41554 14.0933 5.40505C14.0714 5.39211 14.073 5.39253 14.084 5.39997L13.2453 6.64359C13.3165 6.69158 13.4971 6.7924 13.7443 6.93166L14.4804 5.62469ZM12.8865 6.33471C12.9542 6.40177 13.0194 6.46729 13.0835 6.52132L14.0504 5.3746C14.0511 5.37514 14.046 5.37094 14.0274 5.35301C14.0081 5.33438 13.983 5.30958 13.9425 5.26937L12.8865 6.33471ZM14.084 5.39997C14.0761 5.39459 14.0693 5.39006 14.0641 5.38658C14.0585 5.38282 14.0556 5.38085 14.0535 5.37941C14.0494 5.37662 14.0563 5.38119 14.0662 5.38869C14.0761 5.39618 14.0824 5.40157 14.0786 5.39837C14.0766 5.39673 14.0739 5.39445 14.0688 5.39009C14.064 5.38606 14.0578 5.3808 14.0504 5.3746L13.0835 6.52132C13.0921 6.52856 13.1076 6.54174 13.1149 6.54784C13.1253 6.55659 13.1417 6.57022 13.162 6.58557C13.1824 6.60092 13.2 6.61298 13.2112 6.62063C13.2191 6.62597 13.236 6.63731 13.2453 6.64359L14.084 5.39997Z" fill="white"/>
<path d="M10.246 5.49854C9.74598 5.49854 9.46099 6.23688 9.67291 6.52814" stroke="white" stroke-width="1.5" stroke-linecap="round"/>
</g>
<defs>
<clipPath id="clip0_151_3916">
<rect width="16" height="16" fill="white"/>
</clipPath>
</defs>
</svg>
