<svg width="16" height="16" viewBox="0 0 16 16" fill="none" xmlns="http://www.w3.org/2000/svg">
<mask id="path-1-inside-1_151_3958" fill="white">
<ellipse cx="5.64583" cy="8" rx="1.14583" ry="1.25"/>
</mask>
<ellipse cx="5.64583" cy="8" rx="1.14583" ry="1.25" fill="white"/>
<path d="M4.50595 8C4.50595 7.61927 4.83315 6.96429 5.64583 6.96429V11.5357C7.72417 11.5357 9.07738 9.76144 9.07738 8H4.50595ZM5.64583 6.96429C6.45852 6.96429 6.78571 7.61927 6.78571 8H2.21429C2.21429 9.76144 3.5675 11.5357 5.64583 11.5357V6.96429ZM6.78571 8C6.78571 8.38073 6.45852 9.03571 5.64583 9.03571V4.46429C3.5675 4.46429 2.21429 6.23856 2.21429 8H6.78571ZM5.64583 9.03571C4.83315 9.03571 4.50595 8.38073 4.50595 8H9.07738C9.07738 6.23856 7.72417 4.46429 5.64583 4.46429V9.03571Z" fill="white" mask="url(#path-1-inside-1_151_3958)"/>
<mask id="path-3-inside-2_151_3958" fill="white">
<ellipse cx="10.3541" cy="8" rx="1.14583" ry="1.25"/>
</mask>
<ellipse cx="10.3541" cy="8" rx="1.14583" ry="1.25" fill="white"/>
<path d="M9.2142 8C9.2142 7.61927 9.5414 6.96429 10.3541 6.96429V11.5357C12.4324 11.5357 13.7856 9.76144 13.7856 8H9.2142ZM10.3541 6.96429C11.1668 6.96429 11.494 7.61927 11.494 8H6.92254C6.92254 9.76144 8.27575 11.5357 10.3541 11.5357V6.96429ZM11.494 8C11.494 8.38073 11.1668 9.03571 10.3541 9.03571V4.46429C8.27575 4.46429 6.92254 6.23856 6.92254 8H11.494ZM10.3541 9.03571C9.5414 9.03571 9.2142 8.38073 9.2142 8H13.7856C13.7856 6.23856 12.4324 4.46429 10.3541 4.46429V9.03571Z" fill="white" mask="url(#path-3-inside-2_151_3958)"/>
<path d="M7.99635 3.4375C7.51577 3.43782 7.03537 3.50032 6.62345 3.625L6.34814 2.875C5.2469 2.875 4.69793 2.87501 3.04452 3.625C1.39111 4.37499 0.439413 10.8954 0.842041 11.625C1.24467 12.3546 3.77868 12.9583 4.69637 13.125L5.2469 12.625C5.2469 12.625 4.5 12 4.5 11.5C5.60124 12 7.5595 12 8 12C8.4405 12 10.3988 12 11.5 11.5C11.5 12 10.7531 12.625 10.7531 12.625L11.3036 13.125C12.2213 12.9583 14.7553 12.3546 15.158 11.625C15.5606 10.8954 14.6089 4.37499 12.9555 3.625C11.3021 2.87501 10.7531 2.875 9.65186 2.875L9.37655 3.625C8.96463 3.50032 8.48423 3.43782 8.00365 3.4375" stroke="white" stroke-width="1.5" stroke-linecap="round" stroke-linejoin="round"/>
</svg>
