<svg width="16" height="16" viewBox="0 0 16 16" fill="none" xmlns="http://www.w3.org/2000/svg">
<g clip-path="url(#clip0_151_3843)">
<path d="M11.5666 8.66463L9.02768 13.8179C8.78081 14.319 8.25624 14.6219 7.69887 14.5851V14.5851C6.97356 14.5372 6.40973 13.9349 6.40973 13.208V10.4035C6.40973 10.1772 6.22629 9.99379 6 9.99379V9.99379H2.24006C2.02649 9.99597 1.81495 9.95624 1.62009 9.87734C1.42523 9.79845 1.25171 9.68228 1.11156 9.53688C0.971408 9.39149 0.867975 9.22034 0.808425 9.0353C0.748875 8.85026 0.734633 8.65575 0.766685 8.46526L1.78332 2.48405C1.8366 2.16711 2.01505 1.87821 2.28581 1.6706C2.55656 1.46298 2.90137 1.35064 3.25669 1.35426H11.5666M11.5666 8.66463V1.35426M11.5666 8.66463H13.7766C14.1674 8.66463 14.5421 8.5246 14.8185 8.27533C15.0948 8.02606 15.25 7.68799 15.25 7.33547V2.68342C15.25 2.33091 15.0948 1.99283 14.8185 1.74356C14.5421 1.4943 14.1674 1.35426 13.7766 1.35426H11.5666" stroke="white" stroke-width="1.5" stroke-linecap="round" stroke-linejoin="round"/>
</g>
<defs>
<clipPath id="clip0_151_3843">
<rect width="16" height="16" fill="white"/>
</clipPath>
</defs>
</svg>
