<svg width="16" height="16" viewBox="0 0 16 16" fill="none" xmlns="http://www.w3.org/2000/svg">
<path d="M13.0503 0.895672L13.0502 0.895688L13.0551 0.897111C13.6068 1.05963 14.0742 1.34908 14.4691 1.774L14.4691 1.774L14.4719 1.77695C14.8685 2.19922 15.105 2.6682 15.1997 3.19514L15.1997 3.19549C15.2859 3.67348 15.2595 4.10499 15.1349 4.5027L15.1349 4.50269L15.1329 4.50931C15.0061 4.9276 14.7989 5.29594 14.5075 5.62115L14.5075 5.62114L14.5039 5.62522C14.2159 5.95128 13.8685 6.20877 13.4538 6.39884L13.4511 6.40009C13.0547 6.58367 12.6164 6.67935 12.1258 6.67935C11.8422 6.67935 11.5746 6.64295 11.3206 6.57215C11.0546 6.49803 10.8102 6.39678 10.5852 6.26944L10.5852 6.26936L10.5747 6.26358L5.90664 3.71955L5.90666 3.7195L5.89865 3.71526C5.89723 3.71451 5.8959 3.71379 5.89464 3.71309C5.89875 3.71022 5.90415 3.70674 5.9111 3.70276L10.6325 1.13247C10.9723 0.954838 11.3487 0.835435 11.7678 0.778095L11.7678 0.778124L11.7743 0.77717C12.1584 0.721165 12.5806 0.753879 13.0503 0.895672ZM13.8217 11.6897L13.8222 11.6907C14.0277 12.0855 14.12 12.5117 14.0952 12.9849C14.0708 13.4436 13.9318 13.8422 13.6781 14.1988L13.6763 14.2014C13.365 14.6432 12.995 14.9276 12.5633 15.087C12.1057 15.2561 11.6495 15.2919 11.1791 15.1978C10.7223 15.1064 10.3197 14.8926 9.95992 14.5375C9.80279 14.3801 9.67848 14.2135 9.58289 14.0376L9.58292 14.0376L9.57954 14.0315C9.4771 13.8471 9.40022 13.6564 9.34768 13.4584L9.34772 13.4584L9.34571 13.4511L8.21629 9.36081L12.3597 10.5033C12.6517 10.5937 12.9325 10.7355 13.2035 10.9345C13.4358 11.1051 13.6449 11.3488 13.8217 11.6897ZM8.25819 8.59438L8.25817 8.59446L8.25819 8.59438ZM2.85697 7.19964L4.69475 10.4341C4.82194 10.6666 4.90721 10.9237 4.94772 11.2113L4.94762 11.2113L4.94948 11.2231C4.98683 11.4608 4.96696 11.7294 4.86609 12.0401L4.86371 12.0475L4.86148 12.0548C4.74879 12.4279 4.5479 12.7435 4.24718 13.0126C3.95057 13.2779 3.61969 13.4356 3.24068 13.4968L3.24067 13.4967L3.22963 13.4987C2.77215 13.5797 2.37446 13.527 2.01165 13.3587L2.00851 13.3573C1.62594 13.1819 1.32365 12.9263 1.08942 12.5815C0.864549 12.2454 0.75 11.8694 0.75 11.4316C0.75 11.2467 0.774907 11.0712 0.823565 10.9027C0.875792 10.722 0.947473 10.5531 1.03853 10.3948L1.04017 10.3919L2.85697 7.19964Z" stroke="white" stroke-width="1.5"/>
</svg>
