<svg width="16" height="16" viewBox="0 0 16 16" fill="none" xmlns="http://www.w3.org/2000/svg">
<g clip-path="url(#clip0_151_3800)">
<path d="M8.0001 12.7C9.64101 11.0591 11.7872 8.91288 13.3886 7.31147C14.1798 6.52029 14.5754 6.1247 14.7238 5.66805C14.8543 5.26636 14.8543 4.83367 14.7238 4.43198C14.5754 3.97532 14.1794 3.5793 13.3874 2.78727L12.8128 2.21275C12.0208 1.42072 11.6248 1.0247 11.1681 0.876326C10.7664 0.74581 10.3338 0.74581 9.93207 0.876326C9.47541 1.0247 9.07982 1.42029 8.28864 2.21147C6.68723 3.81288 4.54101 5.9591 2.9001 7.60001M8.0001 12.7C7.90854 12.7916 7.81226 12.8879 7.7129 12.9872C6.92083 13.7793 6.52479 14.1753 6.06813 14.3237C5.66644 14.4542 5.23375 14.4542 4.83206 14.3237C4.37541 14.1753 3.97939 13.7793 3.18736 12.9873L2.61284 12.4128C1.82081 11.6207 1.42479 11.2247 1.27641 10.768C1.1459 10.3664 1.1459 9.93367 1.27641 9.53198C1.42479 9.07532 1.82083 8.67928 2.6129 7.88721C2.71226 7.78785 2.80854 7.69157 2.9001 7.60001M8.0001 12.7C6.00842 10.7083 4.89177 9.59169 2.9001 7.60001" stroke="white" stroke-width="1.5" stroke-linecap="round" stroke-linejoin="round"/>
<path d="M15.0354 15.2461H6.74433C6.25515 15.2461 6.01056 15.2461 5.78038 15.1909C5.57631 15.1419 5.38122 15.0611 5.20228 14.9514C5.00044 14.8277 4.82749 14.6548 4.48159 14.3089L2.70947 12.5367" stroke="white" stroke-width="1.5" stroke-linecap="round" stroke-linejoin="round"/>
</g>
<defs>
<clipPath id="clip0_151_3800">
<rect width="16" height="16" fill="white"/>
</clipPath>
</defs>
</svg>
