<svg width="16" height="16" viewBox="0 0 16 16" fill="none" xmlns="http://www.w3.org/2000/svg">
<path d="M5.22085 15.25C2.19035 15.25 1.58135 13.4157 2.56735 11.1827L5.6486 4.1865H5.4311C4.95985 4.1865 4.52485 3.998 4.2131 3.68625C3.8941 3.3745 3.7056 2.9395 3.7056 2.46825C3.7056 1.52575 4.4741 0.75 5.42385 0.75H10.5786C11.0571 0.75 11.4849 0.94575 11.7966 1.2575C12.2026 1.6635 12.4056 2.258 12.2534 2.88875C12.0576 3.67175 11.3036 4.1865 10.4989 4.1865H10.3829L13.4424 11.19C14.4211 13.423 13.7831 15.25 10.7816 15.25H5.22085Z" stroke="white" stroke-width="1.5" stroke-linecap="round" stroke-linejoin="round"/>
<path d="M3.61133 8.81198C3.61133 8.81198 5.82983 8.72498 8.00483 9.44998C10.1798 10.175 12.2316 8.80473 12.2316 8.80473" stroke="white" stroke-width="1.5" stroke-linecap="round" stroke-linejoin="round"/>
</svg>
