<svg width="16" height="16" viewBox="0 0 16 16" fill="none" xmlns="http://www.w3.org/2000/svg">
<g clip-path="url(#clip0_151_3845)">
<path d="M9.5431 12.75L10.078 12.2243C9.93702 12.0808 9.74428 12 9.5431 12V12.75ZM12 15.25L11.4651 15.7757C11.6785 15.9929 12.0021 16.0595 12.284 15.9442C12.5659 15.8288 12.75 15.5545 12.75 15.25H12ZM12 12.6798L11.8602 11.9429C11.5062 12.0101 11.25 12.3195 11.25 12.6798H12ZM1.5 4.75C1.5 2.95507 2.95507 1.5 4.75 1.5V0C2.12665 0 0 2.12665 0 4.75H1.5ZM1.5 8.75V4.75H0V8.75H1.5ZM4.75 12C2.95507 12 1.5 10.5449 1.5 8.75H0C0 11.3734 2.12665 13.5 4.75 13.5V12ZM9.5431 12H4.75V13.5H9.5431V12ZM12.5349 14.7243L10.078 12.2243L9.00818 13.2757L11.4651 15.7757L12.5349 14.7243ZM11.25 12.6798V15.25H12.75V12.6798H11.25ZM14.5 8.75C14.5 10.3358 13.3635 11.6578 11.8602 11.9429L12.1398 13.4167C14.3378 12.9997 16 11.0698 16 8.75H14.5ZM14.5 4.75V8.75H16V4.75H14.5ZM11.25 1.5C13.0449 1.5 14.5 2.95507 14.5 4.75H16C16 2.12665 13.8734 0 11.25 0V1.5ZM4.75 1.5H11.25V0H4.75V1.5Z" fill="white"/>
<rect x="7.625" y="3.625" width="0.75" height="3.25" rx="0.375" fill="white"/>
<rect x="7.625" y="3.625" width="0.75" height="3.25" rx="0.375" stroke="white" stroke-width="0.75"/>
<rect x="7.625" y="9.125" width="0.75" height="0.75" rx="0.375" fill="white"/>
<rect x="7.625" y="9.125" width="0.75" height="0.75" rx="0.375" stroke="white" stroke-width="0.75"/>
</g>
<defs>
<clipPath id="clip0_151_3845">
<rect width="16" height="16" fill="white"/>
</clipPath>
</defs>
</svg>
