<svg width="16" height="16" viewBox="0 0 16 16" fill="none" xmlns="http://www.w3.org/2000/svg">
<g clip-path="url(#clip0_151_3819)">
<path d="M14.0011 3.41236C14.751 2.56788 15.1259 2.14564 15.1392 1.78703C15.1507 1.47549 15.0163 1.17639 14.7757 0.978165C14.4987 0.75 13.9341 0.75 12.8047 0.75H3.19546C2.06611 0.75 1.50144 0.75 1.22447 0.978165C0.983842 1.17639 0.84943 1.47549 0.860976 1.78703C0.874266 2.14564 1.24919 2.56788 1.99904 3.41235L6.12031 8.05368C6.26961 8.22183 6.34426 8.3059 6.39748 8.40142C6.44468 8.48615 6.47931 8.57729 6.50027 8.67198C6.5239 8.77875 6.5239 8.89118 6.5239 9.11604V13.0983C6.5239 13.3167 6.5239 13.426 6.54557 13.5284C6.57739 13.6787 6.64341 13.8196 6.73851 13.9403C6.8033 14.0225 6.88722 14.0925 7.05505 14.2323V14.2323C7.71733 14.7842 8.04846 15.0602 8.32158 15.1029C8.72427 15.166 9.12493 14.9783 9.33429 14.6286C9.47628 14.3914 9.47628 13.9604 9.47628 13.0983V9.11604C9.47628 8.89118 9.47628 8.77875 9.49991 8.67198C9.52087 8.57729 9.5555 8.48615 9.6027 8.40142C9.65592 8.3059 9.73057 8.22183 9.87987 8.05369L14.0011 3.41236Z" stroke="white" stroke-width="1.5" stroke-linecap="round" stroke-linejoin="round"/>
</g>
<defs>
<clipPath id="clip0_151_3819">
<rect width="16" height="16" fill="white"/>
</clipPath>
</defs>
</svg>
