<svg width="16" height="16" viewBox="0 0 16 16" fill="none" xmlns="http://www.w3.org/2000/svg">
<g clip-path="url(#clip0_151_3963)">
<path d="M11.8765 5.44502C12.448 5.9683 12.9054 6.60389 13.22 7.31202C13.5425 8.03646 13.7046 8.80465 13.7046 9.59553C13.7062 10.3531 13.5534 11.103 13.2557 11.7996C12.9688 12.4722 12.5572 13.0783 12.0321 13.5969C11.5119 14.1144 10.8959 14.5256 10.2186 14.8076C9.51519 15.1009 8.76969 15.25 7.99988 15.25C7.23007 15.25 6.48456 15.1009 5.7812 14.8059C5.10214 14.5223 4.49278 14.1139 3.96768 13.5953C3.44755 13.0809 3.03202 12.4705 2.74409 11.798C2.44589 11.0995 2.29517 10.3589 2.29517 9.59391C2.29564 8.7263 2.49641 7.87052 2.88184 7.09323C3.26823 6.32266 3.82394 5.6495 4.50736 5.12414C4.79113 4.9047 5.04935 4.65408 5.27718 4.37701C5.60455 3.97833 5.86061 3.53427 6.03888 3.05618C6.18474 2.6656 6.24633 2.19561 6.22202 1.66403L6.18636 0.886116C6.1815 0.784015 6.29333 0.715947 6.38084 0.767808L7.05017 1.16163C7.96747 1.70293 8.70162 2.47922 9.22996 3.47431C9.8685 4.67197 10.1602 5.7724 10.1003 6.74803C10.0986 6.7772 10.11 6.80638 10.1327 6.82582C10.157 6.84851 10.1845 6.85176 10.2024 6.85013C10.2202 6.84851 10.2461 6.84203 10.2688 6.81772C10.6108 6.43687 10.8522 6.04953 10.9835 5.6703L11.1942 5.06579C11.2015 5.04559 11.2136 5.02749 11.2294 5.01306C11.2453 4.99864 11.2645 4.98833 11.2853 4.98305C11.3061 4.97777 11.3279 4.97768 11.3487 4.98278C11.3696 4.98788 11.3889 4.99802 11.4049 5.01231L11.8765 5.44502Z" stroke="white" stroke-width="1.5"/>
</g>
<defs>
<clipPath id="clip0_151_3963">
<rect width="16" height="16" fill="white"/>
</clipPath>
</defs>
</svg>
