<svg width="16" height="16" viewBox="0 0 16 16" fill="none" xmlns="http://www.w3.org/2000/svg">
<path d="M8.1 15.25H7.9C7.05992 15.25 6.63988 15.25 6.31901 15.0865C6.03677 14.9427 5.8073 14.7132 5.66349 14.431C5.5 14.1101 5.5 13.6901 5.5 12.85V7.72666C5.5 7.45657 5.5 7.32152 5.47672 7.19093C5.45606 7.07502 5.42183 6.96195 5.37472 6.85405C5.32165 6.73248 5.24674 6.62011 5.09692 6.39538L3.90308 4.60462C3.75326 4.37989 3.67835 4.26752 3.62528 4.14595C3.57817 4.03805 3.54394 3.92498 3.52328 3.80907C3.5 3.67848 3.5 3.54343 3.5 3.27334V3.15C3.5 2.30992 3.5 1.88988 3.66349 1.56901C3.8073 1.28677 4.03677 1.0573 4.31901 0.91349C4.63988 0.75 5.05992 0.75 5.9 0.75H10.0999C10.94 0.75 11.3601 0.75 11.6809 0.91349C11.9632 1.0573 12.1926 1.28677 12.3365 1.56901C12.4999 1.88988 12.4999 2.30992 12.4999 3.15V3.27335C12.4999 3.54344 12.4999 3.67849 12.4767 3.80907C12.456 3.92498 12.4218 4.03805 12.3747 4.14595C12.3216 4.26751 12.2467 4.37988 12.0969 4.6046L12.0969 4.60461L10.9031 6.39539L10.9031 6.39539C10.7532 6.62012 10.6783 6.73248 10.6253 6.85405C10.5782 6.96195 10.5439 7.07502 10.5233 7.19093C10.5 7.32151 10.5 7.45656 10.5 7.72665V12.85C10.5 13.6901 10.5 14.1101 10.3365 14.431C10.1927 14.7132 9.96323 14.9427 9.68099 15.0865C9.36012 15.25 8.94008 15.25 8.1 15.25Z" stroke="white" stroke-width="1.5" stroke-linejoin="round"/>
<path d="M3.5 4H12.5" stroke="white" stroke-width="1.5"/>
<path d="M8 11V9" stroke="white" stroke-width="1.5" stroke-linecap="round"/>
</svg>
