<svg width="16" height="16" viewBox="0 0 16 16" fill="none" xmlns="http://www.w3.org/2000/svg">
<g clip-path="url(#clip0_151_3975)">
<path d="M1.76317 5.61832C1.41864 6.44278 1.22834 7.34776 1.22834 8.29718C1.22834 12.1371 4.34122 15.25 8.18116 15.25C12.0211 15.25 15.134 12.1371 15.134 8.29718C15.134 6.9239 14.7358 5.6436 14.0487 4.56542M1.76317 5.61832C1.22834 4.90678 0.37377 2.521 1.2295 0.809535L4.00619 2.73688M1.76317 5.61832C2.24357 4.46873 3.02383 3.47567 4.00619 2.73688M4.00619 2.73688C5.16879 1.86255 6.61446 1.34437 8.18116 1.34437C9.46022 1.34437 10.6586 1.68975 11.6882 2.29234M11.6882 2.29234C12.6918 1.32398 13.9463 0.520841 14.5237 0.809629C14.9947 1.0452 14.5384 3.20121 14.0487 4.56542M11.6882 2.29234C10.8335 3.11699 10.1606 4.06146 10.2426 4.55343C10.4209 5.62309 11.7667 7.38723 13.5309 5.6231C13.6767 5.47723 13.865 5.077 14.0487 4.56542" stroke="white" stroke-width="1.5" stroke-linejoin="round"/>
</g>
<defs>
<clipPath id="clip0_151_3975">
<rect width="16" height="16" fill="white"/>
</clipPath>
</defs>
</svg>
