<svg width="16" height="16" viewBox="0 0 16 16" fill="none" xmlns="http://www.w3.org/2000/svg">
<path d="M10.9715 6.15789L10.4919 6.31559C9.77392 6.55165 9.17888 7.06275 8.83719 7.73684V7.73684M8.83719 7.73684V7.73684C8.50988 8.38255 7.84741 8.78947 7.12348 8.78947H2.91517C2.60149 8.78947 2.29467 8.88132 2.03259 9.05366L1.41791 9.45787C1.08511 9.67672 0.969709 10.1106 1.1498 10.4659V10.4659C1.28315 10.7289 1.55307 10.8947 1.84802 10.8947H3.54498C3.87015 10.8947 4.19377 10.9395 4.50674 11.0277L7.77005 11.9474L9.37076 12.4737L9.97598 12.6727C10.6286 12.8873 11.3256 12.9301 11.9996 12.7972L12.2645 12.7449C13.1502 12.5702 13.9411 12.0768 14.4875 11.3582L14.5426 11.2857C14.9951 10.6906 15.24 9.96365 15.24 9.21606V9.21606C15.24 8.93277 15.2048 8.65057 15.1352 8.37596L14.8811 7.37334C14.7656 6.91749 14.5706 6.48559 14.3051 6.09746L13.0356 4.24197C12.8492 3.9695 12.5881 3.75666 12.2836 3.62902V3.62902C12.1213 3.56096 11.9494 3.51831 11.774 3.50259L7.28832 3.10034C6.55649 3.03472 5.82072 3.17194 5.16174 3.49694L2.10865 5.00273C1.97095 5.07065 1.84505 5.16022 1.73574 5.26804L0.944159 6.04886C0.628998 6.35973 0.714442 6.88859 1.11147 7.0844V7.0844C1.27432 7.16472 1.46352 7.17252 1.63243 7.10587L4.03505 6.15789L5.952 5.44881C6.09575 5.39564 6.2478 5.36842 6.40106 5.36842V5.36842C6.59963 5.36842 6.79553 5.4141 6.97361 5.50193L8.09342 6.05422C8.22799 6.12059 8.33062 6.23778 8.37865 6.37993V6.37993L8.83719 7.73684Z" stroke="white" stroke-width="1.5" stroke-linecap="round"/>
</svg>
