<svg width="16" height="16" viewBox="0 0 16 16" fill="none" xmlns="http://www.w3.org/2000/svg">
<rect x="0.75" y="2.75" width="14.5" height="10.5" rx="2.25" stroke="white" stroke-width="1.5"/>
<path d="M4.90476 5.5H4.6C4.03995 5.5 3.75992 5.5 3.54601 5.60899C3.35785 5.70487 3.20487 5.85785 3.10899 6.04601C3 6.25992 3 6.53995 3 7.1V9.07143C3 9.47041 3 9.66991 3.05612 9.83028C3.15663 10.1175 3.38247 10.3434 3.66972 10.4439C3.83009 10.5 4.02959 10.5 4.42857 10.5V10.5C4.82756 10.5 5.02705 10.5 5.18742 10.4439C5.47467 10.3434 5.70051 10.1175 5.80103 9.83028C5.85714 9.66991 5.85714 9.47041 5.85714 9.07143V8.8C5.85714 8.51997 5.85714 8.37996 5.80265 8.273C5.75471 8.17892 5.67822 8.10243 5.58414 8.0545C5.47718 8 5.33717 8 5.05714 8H4.90476M8.2381 5.5V10.5M11.0952 10.5V8M13 5.5H12.6952C12.1352 5.5 11.8552 5.5 11.6412 5.60899C11.4531 5.70487 11.3001 5.85785 11.2042 6.04601C11.0952 6.25992 11.0952 6.53995 11.0952 7.1V8M11.0952 8H13" stroke="white" stroke-width="1.5" stroke-linecap="round" stroke-linejoin="round"/>
</svg>
