<svg width="16" height="16" viewBox="0 0 16 16" fill="none" xmlns="http://www.w3.org/2000/svg">
<path d="M13.7789 6.54893H2.17749V12.3496C2.17749 14.5249 2.90258 15.25 5.07784 15.25H10.8786C13.0538 15.25 13.7789 14.5249 13.7789 12.3496V6.54893Z" stroke="white" stroke-width="1.5" stroke-miterlimit="10" stroke-linecap="round" stroke-linejoin="round"/>
<path d="M14.8883 4.37367V5.09876C14.8883 5.89636 14.504 6.54893 13.4381 6.54893H2.56175C1.45236 6.54893 1.11157 5.89636 1.11157 5.09876V4.37367C1.11157 3.57607 1.45236 2.92349 2.56175 2.92349H13.4381C14.504 2.92349 14.8883 3.57607 14.8883 4.37367Z" stroke="white" stroke-width="1.5" stroke-miterlimit="10" stroke-linecap="round" stroke-linejoin="round"/>
<path d="M7.73899 2.92345H3.7365C3.48997 2.65517 3.49722 2.24187 3.75825 1.98084L4.78788 0.951212C5.05616 0.682929 5.49846 0.682929 5.76675 0.951212L7.73899 2.92345Z" stroke="white" stroke-width="1.5" stroke-miterlimit="10" stroke-linecap="round" stroke-linejoin="round"/>
<path d="M12.2562 2.92345H8.25366L10.2259 0.951212C10.4942 0.682929 10.9365 0.682929 11.2048 0.951212L12.2344 1.98084C12.4954 2.24187 12.5027 2.65517 12.2562 2.92345Z" stroke="white" stroke-width="1.5" stroke-miterlimit="10" stroke-linecap="round" stroke-linejoin="round"/>
<path d="M5.78101 6.54893V10.2759C5.78101 10.856 6.41908 11.1968 6.90489 10.885L7.58648 10.4354C7.83301 10.2759 8.14479 10.2759 8.38407 10.4354L9.0294 10.8705C9.50796 11.1895 10.1533 10.8487 10.1533 10.2686V6.54893H5.78101Z" stroke="white" stroke-width="1.5" stroke-miterlimit="10" stroke-linecap="round" stroke-linejoin="round"/>
</svg>
