<svg width="16" height="16" viewBox="0 0 16 16" fill="none" xmlns="http://www.w3.org/2000/svg">
<g clip-path="url(#clip0_151_3902)">
<path d="M2.5765 15.2611L7.24316 7.17822" stroke="white" stroke-width="1.5" stroke-linecap="round"/>
<path d="M9.90975 2.55942L10.5764 1.40472" stroke="white" stroke-width="1.5" stroke-linecap="round"/>
<path d="M6.91688 1.13873L13.0108 4.65706C13.4958 4.93709 13.7383 5.0771 13.8691 5.27845C13.9841 5.45556 14.0401 5.66453 14.0291 5.87542C14.0165 6.11517 13.8765 6.35768 13.5965 6.8427L12.9298 7.9974C12.6498 8.48242 12.5098 8.72493 12.3084 8.85569C12.1313 8.97071 11.9223 9.0267 11.7114 9.01565C11.4717 9.00308 11.2292 8.86307 10.7441 8.58304L4.0389 4.71177C3.27946 4.27331 2.89974 4.05407 2.76686 3.76424C2.65087 3.51126 2.64555 3.2214 2.75218 2.96433C2.87434 2.66982 3.24576 2.4368 3.9886 1.97077L5.26658 1.16901C5.56322 0.98291 5.71154 0.889858 5.87106 0.851644C6.01216 0.817843 6.15892 0.815149 6.30116 0.843751C6.46197 0.876086 6.61361 0.963633 6.91688 1.13873Z" stroke="white" stroke-width="1.5" stroke-linecap="round" stroke-linejoin="round"/>
</g>
<defs>
<clipPath id="clip0_151_3902">
<rect width="16" height="16" fill="white"/>
</clipPath>
</defs>
</svg>
