<svg width="16" height="16" viewBox="0 0 16 16" fill="none" xmlns="http://www.w3.org/2000/svg">
<path d="M12.2502 13H3.75024C2.81836 13 2.35242 13 1.98488 12.8478C1.49482 12.6448 1.10547 12.2554 0.902485 11.7654C0.750244 11.3978 0.750244 10.9319 0.750244 10C0.750244 9.06812 0.750244 8.60218 0.902485 8.23463C1.10547 7.74458 1.49482 7.35523 1.98488 7.15224C2.35242 7 2.81836 7 3.75024 7H12.2502C13.1821 7 13.6481 7 14.0156 7.15224C14.5057 7.35523 14.895 7.74458 15.098 8.23463C15.2502 8.60218 15.2502 9.06812 15.2502 10C15.2502 10.9319 15.2502 11.3978 15.098 11.7654C14.895 12.2554 14.5057 12.6448 14.0156 12.8478C13.6481 13 13.1821 13 12.2502 13Z" stroke="white" stroke-width="1.5" stroke-linecap="round" stroke-linejoin="round"/>
<path d="M3.65015 9.89999H3.65681" stroke="white" stroke-width="1.5" stroke-linecap="round" stroke-linejoin="round"/>
<path d="M6.55029 9.89999H6.55696" stroke="white" stroke-width="1.5" stroke-linecap="round" stroke-linejoin="round"/>
<path d="M0.75 10V9.1293C0.75 8.89422 0.75 8.77667 0.763559 8.66083C0.775603 8.55791 0.795627 8.45609 0.823448 8.35629C0.854767 8.24393 0.899277 8.13514 0.988296 7.91756L2.18678 4.98826C2.48064 4.27 2.62758 3.91086 2.87013 3.64687C3.08446 3.41359 3.35114 3.23456 3.64821 3.12452C3.98439 3 4.37242 3 5.14848 3H10.8518C11.6279 3 12.016 3 12.3522 3.12454C12.6493 3.23459 12.916 3.41364 13.1303 3.64695C13.3729 3.91097 13.5198 4.27014 13.8136 4.98849L15.0118 7.91766C15.1008 8.1352 15.1453 8.24397 15.1766 8.35631C15.2044 8.4561 15.2244 8.5579 15.2364 8.66079C15.25 8.77662 15.25 8.89414 15.25 9.12917V10" stroke="white" stroke-width="1.5" stroke-linecap="round" stroke-linejoin="round"/>
</svg>
