<svg width="16" height="16" viewBox="0 0 16 16" fill="none" xmlns="http://www.w3.org/2000/svg">
<g clip-path="url(#clip0_151_4016)">
<path d="M0.75 12.8333V8C0.75 6.07718 1.51384 4.23311 2.87348 2.87348C4.23311 1.51384 6.07718 0.75 8 0.75C9.92282 0.75 11.7669 1.51384 13.1265 2.87348C14.4862 4.23311 15.25 6.07718 15.25 8V12.8333M15.25 13.6389C15.25 14.0662 15.0803 14.476 14.7781 14.7781C14.476 15.0803 14.0662 15.25 13.6389 15.25H12.8333C12.406 15.25 11.9962 15.0803 11.6941 14.7781C11.392 14.476 11.2222 14.0662 11.2222 13.6389V11.2222C11.2222 10.7949 11.392 10.3851 11.6941 10.083C11.9962 9.78085 12.406 9.61111 12.8333 9.61111M15.25 13.6389V11.1215M15.25 13.6389V9.61112L12.8333 9.61111M12.8333 9.61111H13.7396M0.75 13.6389C0.75 14.0662 0.919742 14.476 1.22188 14.7781C1.52403 15.0803 1.93382 15.25 2.36111 15.25H3.16667C3.59396 15.25 4.00375 15.0803 4.30589 14.7781C4.60804 14.476 4.77778 14.0662 4.77778 13.6389V11.2222C4.77778 10.7949 4.60804 10.3851 4.30589 10.083C4.00375 9.78085 3.59396 9.61111 3.16667 9.61111M0.75 13.6389V11.1215M0.75 13.6389V9.61112L3.16667 9.61111M3.16667 9.61111H2.26042" stroke="white" stroke-width="1.5" stroke-linecap="round" stroke-linejoin="round"/>
</g>
<defs>
<clipPath id="clip0_151_4016">
<rect width="16" height="16" fill="white"/>
</clipPath>
</defs>
</svg>
