<svg width="16" height="16" viewBox="0 0 16 16" fill="none" xmlns="http://www.w3.org/2000/svg">
<path d="M14.1319 2.7946C13.7776 2.44013 13.3569 2.15895 12.8939 1.9671C12.4309 1.77526 11.9347 1.67651 11.4335 1.67651C10.9323 1.67651 10.4361 1.77526 9.97308 1.9671C9.51008 2.15895 9.08941 2.44013 8.73511 2.7946L7.99981 3.5299L7.26452 2.7946C6.54886 2.07894 5.57821 1.67688 4.56612 1.67688C3.55402 1.67688 2.58338 2.07894 1.86771 2.7946C1.15205 3.51026 0.75 4.4809 0.75 5.493C0.75 6.5051 1.15205 7.47574 1.86771 8.1914L2.60301 8.9267L7.99981 14.3235L13.3966 8.9267L14.1319 8.1914C14.4864 7.8371 14.7676 7.41644 14.9594 6.95344C15.1513 6.49044 15.25 5.99417 15.25 5.493C15.25 4.99183 15.1513 4.49557 14.9594 4.03257C14.7676 3.56956 14.4864 3.1489 14.1319 2.7946Z" stroke="white" stroke-width="1.5" stroke-linecap="round" stroke-linejoin="round"/>
</svg>
