<svg width="16" height="16" viewBox="0 0 16 16" fill="none" xmlns="http://www.w3.org/2000/svg">
<rect x="0.75" y="2.75" width="14.5" height="10.5" rx="2.25" stroke="white" stroke-width="1.5"/>
<path d="M3.25 8.5H7.25" stroke="white" stroke-width="1.5" stroke-linecap="round"/>
<path d="M3.25 10.75H12.75" stroke="white" stroke-width="1.5" stroke-linecap="round"/>
<path d="M10.6 5.5H11.9C12.1924 5.5 12.3666 5.50058 12.4957 5.51113C12.5745 5.51757 12.6077 5.52607 12.6165 5.52882C12.6612 5.55234 12.6977 5.58882 12.7212 5.63346C12.7239 5.64234 12.7324 5.67547 12.7389 5.75428C12.7494 5.8834 12.75 6.0576 12.75 6.35V7.65C12.75 7.9424 12.7494 8.1166 12.7389 8.24572C12.7324 8.32453 12.7239 8.35766 12.7212 8.36654C12.6977 8.41118 12.6612 8.44766 12.6165 8.47118C12.6077 8.47393 12.5745 8.48243 12.4957 8.48887C12.3666 8.49942 12.1924 8.5 11.9 8.5H10.6C10.3076 8.5 10.1334 8.49942 10.0043 8.48887C9.92547 8.48243 9.89234 8.47393 9.88346 8.47118C9.83882 8.44766 9.80234 8.41118 9.77882 8.36654C9.77607 8.35766 9.76757 8.32453 9.76113 8.24572C9.75058 8.1166 9.75 7.9424 9.75 7.65V6.35C9.75 6.0576 9.75058 5.8834 9.76113 5.75428C9.76757 5.67547 9.77607 5.64234 9.77882 5.63346C9.80234 5.58882 9.83882 5.55234 9.88346 5.52882C9.89234 5.52607 9.92547 5.51757 10.0043 5.51113C10.1334 5.50058 10.3076 5.5 10.6 5.5ZM12.6191 5.52973C12.6191 5.52974 12.6186 5.52956 12.6176 5.52917L12.6191 5.52973ZM12.7203 5.63087C12.7203 5.63085 12.7205 5.63132 12.7208 5.63239L12.7203 5.63087ZM12.7203 8.36913C12.7203 8.3691 12.7204 8.36856 12.7208 8.36761L12.7203 8.36913ZM12.6191 8.47027C12.6192 8.47028 12.6187 8.47048 12.6176 8.47083L12.6191 8.47027ZM9.88087 8.47027C9.8809 8.47026 9.88144 8.47044 9.88239 8.47083L9.88087 8.47027ZM9.77917 8.36761C9.77956 8.36856 9.77974 8.3691 9.77973 8.36913L9.77917 8.36761ZM9.77917 5.63239C9.77952 5.63132 9.77972 5.63085 9.77973 5.63087L9.77917 5.63239ZM9.88239 5.52917C9.88144 5.52956 9.8809 5.52974 9.88087 5.52973L9.88239 5.52917Z" stroke="white" stroke-width="1.5"/>
</svg>
