<svg width="16" height="16" viewBox="0 0 16 16" fill="none" xmlns="http://www.w3.org/2000/svg">
<g clip-path="url(#clip0_151_3793)">
<path d="M15.25 7.96097H13.5822M13.5822 7.96097V10M13.5822 7.96097H10.6635M7.23618 7.96097C7.23905 8.38868 7.15728 8.81273 6.99558 9.20872C6.83389 9.6047 6.59546 9.96478 6.29403 10.2682C5.9926 10.5717 5.63412 10.8125 5.23923 10.9769C4.84435 11.1412 4.42085 11.2258 3.99313 11.2258C3.56541 11.2258 3.14191 11.1412 2.74702 10.9769C2.35213 10.8125 1.99365 10.5717 1.69222 10.2682C1.39079 9.96478 1.15236 9.6047 0.99067 9.20872C0.828975 8.81273 0.747207 8.38868 0.750073 7.96097C0.764851 7.11073 1.11298 6.3003 1.71949 5.70425C2.32599 5.1082 3.14234 4.7742 3.99271 4.7742C4.84308 4.7742 5.65943 5.1082 6.26593 5.70425C6.87244 6.3003 7.2214 7.11073 7.23618 7.96097ZM7.23618 7.96097H10.6635M10.6635 7.96097V10" stroke="white" stroke-width="1.5" stroke-linecap="round" stroke-linejoin="round"/>
</g>
<defs>
<clipPath id="clip0_151_3793">
<rect width="16" height="16" rx="3" fill="white"/>
</clipPath>
</defs>
</svg>
