<svg width="16" height="16" viewBox="0 0 16 16" fill="none" xmlns="http://www.w3.org/2000/svg">
<path d="M5.31838 12.3796V12.3796C5.31838 12.1124 5.31838 11.9788 5.29458 11.8717C5.25654 11.7004 5.20989 11.6028 5.10061 11.4656C5.03224 11.3797 4.89854 11.2717 4.63114 11.0556C3.29074 9.97247 2.28125 8.27128 2.28125 6.47929C2.28125 2.89127 5.57933 0.0788465 9.30506 0.89068C10.9432 1.25311 12.3784 2.34038 13.125 3.84083C14.4864 6.57653 13.3367 9.46442 11.3907 11.0475C11.1224 11.2658 10.9883 11.3749 10.9205 11.4604C10.8113 11.5982 10.7655 11.6944 10.7276 11.866C10.704 11.9726 10.704 12.1059 10.704 12.3723V12.3723C10.704 12.5825 10.7838 13.0682 10.0082 13.0682H6.01424C5.2169 13.0754 5.31838 12.7638 5.31838 12.3796Z" stroke="white" stroke-width="1.5" stroke-linecap="round" stroke-linejoin="round"/>
<path d="M5.46338 15.25H10.5373" stroke="white" stroke-width="1.5" stroke-linecap="round" stroke-linejoin="round"/>
</svg>
