<svg width="16" height="16" viewBox="0 0 16 16" fill="none" xmlns="http://www.w3.org/2000/svg">
<g clip-path="url(#clip0_151_3856)">
<path d="M10.1183 1.6186V6.26315C10.1183 6.51832 10.1183 6.64591 10.1637 6.74512C10.2137 6.85402 10.301 6.94138 10.4099 6.9913C10.5091 7.03677 10.6367 7.03677 10.8919 7.03677C11.932 7.03677 12.4521 7.03677 12.7156 7.22942C13.0033 7.43962 13.1573 7.78694 13.1201 8.14122C13.086 8.46592 12.737 8.85144 12.0389 9.62249L7.25199 14.9096C6.76865 15.4435 5.88155 15.1016 5.88155 14.3814V9.73686C5.88155 9.48168 5.88155 9.3541 5.83607 9.25489C5.78615 9.14599 5.69879 9.05863 5.5899 9.00871C5.49068 8.96323 5.3631 8.96323 5.10792 8.96323C4.0678 8.96323 3.54775 8.96323 3.28416 8.77059C2.99656 8.56039 2.84249 8.21307 2.87969 7.85878C2.9138 7.53409 3.26284 7.14857 3.96093 6.37752L3.96093 6.37752L8.74782 1.09038C9.23115 0.556533 10.1183 0.898456 10.1183 1.6186Z" stroke="white" stroke-width="1.5" stroke-miterlimit="10" stroke-linecap="round" stroke-linejoin="round"/>
</g>
<defs>
<clipPath id="clip0_151_3856">
<rect width="16" height="16" fill="white"/>
</clipPath>
</defs>
</svg>
