<svg width="16" height="16" viewBox="0 0 16 16" fill="none" xmlns="http://www.w3.org/2000/svg">
<path d="M1.15914 14C1.15914 9.30666 -1.76072 1.75618 8 2.00605C17.7607 2.25592 14.8409 8.20234 14.8409 14" stroke="white" stroke-width="1.5" stroke-linecap="round" stroke-linejoin="round"/>
<path d="M4.65332 6.90909L4.65332 8.54545" stroke="white" stroke-width="1.5" stroke-linecap="round" stroke-linejoin="round"/>
<path d="M11.3455 6.90909L11.3455 8.54545" stroke="white" stroke-width="1.5" stroke-linecap="round" stroke-linejoin="round"/>
<path d="M5.76953 10.8196L7.49778 10.3255C7.68479 10.272 7.77829 10.2453 7.8734 10.2347C7.95783 10.2252 8.04305 10.2252 8.12747 10.2347C8.22258 10.2453 8.31608 10.272 8.50308 10.3255L10.2311 10.8196" stroke="white" stroke-width="1.14286" stroke-linecap="round" stroke-linejoin="round"/>
<path d="M5.76953 10.8195L6.87232 11.6839C7.27556 12 7.47718 12.158 7.70008 12.2187C7.89673 12.2723 8.10413 12.2723 8.30078 12.2187C8.52367 12.158 8.72528 12 9.1285 11.6839L10.2311 10.8195" stroke="white" stroke-width="1.14286" stroke-linecap="round" stroke-linejoin="round"/>
<path d="M7.55866 10.3081L7.3444 10.3693C6.68842 10.5569 6.52172 11.4091 7.0587 11.83C7.59164 12.2477 8.40921 12.2477 8.94213 11.83L10.2311 10.8196L8.44221 10.3081C8.15548 10.2261 7.84539 10.2261 7.55866 10.3081Z" fill="white" stroke="white" stroke-width="1.14286" stroke-linecap="round" stroke-linejoin="round"/>
</svg>
