<svg width="16" height="16" viewBox="0 0 16 16" fill="none" xmlns="http://www.w3.org/2000/svg">
<path d="M0.75 5.68637V10.3036C0.75 11.5354 0.75 12.1513 1.00942 12.533C1.23613 12.8665 1.58761 13.0947 1.98455 13.1661C2.43877 13.2478 3.00136 12.9972 4.12655 12.496L4.6148 12.2785C4.97153 12.1196 5.1499 12.0401 5.33538 12.0084C5.49977 11.9803 5.66771 11.9798 5.83227 12.0069C6.01794 12.0375 6.19679 12.1158 6.55448 12.2726L9.46157 13.5462C9.81354 13.7005 9.98953 13.7776 10.1723 13.8084C10.3344 13.8357 10.4998 13.8362 10.662 13.8099C10.8449 13.7802 11.0214 13.7042 11.3743 13.5521L13.7996 12.5072C14.3242 12.2812 14.5865 12.1682 14.779 11.9867C14.9492 11.8263 15.0795 11.6283 15.1595 11.4085C15.25 11.1599 15.25 10.8743 15.25 10.3031V5.67177C15.25 4.44716 15.25 3.83486 14.9921 3.45394C14.7667 3.12102 14.4171 2.89252 14.0218 2.81968C13.5694 2.73634 13.0085 2.98206 11.8869 3.4735L11.3798 3.69567C11.025 3.85113 10.8475 3.92886 10.6633 3.95958C10.5 3.9868 10.3333 3.9868 10.17 3.95958C9.98579 3.92886 9.80837 3.85113 9.45353 3.69567L6.54647 2.42198C6.19163 2.26652 6.01421 2.18878 5.82997 2.15807C5.66667 2.13085 5.49999 2.13085 5.33669 2.15807C5.15245 2.18878 4.97504 2.26652 4.6202 2.42198L2.18687 3.48811C1.66695 3.7159 1.40699 3.8298 1.21629 4.01116C1.04774 4.17146 0.91877 4.36876 0.839586 4.58748C0.75 4.83493 0.75 5.11875 0.75 5.68637Z" stroke="white" stroke-width="1.5" stroke-linecap="round" stroke-linejoin="round"/>
<path d="M5.5835 2.5V11.8471M10.4168 13.5V4.11765" stroke="white" stroke-width="1.5" stroke-linecap="round" stroke-linejoin="round"/>
</svg>
