<svg width="16" height="16" viewBox="0 0 16 16" fill="none" xmlns="http://www.w3.org/2000/svg">
<path d="M1.50049 7.43449V10.6897C1.50049 13.945 2.80549 15.25 6.06075 15.25H9.9685C13.2238 15.25 14.5288 13.945 14.5288 10.6897V7.43449" stroke="white" stroke-width="1.5" stroke-linecap="round" stroke-linejoin="round"/>
<path d="M8.01822 8.00001C9.34497 8.00001 10.3237 6.91976 10.1932 5.59301L9.71472 0.75H6.32897L5.84322 5.59301C5.71272 6.91976 6.69147 8.00001 8.01822 8.00001Z" stroke="white" stroke-width="1.5" stroke-linecap="round" stroke-linejoin="round"/>
<path d="M12.593 8.00001C14.0575 8.00001 15.1305 6.81101 14.9855 5.35376L14.7825 3.36C14.5215 1.475 13.7965 0.75 11.897 0.75H9.68579L10.1933 5.83226C10.3165 7.02851 11.3968 8.00001 12.593 8.00001Z" stroke="white" stroke-width="1.5" stroke-linecap="round" stroke-linejoin="round"/>
<path d="M3.40709 8.00001C4.60335 8.00001 5.6836 7.02851 5.7996 5.83226L5.9591 4.23001L6.3071 0.75H4.09585C2.19634 0.75 1.47134 1.475 1.21034 3.36L1.01459 5.35376C0.869591 6.81101 1.94259 8.00001 3.40709 8.00001Z" stroke="white" stroke-width="1.5" stroke-linecap="round" stroke-linejoin="round"/>
</svg>
