<svg width="16" height="16" viewBox="0 0 16 16" fill="none" xmlns="http://www.w3.org/2000/svg">
<path d="M5.79448 10.8459C5.79448 12.737 8.31441 13.9978 9.57515 13.9978M11.4678 4.54225C11.888 4.54225 12.9807 4.54225 13.9893 4.54225C15.25 4.54225 15.25 5.17262 15.25 7.06372C15.25 8.57661 12.7285 8.95483 11.4678 8.95483M13.3589 2.02078L11 2.00224C6.5 2 5.79448 6.73926 5.79448 8C4.53221 8 3.27147 7.06372 3.27147 5.80299C2.28678 5.80299 1.7347 5.80299 0.75 5.80299C0.75 7.06372 1.25429 10.8459 5.79294 10.8459" stroke="white" stroke-width="1.5" stroke-linecap="round" stroke-linejoin="round"/>
<circle cx="9.25" cy="6.52078" r="1" fill="white"/>
</svg>
