<svg width="16" height="16" viewBox="0 0 16 16" fill="none" xmlns="http://www.w3.org/2000/svg">
<path d="M8 0.75V15.25" stroke="white" stroke-width="1.5" stroke-linecap="round" stroke-linejoin="round"/>
<path d="M3.5 11.2772V11.9117V11.9117C3.5 12.927 4.32302 13.75 5.33827 13.75H9.99964C10.4567 13.75 10.6853 13.75 10.8752 13.7129C11.677 13.5562 12.3028 12.9278 12.4562 12.1254C12.4925 11.9353 12.4916 11.7067 12.4897 11.2497V11.2497C12.4882 10.8979 12.4875 10.722 12.4619 10.5655C12.3547 9.91112 11.9302 9.3524 11.3284 9.07381C11.1845 9.00721 11.0153 8.95938 10.6767 8.86372L5.40079 7.37295C4.97709 7.25323 4.76524 7.19337 4.58862 7.10296C4.04541 6.82487 3.65888 6.31399 3.53898 5.71563C3.5 5.52109 3.5 5.30095 3.5 4.86066V4.86066C3.5 4.29291 3.5 4.00904 3.55723 3.77497C3.73443 3.05027 4.30027 2.48443 5.02497 2.30723C5.25904 2.25 5.54291 2.25 6.11066 2.25H10.4321C10.4766 2.25 10.4988 2.25 10.5177 2.25035C11.5928 2.27059 12.4594 3.13727 12.4797 4.21235C12.48 4.23118 12.48 4.25343 12.48 4.29793V4.29793V4.93242" stroke="white" stroke-width="1.5" stroke-linecap="round" stroke-linejoin="round"/>
</svg>
