<svg width="16" height="16" viewBox="0 0 16 16" fill="none" xmlns="http://www.w3.org/2000/svg">
<path d="M6.4 0.75H9.6C10.7325 0.75 11.5367 0.750583 12.1661 0.802006C12.7867 0.852713 13.171 0.949092 13.4755 1.10423C14.087 1.41582 14.5842 1.913 14.8958 2.52453C15.0509 2.829 15.1473 3.21325 15.198 3.83388C15.2494 4.46326 15.25 5.26752 15.25 6.4V9.6C15.25 10.7325 15.2494 11.5367 15.198 12.1661C15.1473 12.7867 15.0509 13.171 14.8958 13.4755C14.5842 14.087 14.087 14.5842 13.4755 14.8958C13.171 15.0509 12.7867 15.1473 12.1661 15.198C11.5367 15.2494 10.7325 15.25 9.6 15.25H6.4C5.26752 15.25 4.46326 15.2494 3.83388 15.198C3.21325 15.1473 2.829 15.0509 2.52453 14.8958C1.913 14.5842 1.41582 14.087 1.10423 13.4755C0.949092 13.171 0.852713 12.7867 0.802006 12.1661C0.750583 11.5367 0.75 10.7325 0.75 9.6V6.4C0.75 5.26752 0.750583 4.46326 0.802006 3.83388C0.852713 3.21325 0.949092 2.829 1.10423 2.52453C1.41582 1.913 1.913 1.41582 2.52453 1.10423C2.829 0.949092 3.21325 0.852713 3.83388 0.802006C4.46326 0.750583 5.26752 0.75 6.4 0.75Z" stroke="white" stroke-width="1.5" stroke-linecap="round" stroke-linejoin="round"/>
<path d="M0.75 7.75749L5.09783 7.74299C5.6413 7.74299 6.25 8.15624 6.4529 8.66374L7.27899 10.7517C7.46739 11.223 7.76449 11.223 7.9529 10.7517L9.61232 6.53949C9.77174 6.13349 10.0688 6.11899 10.2717 6.50324L11.0254 7.93149C11.25 8.35924 11.8297 8.70724 12.308 8.70724H15.25" stroke="white" stroke-width="1.5" stroke-linecap="round" stroke-linejoin="round"/>
</svg>
