<svg width="16" height="16" viewBox="0 0 16 16" fill="none" xmlns="http://www.w3.org/2000/svg">
<g clip-path="url(#clip0_151_3965)">
<path d="M15.2627 8.64043C15.1357 10.0146 14.62 11.3241 13.7759 12.4158C12.9318 13.5076 11.7943 14.3363 10.4963 14.8052C9.19843 15.274 7.79384 15.3635 6.44693 15.0631C5.10001 14.7628 3.86649 14.0851 2.89069 13.1093C1.91489 12.1335 1.23717 10.9 0.936842 9.55304C0.636512 8.20613 0.72599 6.80154 1.19481 5.50362C1.66362 4.20571 2.49239 3.06815 3.58412 2.22406C4.67586 1.37997 5.98541 0.864262 7.35954 0.737274C6.55503 1.82569 6.16789 3.16671 6.26854 4.51643C6.3692 5.86615 6.95095 7.13492 7.908 8.09197C8.86505 9.04902 10.1338 9.63077 11.4835 9.73143C12.8333 9.83208 14.1743 9.44494 15.2627 8.64043Z" stroke="white" stroke-width="1.5" stroke-linecap="round" stroke-linejoin="round"/>
</g>
<defs>
<clipPath id="clip0_151_3965">
<rect width="16" height="16" fill="white"/>
</clipPath>
</defs>
</svg>
