<svg width="16" height="16" viewBox="0 0 16 16" fill="none" xmlns="http://www.w3.org/2000/svg">
<g clip-path="url(#clip0_151_3945)">
<path d="M13.4214 15.25H2.57857C1.93851 15.25 1.61848 15.25 1.37401 15.1254C1.15897 15.0159 0.984134 14.841 0.874564 14.626C0.75 14.3815 0.75 14.0615 0.75 13.4214V1.78847C0.75 0.865939 1.88175 0.422495 2.50847 1.09946L3.96832 2.67636L3.96832 2.67636C4.37809 3.11898 4.58298 3.34029 4.76011 3.43211C4.97449 3.54324 5.02483 3.55598 5.26627 3.56016C5.46576 3.56362 5.90672 3.4134 6.78864 3.11295C7.15151 2.98933 7.56109 2.90386 8 2.90386C8.43891 2.90386 8.84849 2.98933 9.21136 3.11295C10.0933 3.4134 10.5342 3.56362 10.7337 3.56016C10.9752 3.55598 11.0255 3.54324 11.2399 3.43211C11.417 3.34029 11.6219 3.11898 12.0317 2.67635L13.4915 1.09946C14.1183 0.422495 15.25 0.865939 15.25 1.78847V13.4214C15.25 14.0615 15.25 14.3815 15.1254 14.626C15.0159 14.841 14.841 15.0159 14.626 15.1254C14.3815 15.25 14.0615 15.25 13.4214 15.25Z" stroke="white" stroke-width="1.5" stroke-linecap="round"/>
<circle cx="5.35714" cy="7.71429" r="0.571429" fill="white" stroke="white" stroke-width="0.571429"/>
<circle cx="10.6428" cy="7.71429" r="0.571429" fill="white" stroke="white" stroke-width="0.571429"/>
<path d="M5.71362 10.8571C5.71362 11.2381 5.94219 12 6.85648 12C7.77077 12 7.99934 11.2381 7.99934 10.8571" stroke="white" stroke-width="1.5" stroke-linecap="round"/>
<path d="M7.99976 10.8571C7.99976 11.2381 8.22833 12 9.14261 12C10.0569 12 10.2855 11.2381 10.2855 10.8571" stroke="white" stroke-width="1.5" stroke-linecap="round"/>
</g>
<defs>
<clipPath id="clip0_151_3945">
<rect width="16" height="16" fill="white"/>
</clipPath>
</defs>
</svg>
