<svg width="16" height="16" viewBox="0 0 16 16" fill="none" xmlns="http://www.w3.org/2000/svg">
<path d="M4.75 8H0.75" stroke="white" stroke-width="1.5" stroke-linecap="round" stroke-linejoin="round"/>
<path d="M15.25 8.55V7.45C15.25 6.3299 15.25 5.76984 15.032 5.34202C14.8403 4.96569 14.5343 4.65973 14.158 4.46799C13.7302 4.25 13.1701 4.25 12.05 4.25H10.95C9.8299 4.25 9.26984 4.25 8.84202 4.46799C8.46569 4.65973 8.15973 4.96569 7.96799 5.34202C7.75 5.76984 7.75 6.32989 7.75 7.45V8.55C7.75 9.6701 7.75 10.2302 7.96799 10.658C8.15973 11.0343 8.46569 11.3403 8.84202 11.532C9.26984 11.75 9.82989 11.75 10.95 11.75H12.05C13.1701 11.75 13.7302 11.75 14.158 11.532C14.5343 11.3403 14.8403 11.0343 15.032 10.658C15.25 10.2302 15.25 9.6701 15.25 8.55Z" stroke="white" stroke-width="1.5" stroke-linecap="round"/>
<path d="M14.0713 10.5714L8.92847 5.42856" stroke="white" stroke-width="1.5" stroke-linecap="round"/>
</svg>
