<svg width="16" height="16" viewBox="0 0 16 16" fill="none" xmlns="http://www.w3.org/2000/svg">
<g clip-path="url(#clip0_151_3882)">
<path d="M6 4.25V13.75C6 14 5.99909 14.0707 5.99398 14.1225C5.93553 14.716 5.46599 15.1855 4.87252 15.244C4.82065 15.2491 4.75002 15.25 4.5 15.25C4.01782 15.25 3.83109 15.2491 3.68144 15.2344C2.13842 15.0824 0.917624 13.8616 0.76565 12.3186C0.75091 12.1689 0.75 11.9822 0.75 11.5V6.5C0.75 6.01782 0.75091 5.83109 0.76565 5.68144C0.917624 4.13842 2.13842 2.91762 3.68144 2.76565C3.83109 2.75091 4.01782 2.75 4.5 2.75C4.75002 2.75 4.82065 2.75091 4.87252 2.75602C5.46599 2.81447 5.93553 3.28401 5.99398 3.87748C5.99909 3.92935 6 3.99998 6 4.25Z" stroke="white" stroke-width="1.5"/>
<path d="M15.25 4.5V9.5C15.25 9.98218 15.2491 10.1689 15.2344 10.3186C15.0824 11.8616 13.8616 13.0824 12.3186 13.2344C12.1689 13.2491 11.9822 13.25 11.5 13.25C11.25 13.25 11.1793 13.2491 11.1275 13.244C10.534 13.1855 10.0645 12.716 10.006 12.1225C10.0009 12.0707 10 12 10 11.75V2.25C10 1.99998 10.0009 1.92935 10.006 1.87748C10.0645 1.28401 10.534 0.814471 11.1275 0.756019C11.1793 0.75091 11.25 0.75 11.5 0.75C11.9822 0.75 12.1689 0.75091 12.3186 0.76565C13.8616 0.917624 15.0824 2.13842 15.2344 3.68144C15.2491 3.83109 15.25 4.01782 15.25 4.5Z" stroke="white" stroke-width="1.5"/>
</g>
<defs>
<clipPath id="clip0_151_3882">
<rect width="16" height="16" fill="white"/>
</clipPath>
</defs>
</svg>
