<svg width="16" height="16" viewBox="0 0 16 16" fill="none" xmlns="http://www.w3.org/2000/svg">
<path d="M11.0357 0.75H6.95C5.82989 0.75 5.26984 0.75 4.84202 0.967987C4.46569 1.15973 4.15973 1.46569 3.96799 1.84202C3.75 2.26984 3.75 2.82989 3.75 3.95V8M3.75 8V12.05C3.75 13.1701 3.75 13.7302 3.96799 14.158C4.15973 14.5343 4.46569 14.8403 4.84202 15.032C5.26984 15.25 5.8299 15.25 6.95 15.25H9.05C10.1701 15.25 10.7302 15.25 11.158 15.032C11.5343 14.8403 11.8403 14.5343 12.032 14.158C12.25 13.7302 12.25 13.1701 12.25 12.05V11.2C12.25 10.0799 12.25 9.51984 12.032 9.09202C11.8403 8.71569 11.5343 8.40973 11.158 8.21799C10.7302 8 10.1701 8 9.05 8H3.75Z" stroke="white" stroke-width="1.5" stroke-linecap="round"/>
</svg>
