<svg width="16" height="16" viewBox="0 0 16 16" fill="none" xmlns="http://www.w3.org/2000/svg">
<g clip-path="url(#clip0_151_3835)">
<path d="M0.75 6.25V4.10019C0.75 2.22666 0.75 1.28989 1.01979 1.02281C1.2703 0.774821 1.64149 0.693808 1.97254 0.814871C2.32907 0.945254 2.71938 1.79684 3.5 3.5V3.5V3.5C4.28062 5.20316 4.67093 6.05475 5.02746 6.18513C5.35851 6.30619 5.7297 6.22518 5.98021 5.97719C6.25 5.71011 6.25 4.77334 6.25 2.89981V0.75" stroke="white" stroke-width="1.5" stroke-linecap="round"/>
<path d="M9.75 0.750001V3.5C9.75 4.19778 9.75 4.54667 9.83612 4.83057C10.03 5.46977 10.5302 5.96998 11.1694 6.16388C11.4533 6.25 11.8022 6.25 12.5 6.25V6.25C13.1978 6.25 13.5467 6.25 13.8306 6.16388C14.4698 5.96998 14.97 5.46977 15.1639 4.83057C15.25 4.54667 15.25 4.19778 15.25 3.5V0.75" stroke="white" stroke-width="1.5" stroke-linecap="round"/>
<path d="M0.75 14.15V10.85C0.75 10.2425 1.24249 9.75 1.85 9.75H3.5C5.01878 9.75 6.25 10.9812 6.25 12.5C6.25 14.0188 5.01878 15.25 3.5 15.25H1.85C1.24249 15.25 0.75 14.7575 0.75 14.15Z" stroke="white" stroke-width="1.5" stroke-linecap="round"/>
<path d="M9.75 9.75V13.25C9.75 14.1928 9.75 14.6642 10.0429 14.9571C10.3358 15.25 10.8072 15.25 11.75 15.25H15.25" stroke="white" stroke-width="1.5" stroke-linecap="round"/>
</g>
<defs>
<clipPath id="clip0_151_3835">
<rect width="16" height="16" fill="white"/>
</clipPath>
</defs>
</svg>
