<svg width="16" height="16" viewBox="0 0 16 16" fill="none" xmlns="http://www.w3.org/2000/svg">
<g clip-path="url(#clip0_151_3834)">
<path d="M6.75 0.75H3.95C2.82989 0.75 2.26984 0.75 1.84202 0.967987C1.46569 1.15973 1.15973 1.46569 0.967987 1.84202C0.75 2.26984 0.75 2.82989 0.75 3.95V8M0.75 8V12.05C0.75 13.1701 0.75 13.7302 0.967987 14.158C1.15973 14.5343 1.46569 14.8403 1.84202 15.032C2.26984 15.25 2.82989 15.25 3.95 15.25H4.55C5.6701 15.25 6.23016 15.25 6.65798 15.032C7.03431 14.8403 7.34027 14.5343 7.53201 14.158C7.75 13.7302 7.75 13.1701 7.75 12.05V11.2C7.75 10.0799 7.75 9.51984 7.53201 9.09202C7.34027 8.71569 7.03431 8.40973 6.65798 8.21799C6.23016 8 5.67011 8 4.55 8H0.75Z" stroke="white" stroke-width="1.5" stroke-linecap="round"/>
<circle cx="11.5" cy="15" r="0.5" fill="white" stroke="white"/>
<path d="M11.25 0.75H12.05C13.1701 0.75 13.7302 0.75 14.158 0.967987C14.5343 1.15973 14.8403 1.46569 15.032 1.84202C15.25 2.26984 15.25 2.82989 15.25 3.95V15.25" stroke="white" stroke-width="1.5" stroke-linecap="round"/>
</g>
<defs>
<clipPath id="clip0_151_3834">
<rect width="16" height="16" fill="white"/>
</clipPath>
</defs>
</svg>
