<svg width="16" height="16" viewBox="0 0 16 16" fill="none" xmlns="http://www.w3.org/2000/svg">
<g clip-path="url(#clip0_151_5097)">
<path d="M4.17329 13.8344C3.52369 13.8344 2.94502 13.6925 2.43729 13.4088C1.93702 13.1176 1.56742 12.6957 1.32849 12.1432L2.80689 11.6056C2.91142 11.9715 3.07942 12.2253 3.31089 12.3672C3.54982 12.5016 3.80742 12.5688 4.08369 12.5688C4.47942 12.5688 4.80422 12.4531 5.05809 12.2216C5.31195 11.9901 5.43889 11.6579 5.43889 11.2248C5.43889 10.7619 5.30449 10.4221 5.03569 10.2056C4.77435 9.98906 4.46822 9.8808 4.11729 9.8808C3.56475 9.8808 3.15409 10.1235 2.88529 10.6088L1.37329 10.0488L1.84369 6.2184H6.85009V7.6072H3.25489L3.08689 9.0072C3.25862 8.88026 3.48262 8.7832 3.75889 8.716C4.04262 8.6488 4.31515 8.6152 4.57649 8.6152C5.02449 8.6152 5.44635 8.71226 5.84209 8.9064C6.24529 9.10053 6.57009 9.39173 6.81649 9.78C7.07035 10.1608 7.19729 10.6424 7.19729 11.2248C7.19729 11.7923 7.05542 12.2701 6.77169 12.6584C6.49542 13.0467 6.12582 13.3416 5.66289 13.5432C5.20742 13.7373 4.71089 13.8344 4.17329 13.8344ZM9.0935 13.8344C8.79483 13.8344 8.53723 13.7261 8.3207 13.5096C8.10417 13.2931 7.9959 13.0355 7.9959 12.7368C7.9959 12.4307 8.10417 12.1731 8.3207 11.964C8.53723 11.7549 8.79483 11.6504 9.0935 11.6504C9.39217 11.6504 9.64603 11.7549 9.8551 11.964C10.0716 12.1731 10.1799 12.4307 10.1799 12.7368C10.1799 13.0355 10.0716 13.2931 9.8551 13.5096C9.64603 13.7261 9.39217 13.8344 9.0935 13.8344Z" fill="white"/>
<path d="M12.1387 13.98V5.95184H9.41486V3.74767C10.048 3.74767 10.5737 3.71781 10.9918 3.65808C11.41 3.5864 11.7564 3.43109 12.0312 3.19215C12.3179 2.94128 12.5688 2.54704 12.7838 2.00943H14.8446V13.98H12.1387Z" fill="white"/>
<path d="M1.18586 4.7V2.8296H1.74866L2.47106 4.1624V2.8296H2.89946V4.7H2.33386L1.61146 3.3672V4.7H1.18586ZM3.9528 4.7336C3.65974 4.7336 3.4516 4.6636 3.3284 4.5236C3.20707 4.3836 3.1464 4.16986 3.1464 3.8824V2.8296H3.5888V3.9188C3.5888 4.01026 3.5972 4.09053 3.614 4.1596C3.63267 4.2268 3.66814 4.27906 3.7204 4.3164C3.77267 4.35373 3.85014 4.3724 3.9528 4.3724C4.05547 4.3724 4.132 4.35373 4.1824 4.3164C4.23467 4.27906 4.2692 4.2268 4.286 4.1596C4.30467 4.09053 4.314 4.01026 4.314 3.9188V2.8296H4.7564V3.8824C4.7564 4.16986 4.6948 4.3836 4.5716 4.5236C4.4484 4.6636 4.24214 4.7336 3.9528 4.7336ZM5.00304 4.7V2.8296H5.61904C5.77211 2.8296 5.91398 2.84546 6.04464 2.8772C6.17718 2.90706 6.29198 2.9584 6.38904 3.0312C6.48798 3.10213 6.56451 3.19826 6.61864 3.3196C6.67464 3.43906 6.70264 3.58746 6.70264 3.7648C6.70264 3.944 6.67464 4.09333 6.61864 4.2128C6.56451 4.33226 6.48798 4.4284 6.38904 4.5012C6.29198 4.57213 6.17718 4.62346 6.04464 4.6552C5.91398 4.68506 5.77211 4.7 5.61904 4.7H5.00304ZM5.44544 4.3276H5.62744C5.70771 4.3276 5.78424 4.32106 5.85704 4.308C5.93171 4.29493 5.99798 4.26973 6.05584 4.2324C6.11558 4.1932 6.16224 4.13626 6.19584 4.0616C6.22944 3.98693 6.24624 3.888 6.24624 3.7648C6.24624 3.6416 6.22944 3.54266 6.19584 3.468C6.16224 3.39146 6.11558 3.33453 6.05584 3.2972C5.99798 3.258 5.93171 3.23186 5.85704 3.2188C5.78424 3.20386 5.70771 3.1964 5.62744 3.1964H5.44544V4.3276ZM6.92258 4.7V2.8296H7.36498V4.3108H8.26098V4.7H6.92258Z" fill="white"/>
</g>
<defs>
<clipPath id="clip0_151_5097">
<rect width="14" height="12.6" fill="white" transform="translate(1 1.7)"/>
</clipPath>
</defs>
</svg>
