<svg width="16" height="16" viewBox="0 0 16 16" fill="none" xmlns="http://www.w3.org/2000/svg">
<g clip-path="url(#clip0_151_3901)">
<path d="M10.0407 1.65868L12.4407 3.05868C13.352 3.59024 13.659 3.77931 13.8768 4.02282C14.0862 4.25679 14.2442 4.53198 14.3409 4.8307C14.4414 5.1416 14.45 5.50203 14.45 6.55698V9.44303C14.45 10.498 14.4414 10.8584 14.3409 11.1693C14.2442 11.468 14.0862 11.7432 13.8768 11.9772C13.659 12.2207 13.352 12.4098 12.4407 12.9413L10.0407 14.3413C9.11591 14.8808 8.79543 15.0575 8.47179 15.1269C8.16083 15.1936 7.83927 15.1936 7.52831 15.1269C7.20467 15.0575 6.88419 14.8808 5.95937 14.3413L3.55937 12.9413C2.64813 12.4098 2.34114 12.2207 2.12326 11.9772C1.91392 11.7432 1.75586 11.468 1.65924 11.1693C1.55869 10.8584 1.55005 10.498 1.55005 9.44303V6.55699C1.55005 5.50203 1.55869 5.1416 1.65924 4.8307C1.75586 4.53198 1.91392 4.25679 2.12326 4.02282C2.34114 3.77931 2.64813 3.59024 3.55937 3.05868L5.95937 1.65868C6.88419 1.1192 7.20467 0.942523 7.52831 0.873126C7.83927 0.806447 8.16083 0.806447 8.47179 0.873126C8.79543 0.942523 9.11591 1.1192 10.0407 1.65868Z" stroke="white" stroke-width="1.5"/>
<path d="M14.0002 5.00005L11.4999 6.50022M2.00024 5.00005L7.41226 8.24722C7.77418 8.46437 8.22631 8.46437 8.58823 8.24722L11.4999 6.50022M11.4999 6.50022L4.61713 2.37109" stroke="white" stroke-width="1.5"/>
<path d="M7.99878 7.99997V15.3288" stroke="white" stroke-width="1.5"/>
</g>
<defs>
<clipPath id="clip0_151_3901">
<rect width="16" height="16" fill="white"/>
</clipPath>
</defs>
</svg>
