<svg width="16" height="16" viewBox="0 0 16 16" fill="none" xmlns="http://www.w3.org/2000/svg">
<g clip-path="url(#clip0_151_3973)">
<path d="M7.23413 10.9907C7.4113 10.9052 7.57365 10.7913 7.73734 10.6654L9.03808 9.57488C11.1707 7.78723 13.8623 4.36254 15.0543 1.93064C15.2388 1.56283 15.168 1.22933 14.9625 1.03054C14.7691 0.830411 14.4343 0.771736 14.0618 0.944812C11.6366 2.13011 8.19843 4.83512 6.41684 6.96711L5.33846 8.26651C5.19499 8.42616 5.07241 8.61343 4.98486 8.80879" stroke="white" stroke-width="1.5" stroke-linecap="round" stroke-linejoin="round"/>
<path d="M9.75612 8.82454C9.93166 7.24201 8.78883 6.09917 7.2063 6.27472" stroke="white" stroke-width="1.5" stroke-linecap="round" stroke-linejoin="round"/>
<path d="M6.81711 12.0907C6.81711 12.881 6.51537 13.6353 5.94781 14.2101C5.50956 14.6483 4.91326 14.9501 4.20202 15.0435L2.43467 15.2375C1.47197 15.3452 0.645771 14.5262 0.760721 13.5491L0.954697 11.7818C1.12712 10.2084 2.44185 9.20261 3.83561 9.17387C3.9793 9.16669 4.13017 9.17387 4.26667 9.18106C4.87734 9.26009 5.47364 9.54028 5.96218 10.036C6.44353 10.5173 6.71653 11.0777 6.79556 11.6812C6.80274 11.8177 6.81711 11.9542 6.81711 12.0907Z" stroke="white" stroke-width="1.5" stroke-linecap="round" stroke-linejoin="round"/>
</g>
<defs>
<clipPath id="clip0_151_3973">
<rect width="16" height="16" fill="white"/>
</clipPath>
</defs>
</svg>
