<svg width="16" height="16" viewBox="0 0 16 16" fill="none" xmlns="http://www.w3.org/2000/svg">
<g clip-path="url(#clip0_151_3885)">
<path d="M8.78992 12.6789L10.1339 14.0229C10.6273 14.5163 10.874 14.763 11.1357 14.9029C11.7248 15.2177 12.4322 15.2177 13.0213 14.9029C13.2829 14.763 13.5296 14.5163 14.023 14.0229V14.0229C14.5164 13.5295 14.7631 13.2828 14.903 13.0212C15.2178 12.4321 15.2178 11.7247 14.903 11.1356C14.7631 10.8739 14.5164 10.6272 14.023 10.1338L12.679 8.78982M8.78992 12.6789L12.679 8.78982M8.78992 12.6789L5.58337 11.913C4.89219 11.7479 4.5466 11.6654 4.26574 11.4879C4.01736 11.3308 3.80662 11.121 3.64853 10.8733C3.46976 10.5933 3.38571 10.248 3.2176 9.55758L1.17717 1.17707M12.679 8.78982L11.9131 5.58327C11.748 4.89209 11.6655 4.5465 11.488 4.26564C11.3309 4.01726 11.1211 3.80652 10.8734 3.64843C10.5934 3.46967 10.2481 3.38561 9.55767 3.21751L1.17717 1.17707M1.17717 1.17707L7.0108 7.0107" stroke="white" stroke-width="1.5" stroke-linecap="round" stroke-linejoin="round"/>
</g>
<defs>
<clipPath id="clip0_151_3885">
<rect width="16" height="16" fill="white"/>
</clipPath>
</defs>
</svg>
