<svg width="16" height="16" viewBox="0 0 16 16" fill="none" xmlns="http://www.w3.org/2000/svg">
<g clip-path="url(#clip0_151_3892)">
<path d="M15.2392 12.5893C15.2392 12.8503 15.1812 13.1185 15.058 13.3795C14.9347 13.6405 14.7752 13.887 14.565 14.119C14.2097 14.5105 13.8182 14.7933 13.376 14.9745C12.941 15.1558 12.4697 15.25 11.9622 15.25C11.2227 15.25 10.4325 15.076 9.59874 14.7208C8.76499 14.3655 7.93124 13.887 7.10474 13.2853C6.27099 12.6763 5.48074 12.002 4.72674 11.2553C3.97999 10.5013 3.30574 9.711 2.70399 8.8845C2.10949 8.058 1.63099 7.2315 1.28299 6.41225C0.934986 5.58575 0.760986 4.7955 0.760986 4.0415C0.760986 3.5485 0.847986 3.07725 1.02199 2.64225C1.19599 2.2 1.47149 1.794 1.85574 1.4315C2.31974 0.97475 2.82724 0.75 3.36374 0.75C3.56674 0.75 3.76974 0.7935 3.95099 0.8805C4.13949 0.9675 4.30624 1.098 4.43674 1.2865L6.11874 3.65725C6.24924 3.8385 6.34349 4.00525 6.40874 4.16475C6.47399 4.317 6.51024 4.46925 6.51024 4.607C6.51024 4.781 6.45949 4.955 6.35799 5.12175C6.26374 5.2885 6.12599 5.4625 5.95199 5.6365L5.40099 6.20925C5.32124 6.289 5.28499 6.38325 5.28499 6.49925C5.28499 6.55725 5.29224 6.608 5.30674 6.666C5.32849 6.724 5.35024 6.7675 5.36474 6.811C5.49524 7.05025 5.71999 7.362 6.03899 7.739C6.36524 8.116 6.71324 8.50025 7.09024 8.8845C7.48174 9.26875 7.85874 9.624 8.24299 9.95025C8.61999 10.2693 8.93174 10.4868 9.17824 10.6173C9.21449 10.6318 9.25799 10.6535 9.30874 10.6753C9.36674 10.697 9.42474 10.7042 9.48999 10.7042C9.61324 10.7042 9.70749 10.6608 9.78724 10.581L10.3382 10.0373C10.5195 9.856 10.6935 9.71825 10.8602 9.63125C11.027 9.52975 11.1937 9.479 11.375 9.479C11.5127 9.479 11.6577 9.508 11.8172 9.57325C11.9767 9.6385 12.1435 9.73275 12.3247 9.856L14.7245 11.5598C14.913 11.6903 15.0435 11.8425 15.1232 12.0237C15.1957 12.205 15.2392 12.3863 15.2392 12.5893Z" stroke="white" stroke-width="1.5" stroke-miterlimit="10"/>
</g>
<defs>
<clipPath id="clip0_151_3892">
<rect width="16" height="16" fill="white"/>
</clipPath>
</defs>
</svg>
