<svg width="16" height="16" viewBox="0 0 16 16" fill="none" xmlns="http://www.w3.org/2000/svg">
<mask id="path-1-inside-1_151_3805" fill="white">
<path fill-rule="evenodd" clip-rule="evenodd" d="M4.8 4H10.2C11.0648 4 11.6232 4.00117 12.0482 4.03589C12.4557 4.06918 12.6068 4.1257 12.681 4.16349C12.9632 4.3073 13.1927 4.53677 13.3365 4.81901C13.3743 4.89318 13.4308 5.04426 13.4641 5.45175C13.4988 5.87676 13.5 6.43517 13.5 7.3V8.04148C14.0708 8.13724 14.5869 8.39418 15 8.7639C15 8.74273 15 8.72144 15 8.7V7.3C15 5.61984 15 4.77976 14.673 4.13803C14.3854 3.57354 13.9265 3.1146 13.362 2.82698C12.7202 2.5 11.8802 2.5 10.2 2.5H4.8C3.11984 2.5 2.27976 2.5 1.63803 2.82698C1.07354 3.1146 0.614601 3.57354 0.32698 4.13803C0 4.77976 0 5.61984 0 7.3V8.7C0 10.3802 0 11.2202 0.32698 11.862C0.614601 12.4265 1.07354 12.8854 1.63803 13.173C2.27976 13.5 3.11984 13.5 4.8 13.5H9.3411C8.80438 13.1431 8.38915 12.618 8.17071 12H4.8C3.93517 12 3.37676 11.9988 2.95175 11.9641C2.54426 11.9308 2.39318 11.8743 2.31901 11.8365C2.03677 11.6927 1.8073 11.4632 1.66349 11.181C1.6257 11.1068 1.56918 10.9557 1.53589 10.5482C1.50117 10.1232 1.5 9.56483 1.5 8.7V7.3C1.5 6.43517 1.50117 5.87676 1.53589 5.45175C1.56918 5.04426 1.6257 4.89318 1.66349 4.81901C1.8073 4.53677 2.03677 4.3073 2.31901 4.16349C2.39318 4.1257 2.54426 4.06918 2.95175 4.03589C3.37676 4.00117 3.93517 4 4.8 4Z"/>
</mask>
<path fill-rule="evenodd" clip-rule="evenodd" d="M4.8 4H10.2C11.0648 4 11.6232 4.00117 12.0482 4.03589C12.4557 4.06918 12.6068 4.1257 12.681 4.16349C12.9632 4.3073 13.1927 4.53677 13.3365 4.81901C13.3743 4.89318 13.4308 5.04426 13.4641 5.45175C13.4988 5.87676 13.5 6.43517 13.5 7.3V8.04148C14.0708 8.13724 14.5869 8.39418 15 8.7639C15 8.74273 15 8.72144 15 8.7V7.3C15 5.61984 15 4.77976 14.673 4.13803C14.3854 3.57354 13.9265 3.1146 13.362 2.82698C12.7202 2.5 11.8802 2.5 10.2 2.5H4.8C3.11984 2.5 2.27976 2.5 1.63803 2.82698C1.07354 3.1146 0.614601 3.57354 0.32698 4.13803C0 4.77976 0 5.61984 0 7.3V8.7C0 10.3802 0 11.2202 0.32698 11.862C0.614601 12.4265 1.07354 12.8854 1.63803 13.173C2.27976 13.5 3.11984 13.5 4.8 13.5H9.3411C8.80438 13.1431 8.38915 12.618 8.17071 12H4.8C3.93517 12 3.37676 11.9988 2.95175 11.9641C2.54426 11.9308 2.39318 11.8743 2.31901 11.8365C2.03677 11.6927 1.8073 11.4632 1.66349 11.181C1.6257 11.1068 1.56918 10.9557 1.53589 10.5482C1.50117 10.1232 1.5 9.56483 1.5 8.7V7.3C1.5 6.43517 1.50117 5.87676 1.53589 5.45175C1.56918 5.04426 1.6257 4.89318 1.66349 4.81901C1.8073 4.53677 2.03677 4.3073 2.31901 4.16349C2.39318 4.1257 2.54426 4.06918 2.95175 4.03589C3.37676 4.00117 3.93517 4 4.8 4Z" fill="white"/>
<path d="M12.0482 4.03589L11.9261 5.53091L11.9261 5.53091L12.0482 4.03589ZM12.681 4.16349L12 5.5L12 5.5L12.681 4.16349ZM13.3365 4.81901L12 5.5L12 5.5L13.3365 4.81901ZM13.4641 5.45175L14.9591 5.32961L14.9591 5.32961L13.4641 5.45175ZM13.5 8.04148H12V9.31079L13.2518 9.5208L13.5 8.04148ZM15 8.7639L13.9996 9.8816L16.5 12.1195V8.7639H15ZM14.673 4.13803L13.3365 4.81901L13.3365 4.81901L14.673 4.13803ZM13.362 2.82698L14.043 1.49047L14.043 1.49047L13.362 2.82698ZM1.63803 2.82698L2.31901 4.16349L2.31901 4.16349L1.63803 2.82698ZM0.32698 4.13803L1.66349 4.81901L1.66349 4.81901L0.32698 4.13803ZM0.32698 11.862L-1.00953 12.543L-1.00953 12.543L0.32698 11.862ZM1.63803 13.173L2.31901 11.8365L2.31901 11.8365L1.63803 13.173ZM9.3411 13.5V15H14.3063L10.1716 12.2509L9.3411 13.5ZM8.17071 12L9.58497 11.5001L9.23147 10.5H8.17071V12ZM2.95175 11.9641L2.82961 13.4591L2.82961 13.4591L2.95175 11.9641ZM2.31901 11.8365L3 10.5L3 10.5L2.31901 11.8365ZM1.66349 11.181L3 10.5L3 10.5L1.66349 11.181ZM1.53589 10.5482L0.0408726 10.6704L0.0408726 10.6704L1.53589 10.5482ZM1.53589 5.45175L3.03091 5.5739L3.03091 5.5739L1.53589 5.45175ZM1.66349 4.81901L3 5.5L3 5.5L1.66349 4.81901ZM2.31901 4.16349L3 5.5L3 5.5L2.31901 4.16349ZM2.95175 4.03589L3.0739 5.53091L3.0739 5.53091L2.95175 4.03589ZM10.2 2.5H4.8V5.5H10.2V2.5ZM12.1704 2.54087C11.6699 2.49998 11.039 2.5 10.2 2.5V5.5C11.0906 5.5 11.5766 5.50235 11.9261 5.53091L12.1704 2.54087ZM13.362 2.82698C13.0403 2.66308 12.6692 2.58163 12.1704 2.54087L11.9261 5.53091C12.0016 5.53708 12.0557 5.54356 12.0925 5.54892C12.1294 5.55429 12.1459 5.55808 12.1466 5.55826C12.1468 5.55831 12.1298 5.55433 12.1006 5.54381C12.0859 5.53853 12.0693 5.53203 12.0512 5.52418C12.033 5.51624 12.0157 5.50802 12 5.5L13.362 2.82698ZM14.673 4.13803C14.3854 3.57354 13.9265 3.1146 13.362 2.82698L12 5.5L12 5.5L14.673 4.13803ZM14.9591 5.32961C14.9184 4.83077 14.8369 4.45969 14.673 4.13803L12 5.5C11.992 5.48426 11.9838 5.46703 11.9758 5.44875C11.968 5.43069 11.9615 5.4141 11.9562 5.39942C11.9457 5.37016 11.9417 5.35317 11.9417 5.35339C11.9419 5.35415 11.9457 5.37057 11.9511 5.40746C11.9564 5.44427 11.9629 5.49839 11.9691 5.5739L14.9591 5.32961ZM15 7.3C15 6.46096 15 5.83011 14.9591 5.32961L11.9691 5.5739C11.9976 5.92341 12 6.40938 12 7.3H15ZM15 8.04148V7.3H12V8.04148H15ZM13.2518 9.5208C13.5344 9.56822 13.7917 9.69549 13.9996 9.8816L16.0004 7.64619C15.3822 7.09288 14.6071 6.70626 13.7482 6.56215L13.2518 9.5208ZM16.5 8.7639C16.5 8.75334 16.5 8.74274 16.5 8.73208C16.5 8.72144 16.5 8.71074 16.5 8.7H13.5C13.5 8.7107 13.5 8.72136 13.5 8.73202C13.5 8.74266 13.5 8.7533 13.5 8.7639H16.5ZM16.5 8.7V7.3H13.5V8.7H16.5ZM16.5 7.3C16.5 6.48467 16.5012 5.78296 16.4541 5.20746C16.4057 4.61444 16.2987 4.02461 16.0095 3.45704L13.3365 4.81901C13.3743 4.89318 13.4308 5.04426 13.4641 5.45175C13.4988 5.87676 13.5 6.43517 13.5 7.3H16.5ZM16.0095 3.45704C15.5781 2.61031 14.8897 1.9219 14.043 1.49047L12.681 4.16349C12.9632 4.3073 13.1927 4.53677 13.3365 4.81901L16.0095 3.45704ZM14.043 1.49047C13.4754 1.20128 12.8856 1.09431 12.2925 1.04585C11.717 0.998833 11.0153 1 10.2 1V4C11.0648 4 11.6232 4.00117 12.0482 4.03589C12.4557 4.06918 12.6068 4.1257 12.681 4.16349L14.043 1.49047ZM10.2 1H4.8V4H10.2V1ZM4.8 1C3.98467 1 3.28296 0.998833 2.70746 1.04585C2.11444 1.09431 1.52461 1.20128 0.957043 1.49047L2.31901 4.16349C2.39318 4.1257 2.54426 4.06918 2.95175 4.03589C3.37676 4.00117 3.93517 4 4.8 4V1ZM0.957043 1.49047C0.110313 1.9219 -0.578099 2.61031 -1.00953 3.45704L1.66349 4.81901C1.8073 4.53677 2.03677 4.3073 2.31901 4.16349L0.957043 1.49047ZM-1.00953 3.45704C-1.29872 4.02461 -1.40569 4.61444 -1.45415 5.20746C-1.50117 5.78296 -1.5 6.48467 -1.5 7.3H1.5C1.5 6.43517 1.50117 5.87676 1.53589 5.45175C1.56918 5.04426 1.6257 4.89318 1.66349 4.81901L-1.00953 3.45704ZM-1.5 7.3V8.7H1.5V7.3H-1.5ZM-1.5 8.7C-1.5 9.51533 -1.50117 10.217 -1.45415 10.7925C-1.40569 11.3856 -1.29872 11.9754 -1.00953 12.543L1.66349 11.181C1.6257 11.1068 1.56918 10.9557 1.53589 10.5482C1.50117 10.1232 1.5 9.56483 1.5 8.7H-1.5ZM-1.00953 12.543C-0.578099 13.3897 0.110313 14.0781 0.957044 14.5095L2.31901 11.8365C2.03677 11.6927 1.8073 11.4632 1.66349 11.181L-1.00953 12.543ZM0.957042 14.5095C1.52461 14.7987 2.11444 14.9057 2.70746 14.9541C3.28296 15.0012 3.98467 15 4.8 15V12C3.93517 12 3.37676 11.9988 2.95175 11.9641C2.54426 11.9308 2.39318 11.8743 2.31901 11.8365L0.957042 14.5095ZM4.8 15H9.3411V12H4.8V15ZM10.1716 12.2509C9.90127 12.0712 9.69345 11.8071 9.58497 11.5001L6.75645 12.4999C7.08486 13.429 7.70748 14.2151 8.51059 14.7491L10.1716 12.2509ZM4.8 13.5H8.17071V10.5H4.8V13.5ZM2.82961 13.4591C3.33011 13.5 3.96096 13.5 4.8 13.5V10.5C3.90938 10.5 3.42341 10.4976 3.0739 10.4691L2.82961 13.4591ZM1.63803 13.173C1.95969 13.3369 2.33077 13.4184 2.82961 13.4591L3.0739 10.4691C2.99839 10.4629 2.94427 10.4564 2.90746 10.4511C2.87057 10.4457 2.85415 10.4419 2.85339 10.4417C2.85317 10.4417 2.87016 10.4457 2.89942 10.4562C2.9141 10.4615 2.93069 10.468 2.94875 10.4758C2.96703 10.4838 2.98426 10.492 3 10.5L1.63803 13.173ZM0.32698 11.862C0.614601 12.4265 1.07354 12.8854 1.63803 13.173L3 10.5L3 10.5L0.32698 11.862ZM0.0408726 10.6704C0.0816288 11.1692 0.163084 11.5403 0.326982 11.862L3 10.5C3.00802 10.5157 3.01624 10.533 3.02418 10.5512C3.03203 10.5693 3.03853 10.5859 3.04381 10.6006C3.05433 10.6298 3.05831 10.6468 3.05826 10.6466C3.05808 10.6459 3.05429 10.6294 3.04892 10.5925C3.04356 10.5557 3.03708 10.5016 3.03091 10.4261L0.0408726 10.6704ZM0 8.7C0 9.53904 -1.98517e-05 10.1699 0.0408726 10.6704L3.03091 10.4261C3.00235 10.0766 3 9.59062 3 8.7H0ZM0 7.3V8.7H3V7.3H0ZM0.0408726 5.32961C-1.98535e-05 5.83011 0 6.46096 0 7.3H3C3 6.40938 3.00235 5.92341 3.03091 5.5739L0.0408726 5.32961ZM0.326981 4.13803C0.163085 4.45969 0.0816289 4.83077 0.0408726 5.32961L3.03091 5.5739C3.03708 5.49839 3.04356 5.44426 3.04892 5.40745C3.05429 5.37057 3.05808 5.35415 3.05826 5.35339C3.05831 5.35316 3.05433 5.37016 3.04381 5.39942C3.03853 5.4141 3.03203 5.43069 3.02418 5.44875C3.01624 5.46702 3.00802 5.48426 3 5.5L0.326981 4.13803ZM1.63803 2.82698C1.07354 3.1146 0.614601 3.57354 0.32698 4.13803L3 5.5L3 5.5L1.63803 2.82698ZM2.82961 2.54087C2.33077 2.58163 1.95969 2.66308 1.63803 2.82698L3 5.5C2.98426 5.50802 2.96702 5.51624 2.94875 5.52418C2.93069 5.53203 2.9141 5.53853 2.89942 5.54381C2.87016 5.55433 2.85316 5.55831 2.85339 5.55826C2.85415 5.55808 2.87057 5.55429 2.90745 5.54892C2.94426 5.54356 2.99839 5.53708 3.0739 5.53091L2.82961 2.54087ZM4.8 2.5C3.96096 2.5 3.33011 2.49998 2.82961 2.54087L3.0739 5.53091C3.42341 5.50235 3.90938 5.5 4.8 5.5V2.5Z" fill="white" mask="url(#path-1-inside-1_151_3805)"/>
<rect x="7.75" y="7.75" width="7.5" height="5.5" rx="2.25" stroke="white" stroke-width="1.5"/>
</svg>
