<svg width="16" height="16" viewBox="0 0 16 16" fill="none" xmlns="http://www.w3.org/2000/svg">
<g clip-path="url(#clip0_151_3794)">
<path d="M10.9392 11.5489L7.40133 13.4942C6.21764 14.1451 5.37498 14.6075 4.70891 14.898C4.0402 15.1897 3.65895 15.2564 3.38211 15.2232C2.75546 15.1481 2.18919 14.8132 1.82142 14.3003C1.65894 14.0737 1.53368 13.7075 1.46706 12.981C1.4007 12.2574 1.39995 11.2961 1.39995 9.9453L1.39995 6.0547C1.39995 4.70386 1.4007 3.74264 1.46706 3.01899C1.53368 2.29249 1.65894 1.92629 1.82142 1.69969C2.18919 1.18678 2.75546 0.851917 3.38211 0.776786C3.65895 0.743594 4.0402 0.810278 4.70891 1.10194C5.37499 1.39246 6.21764 1.85494 7.40133 2.50581L10.9392 4.45111C12.1992 5.14393 13.0981 5.6391 13.7379 6.07135C14.3828 6.50708 14.6535 6.8088 14.7714 7.06772C15.041 7.65999 15.041 8.34 14.7714 8.93228C14.6535 9.1912 14.3828 9.49292 13.7379 9.92865C13.0981 10.3609 12.1992 10.8561 10.9392 11.5489Z" stroke="white" stroke-width="1.5"/>
</g>
<defs>
<clipPath id="clip0_151_3794">
<rect width="16" height="16" fill="white"/>
</clipPath>
</defs>
</svg>
