<svg width="16" height="16" viewBox="0 0 16 16" fill="none" xmlns="http://www.w3.org/2000/svg">
<g clip-path="url(#clip0_151_3868)">
<mask id="path-1-inside-1_151_3868" fill="white">
<path d="M1.5 1H14.5V6.2C14.5 7.88016 14.5 8.72024 14.173 9.36197C13.8854 9.92646 13.4265 10.3854 12.862 10.673C12.2202 11 11.3802 11 9.7 11H6.3C4.61984 11 3.77976 11 3.13803 10.673C2.57354 10.3854 2.1146 9.92646 1.82698 9.36197C1.5 8.72024 1.5 7.88016 1.5 6.2V1Z"/>
</mask>
<path d="M1.5 1H14.5H1.5ZM16 8C16 10.4853 13.9853 12.5 11.5 12.5H4.5C2.01472 12.5 0 10.4853 0 8H3C3 8.82843 3.67157 9.5 4.5 9.5H11.5C12.3284 9.5 13 8.82843 13 8H16ZM4.5 12.5C2.01472 12.5 0 10.4853 0 8V1H3V8C3 8.82843 3.67157 9.5 4.5 9.5V12.5ZM16 1V8C16 10.4853 13.9853 12.5 11.5 12.5V9.5C12.3284 9.5 13 8.82843 13 8V1H16Z" fill="white" mask="url(#path-1-inside-1_151_3868)"/>
<path d="M5.82153 15.25H8.07153M10.3215 15.25H8.07153M8.07153 15.25V10.75" stroke="white" stroke-width="1.5" stroke-linecap="round"/>
<path d="M0.75 0.75H15.25" stroke="white" stroke-width="1.5" stroke-linecap="round"/>
</g>
<defs>
<clipPath id="clip0_151_3868">
<rect width="16" height="16" fill="white"/>
</clipPath>
</defs>
</svg>
