<svg width="16" height="16" viewBox="0 0 16 16" fill="none" xmlns="http://www.w3.org/2000/svg">
<g clip-path="url(#clip0_151_3919)">
<path d="M0.749756 13.1356V11.3228C0.749756 11.156 0.885017 11.0208 1.05184 11.0208C2.21969 11.0208 3.16642 10.0741 3.16642 8.90623C3.16642 7.73837 2.21969 6.79164 1.05184 6.79164C0.885003 6.79164 0.749756 6.65639 0.749756 6.48956V4.97914C0.749756 3.97812 1.56124 3.16664 2.56226 3.16664H4.67684C4.84367 3.16664 4.97892 3.03139 4.97892 2.86455C4.97892 1.6967 5.92565 0.749969 7.09351 0.749969C8.26136 0.749969 9.20809 1.6967 9.20809 2.86455C9.20809 3.03135 9.3433 3.16656 9.51009 3.16656L11.0206 3.1666C12.0216 3.16662 12.8331 3.97811 12.8331 4.97912V6.48956C12.8331 6.65639 12.9683 6.79164 13.1352 6.79164C14.303 6.79164 15.2498 7.73837 15.2498 8.90623C15.2498 10.0741 14.303 11.0208 13.1352 11.0208C12.9684 11.0208 12.8331 11.156 12.8331 11.3228V13.4375C12.8331 14.4385 12.0216 15.25 11.0206 15.25H9.51017C9.34334 15.25 9.20809 15.1147 9.20809 14.9479C9.20809 13.78 8.26136 12.8333 7.09351 12.8333C5.92565 12.8333 4.97892 13.78 4.97892 14.9479C4.97892 15.1147 4.84368 15.25 4.67684 15.25H2.86408C1.69637 15.25 0.749756 14.3034 0.749756 13.1356Z" stroke="white" stroke-width="1.5" stroke-linecap="round"/>
</g>
<defs>
<clipPath id="clip0_151_3919">
<rect width="16" height="16" fill="white"/>
</clipPath>
</defs>
</svg>
