<svg width="16" height="16" viewBox="0 0 16 16" fill="none" xmlns="http://www.w3.org/2000/svg">
<path d="M3.75 5V5C2.81812 5 2.35218 5 1.98463 5.15224C1.49458 5.35523 1.10523 5.74458 0.902241 6.23463C0.75 6.60218 0.75 7.06812 0.75 8V8.25C0.75 8.94778 0.75 9.29667 0.836119 9.58057C1.03002 10.2198 1.53023 10.72 2.16943 10.9139C2.45333 11 2.80222 11 3.5 11V11H3.75" stroke="white" stroke-width="1.5" stroke-linecap="round"/>
<path d="M6.49756 2V13.9993M6.49756 2H5M6.49756 2H7.99513M5.00487 14H6.50244H8" stroke="white" stroke-width="1.5" stroke-linecap="round"/>
<path d="M9.25 5H12.25C13.1819 5 13.6478 5 14.0154 5.15224C14.5054 5.35523 14.8948 5.74458 15.0978 6.23463C15.25 6.60218 15.25 7.06812 15.25 8V8C15.25 8.93188 15.25 9.39782 15.0978 9.76537C14.8948 10.2554 14.5054 10.6448 14.0154 10.8478C13.6478 11 13.1819 11 12.25 11H9.25" stroke="white" stroke-width="1.5" stroke-linecap="round"/>
</svg>
