<svg width="16" height="16" viewBox="0 0 16 16" fill="none" xmlns="http://www.w3.org/2000/svg">
<g clip-path="url(#clip0_151_3828)">
<path d="M10.7242 7.05921C10.8316 6.66043 10.5964 6.24986 10.1981 6.14077L7.0428 5.27664C6.85043 5.22395 6.64499 5.25006 6.47192 5.3492C6.29885 5.44833 6.17239 5.61233 6.12051 5.80491L5.27582 8.94051C5.1684 9.33926 5.40354 9.74983 5.80184 9.85894L8.95714 10.7233C9.14952 10.7761 9.35497 10.7499 9.52806 10.6508C9.70115 10.5517 9.82761 10.3877 9.87949 10.1951L10.7242 7.05921Z" stroke="white" stroke-width="1.5" stroke-linejoin="round"/>
<path d="M8.173 14.0218L7.97765 14.7459L8.173 14.0218ZM8.173 14.0218L4.82455 13.1183C4.00234 12.8965 3.42936 12.7413 2.99297 12.5844C2.56485 12.4306 2.33126 12.2961 2.16684 12.1476C1.81443 11.8294 1.57172 11.4078 1.47345 10.9433C1.42761 10.7266 1.42854 10.457 1.51041 10.0095C1.59387 9.55335 1.74732 8.9799 1.96826 8.15744L2.86071 4.83533C3.08209 4.01125 3.23698 3.43692 3.39367 2.99952C3.54741 2.57039 3.68198 2.33632 3.83056 2.17162C4.14907 1.81857 4.57124 1.5755 5.03648 1.4773C5.25352 1.43148 5.52351 1.43263 5.97183 1.51513C6.42878 1.59921 7.00323 1.75361 7.82707 1.97589L11.1755 2.87936C11.9977 3.10121 12.5707 3.25641 13.0071 3.41325C13.4352 3.56712 13.6688 3.70164 13.8332 3.85011C14.1856 4.16832 14.4283 4.58986 14.5266 5.05439C14.5724 5.27113 14.5715 5.54068 14.4896 5.98818C14.4062 6.44433 14.2527 7.01778 14.0318 7.84022L13.1394 11.1624C12.918 11.9864 12.7631 12.5608 12.6064 12.9982C12.4527 13.4273 12.3181 13.6614 12.1695 13.8261C11.851 14.1791 11.4289 14.4222 10.9636 14.5204C10.7466 14.5662 10.4766 14.5651 10.0283 14.4826C9.57131 14.3985 8.99684 14.2441 8.173 14.0218Z" stroke="white" stroke-width="1.5"/>
</g>
<defs>
<clipPath id="clip0_151_3828">
<rect width="16" height="16" fill="white"/>
</clipPath>
</defs>
</svg>
