<svg width="16" height="16" viewBox="0 0 16 16" fill="none" xmlns="http://www.w3.org/2000/svg">
<g clip-path="url(#clip0_151_3995)">
<path d="M15.25 8.90625C15.25 11.0716 14.3007 13.0153 12.7956 14.3438L12 13.6562M15.25 8.90625H13.5M15.25 8.90625C15.25 6.84064 14.3862 4.97678 13 3.65625M0.75 8.90625C0.75 11.0716 1.69931 13.0153 3.20444 14.3438L4 13.6562M0.75 8.90625H2.5M0.75 8.90625C0.75 6.84064 1.61385 4.97678 2.99998 3.65625M8 1.65625V3.15625M8 1.65625C9.93845 1.65625 11.6992 2.41701 13 3.65625M8 1.65625C6.06155 1.65625 4.30078 2.41701 2.99998 3.65625M13 3.65625L12 4.65625M4 4.65625L2.99998 3.65625" stroke="white" stroke-width="1.5" stroke-linecap="round" stroke-linejoin="round"/>
<path d="M7.99982 8.90626L11.897 11.1563" stroke="white" stroke-width="1.5" stroke-linecap="round"/>
</g>
<defs>
<clipPath id="clip0_151_3995">
<rect width="16" height="16" fill="white"/>
</clipPath>
</defs>
</svg>
