<svg width="16" height="16" viewBox="0 0 16 16" fill="none" xmlns="http://www.w3.org/2000/svg">
<path d="M4 10.9442H5.3M6.5 10.9442H5.3M5.3 10.9442V7.97211M5.3 5H4M5.3 5C6.05 5 7.1 5 8.9 5C11.15 5 11.6 7.97211 8.9 7.97211C8.59068 7.97211 8.28998 7.97211 8 7.97211M5.3 5V7.97211M5.3 7.97211C5.81408 7.97211 6.26503 7.97211 8 7.97211M8 7.97211C8.6 7.97211 9.8 8.56653 9.8 10.9442C11 11.1093 12.05 10.9442 12.5 9.95351" stroke="white" stroke-width="1.5" stroke-linecap="round" stroke-linejoin="round"/>
<path d="M15.25 8C15.25 12.0041 12.0041 15.25 8 15.25C3.99594 15.25 0.75 12.0041 0.75 8C0.75 3.99594 3.99594 0.75 8 0.75C12.0041 0.75 15.25 3.99594 15.25 8Z" stroke="white" stroke-width="1.5"/>
<circle cx="12" cy="13" r="1" fill="white"/>
<circle cx="4" cy="13" r="1" fill="white"/>
<circle cx="2" cy="6" r="1" fill="white"/>
<circle cx="14" cy="6" r="1" fill="white"/>
<ellipse cx="8" cy="1.5" rx="1" ry="1.5" fill="white"/>
</svg>
