<svg width="16" height="16" viewBox="0 0 16 16" fill="none" xmlns="http://www.w3.org/2000/svg">
<g clip-path="url(#clip0_151_3849)">
<path d="M10.0251 1.63517L12.4997 3.06388C13.4179 3.59397 13.7272 3.78264 13.9468 4.02651C14.1578 4.26084 14.3171 4.53689 14.4146 4.83677C14.516 5.14887 14.5247 5.51111 14.5247 6.57129V9.42872C14.5247 10.4889 14.516 10.8511 14.4146 11.1632C14.3171 11.4631 14.1578 11.7392 13.9468 11.9735C13.7272 12.2174 13.4179 12.406 12.4997 12.9361L10.0251 14.3648C9.10695 14.8949 8.78889 15.0685 8.4679 15.1367C8.15947 15.2023 7.84072 15.2023 7.53229 15.1367C7.2113 15.0685 6.89324 14.8949 5.9751 14.3648L3.50049 12.9361C2.58234 12.406 2.27299 12.2174 2.05341 11.9735C1.84242 11.7392 1.68304 11.4631 1.58561 11.1632C1.4842 10.8511 1.47548 10.4889 1.47548 9.42873L1.47548 6.57129C1.47548 5.51111 1.4842 5.14887 1.58561 4.83677C1.68304 4.53689 1.84242 4.26084 2.05341 4.02651C2.27299 3.78264 2.58234 3.59397 3.50048 3.06388L5.97509 1.63517C6.89324 1.10508 7.2113 0.931505 7.53229 0.863276C7.84072 0.797719 8.15947 0.797719 8.4679 0.863276C8.78889 0.931505 9.10695 1.10508 10.0251 1.63517Z" stroke="white" stroke-width="1.5"/>
<path d="M10.6356 5.98764L8.4251 4.71141C8.27191 4.62297 8.18478 4.57301 8.11704 4.53909C8.07525 4.51816 8.05664 4.51161 8.05163 4.51008L10.6356 5.98764ZM10.6356 5.98764C10.7888 6.07608 10.8756 6.12656 10.9389 6.16827C10.9779 6.19399 10.9929 6.20683 10.9967 6.21041C11.0199 6.23626 11.0374 6.26666 11.0482 6.29967C11.0494 6.30478 11.053 6.32418 11.0558 6.37083C11.0603 6.44645 11.0606 6.54689 11.0606 6.72377V9.27625C11.0606 9.45312 11.0603 9.55356 11.0558 9.62918C11.053 9.67584 11.0494 9.69524 11.0482 9.70034L10.6356 5.98764ZM7.95001 4.50969C7.94998 4.50971 7.94949 4.50986 7.9486 4.51006L7.95001 4.50969ZM7.88315 4.53909C7.92494 4.51816 7.94356 4.51161 7.94856 4.51008L5.0035 6.21041C5.00733 6.20684 5.02231 6.194 5.06133 6.16827C5.12458 6.12656 5.2114 6.07608 5.36459 5.98764L7.5751 4.71141C7.72828 4.62297 7.81541 4.57301 7.88315 4.53909ZM4.95235 6.29822C4.95236 6.29826 4.95224 6.29876 4.95197 6.29963L4.95235 6.29822ZM4.94438 6.37083C4.94716 6.32417 4.95078 6.30477 4.95196 6.29967L7.94856 11.4899C7.94355 11.4884 7.92494 11.4818 7.88315 11.4609C7.81541 11.427 7.72828 11.377 7.5751 11.2886L5.36459 10.0124C5.2114 9.92393 5.12458 9.87345 5.06133 9.83174C5.02232 9.80602 5.00733 9.79318 5.0035 9.7896C4.98031 9.76375 4.96275 9.73335 4.95196 9.70034C4.95078 9.69524 4.94716 9.67584 4.94438 9.62918C4.93989 9.55356 4.93959 9.45312 4.93959 9.27625L4.93959 6.72377C4.93959 6.54689 4.93989 6.44645 4.94438 6.37083ZM8.05018 11.4903C8.05018 11.4903 8.05068 11.4902 8.05159 11.4899L8.05018 11.4903ZM8.11704 11.4609C8.07525 11.4818 8.05664 11.4884 8.05163 11.4899L10.9967 9.7896C10.9929 9.79317 10.9779 9.80602 10.9389 9.83174C10.8756 9.87345 10.7888 9.92393 10.6356 10.0124L8.4251 11.2886C8.27191 11.377 8.18478 11.427 8.11704 11.4609ZM11.0478 9.70179C11.0478 9.70175 11.048 9.70125 11.0482 9.70038L11.0478 9.70179ZM10.9978 6.21147C10.9977 6.21146 10.9973 6.2111 10.9967 6.21044C10.9975 6.21115 10.9978 6.21148 10.9978 6.21147ZM5.00243 9.78854C5.00246 9.78854 5.00284 9.7889 5.00347 9.78957C5.00272 9.78888 5.00241 9.78854 5.00243 9.78854Z" stroke="white" stroke-width="1.5"/>
<path d="M13.9394 11.5556L8.77817 8.46585C8.49443 8.29599 8.35255 8.21105 8.24949 8.09401C8.15829 7.99043 8.08951 7.8691 8.04749 7.73765C8 7.5891 8 7.42375 8 7.09304V1" stroke="white" stroke-width="1.5" stroke-linecap="round" stroke-linejoin="round"/>
</g>
<defs>
<clipPath id="clip0_151_3849">
<rect width="16" height="16" fill="white"/>
</clipPath>
</defs>
</svg>
