<svg width="16" height="16" viewBox="0 0 16 16" fill="none" xmlns="http://www.w3.org/2000/svg">
<g clip-path="url(#clip0_151_3809)">
<path d="M4.375 0.75H3.95C2.82989 0.75 2.26984 0.75 1.84202 0.967987C1.46569 1.15973 1.15973 1.46569 0.967987 1.84202C0.75 2.26984 0.75 2.82989 0.75 3.95V12.05C0.75 13.1701 0.75 13.7302 0.967987 14.158C1.15973 14.5343 1.46569 14.8403 1.84202 15.032C2.26984 15.25 2.82989 15.25 3.95 15.25H4.375M4.375 0.75H10.2995C10.7887 0.75 11.0333 0.75 11.2635 0.80526C11.4675 0.854254 11.6626 0.935062 11.8416 1.04472C12.0434 1.1684 12.2164 1.34135 12.5623 1.68726L14.3127 3.43774C14.6586 3.78365 14.8316 3.9566 14.9553 4.15843C15.0649 4.33737 15.1457 4.53246 15.1947 4.73654C15.25 4.96671 15.25 5.2113 15.25 5.70048V12.05C15.25 13.1701 15.25 13.7302 15.032 14.158C14.8403 14.5343 14.5343 14.8403 14.158 15.032C13.7302 15.25 13.1701 15.25 12.05 15.25H11.625M4.375 0.75V3.16667V3.16667C4.375 3.83401 4.91599 4.375 5.58333 4.375V4.375H9.20833M4.375 15.25H8H11.625M4.375 15.25V12.4083C4.375 11.2882 4.375 10.7282 4.59299 10.3004C4.78473 9.92403 5.09069 9.61807 5.46702 9.42632C5.89484 9.20833 6.45489 9.20833 7.575 9.20833H8.425C9.54511 9.20833 10.1052 9.20833 10.533 9.42632C10.9093 9.61807 11.2153 9.92403 11.407 10.3004C11.625 10.7282 11.625 11.2882 11.625 12.4083V15.25" stroke="white" stroke-width="1.5" stroke-linecap="round"/>
</g>
<defs>
<clipPath id="clip0_151_3809">
<rect width="16" height="16" fill="white"/>
</clipPath>
</defs>
</svg>
