<svg width="16" height="16" viewBox="0 0 16 16" fill="none" xmlns="http://www.w3.org/2000/svg">
<g clip-path="url(#clip0_151_3841)">
<path d="M3.77067 5.58333C5.10536 5.58333 6.18734 4.50135 6.18734 3.16667C6.18734 1.83198 5.10536 0.75 3.77067 0.75C2.43598 0.75 1.354 1.83198 1.354 3.16667C1.354 4.50135 2.43598 5.58333 3.77067 5.58333Z" stroke="white" stroke-width="1.5" stroke-linecap="round" stroke-linejoin="round"/>
<path d="M3.77067 15.25C5.10536 15.25 6.18734 14.168 6.18734 12.8334C6.18734 11.4987 5.10536 10.4167 3.77067 10.4167C2.43598 10.4167 1.354 11.4987 1.354 12.8334C1.354 14.168 2.43598 15.25 3.77067 15.25Z" stroke="white" stroke-width="1.5" stroke-linecap="round" stroke-linejoin="round"/>
<path d="M14.6457 1.95837L5.58325 11.0209" stroke="white" stroke-width="1.5" stroke-linecap="round" stroke-linejoin="round"/>
<path d="M11.0208 10.4167L14.6458 14.0417" stroke="white" stroke-width="1.5" stroke-linecap="round" stroke-linejoin="round"/>
<path d="M5.58325 4.97919L8.60408 8.00002" stroke="white" stroke-width="1.5" stroke-linecap="round" stroke-linejoin="round"/>
</g>
<defs>
<clipPath id="clip0_151_3841">
<rect width="16" height="16" fill="white"/>
</clipPath>
</defs>
</svg>
