<svg width="16" height="16" viewBox="0 0 16 16" fill="none" xmlns="http://www.w3.org/2000/svg">
<path d="M13.5 2.35V14.713C13.5 15.0096 13.2596 15.25 12.963 15.25H4.1C3.53995 15.25 3.25992 15.25 3.04601 15.141C2.85785 15.0451 2.70487 14.8922 2.60899 14.704C2.5 14.4901 2.5 14.2101 2.5 13.65V12.1789C2.5 11.9736 2.5 11.8709 2.51993 11.7726C2.53761 11.6853 2.56686 11.6008 2.6069 11.5213C2.65203 11.4317 2.71552 11.351 2.8425 11.1897L2.8425 11.1896L3.37972 10.5068L3.37972 10.5068C3.5067 10.3454 3.57019 10.2647 3.61532 10.1751C3.65536 10.0956 3.68461 10.0111 3.70229 9.92386C3.72222 9.82554 3.72222 9.72286 3.72222 9.51749V8.09325C3.72222 7.75575 3.44862 7.48214 3.11111 7.48214C2.7736 7.48214 2.5 7.20854 2.5 6.87103V6.34917C2.5 6.3005 2.5 6.27616 2.50112 6.25255C2.5109 6.04568 2.58468 5.84695 2.71225 5.6838C2.72681 5.66518 2.74269 5.64675 2.77444 5.60988L2.77445 5.60986L3.33464 4.95934C3.4781 4.79275 3.54983 4.70945 3.60093 4.61539C3.64626 4.53195 3.67947 4.44249 3.69956 4.34969C3.72222 4.24507 3.72222 4.13515 3.72222 3.91529V2.35C3.72222 1.78995 3.72222 1.50992 3.83122 1.29601C3.92709 1.10785 4.08007 0.954867 4.26823 0.858993C4.48214 0.75 4.76217 0.75 5.32222 0.75H11.9C12.4601 0.75 12.7401 0.75 12.954 0.858993C13.1422 0.954867 13.2951 1.10785 13.391 1.29601C13.5 1.50992 13.5 1.78995 13.5 2.35Z" stroke="white" stroke-width="1.5"/>
</svg>
