<svg width="16" height="16" viewBox="0 0 16 16" fill="none" xmlns="http://www.w3.org/2000/svg">
<g clip-path="url(#clip0_151_3847)">
<path d="M13.1843 6.5291L3.84483 2.51964C2.49129 1.93857 1.81452 1.64803 1.44363 1.7815C1.12286 1.89693 0.883 2.16782 0.807243 2.5002C0.719649 2.88452 1.08997 3.52114 1.83062 4.79439L3.22701 7.19492C3.39754 7.48809 3.48281 7.63467 3.51614 7.79063C3.54563 7.92861 3.54559 8.07127 3.51602 8.20923C3.48259 8.36517 3.39724 8.5117 3.22653 8.80477L1.82933 11.2034C1.08736 12.4771 0.716371 13.114 0.803816 13.4985C0.879442 13.831 1.11927 14.102 1.44008 14.2175C1.81102 14.3511 2.48833 14.0604 3.84293 13.479L3.84295 13.479L13.1842 9.46964C14.2638 9.00624 14.8036 8.77454 14.9675 8.44887C15.1098 8.16614 15.1098 7.83275 14.9675 7.55001C14.8037 7.22432 14.2639 6.99258 13.1843 6.5291Z" stroke="white" stroke-width="1.5" stroke-linecap="round"/>
</g>
<defs>
<clipPath id="clip0_151_3847">
<rect width="16" height="16" fill="white"/>
</clipPath>
</defs>
</svg>
