<svg width="16" height="16" viewBox="0 0 16 16" fill="none" xmlns="http://www.w3.org/2000/svg">
<g clip-path="url(#clip0_151_3848)">
<path d="M1.63526 5.975L3.06397 3.50039C3.59407 2.58224 3.78273 2.27289 4.0266 2.05331C4.26093 1.84232 4.53698 1.68294 4.83686 1.58551C5.14896 1.4841 5.5112 1.47538 6.57138 1.47538L9.42881 1.47538C10.489 1.47538 10.8512 1.4841 11.1633 1.58551C11.4632 1.68294 11.7393 1.84232 11.9736 2.05331C12.2175 2.27289 12.4061 2.58224 12.9362 3.50038L14.3649 5.97499C14.895 6.89314 15.0686 7.2112 15.1368 7.53219C15.2024 7.84062 15.2024 8.15937 15.1368 8.4678C15.0686 8.78879 14.895 9.10685 14.3649 10.025L12.9362 12.4996C12.4061 13.4178 12.2175 13.7271 11.9736 13.9467C11.7393 14.1577 11.4632 14.317 11.1633 14.4145C10.8512 14.5159 10.489 14.5246 9.42882 14.5246L6.57138 14.5246C5.5112 14.5246 5.14896 14.5159 4.83686 14.4145C4.53698 14.317 4.26093 14.1577 4.0266 13.9467C3.78273 13.7271 3.59407 13.4178 3.06398 12.4996L1.63526 10.025C1.10517 9.10685 0.931596 8.78879 0.863367 8.4678C0.79781 8.15938 0.79781 7.84062 0.863367 7.5322C0.931596 7.2112 1.10517 6.89314 1.63526 5.975Z" stroke="white" stroke-width="1.5"/>
<rect x="5.75" y="5.75" width="4.5" height="4.5" rx="2.25" stroke="white" stroke-width="1.5"/>
</g>
<defs>
<clipPath id="clip0_151_3848">
<rect width="16" height="16" fill="white"/>
</clipPath>
</defs>
</svg>
