<svg width="16" height="16" viewBox="0 0 16 16" fill="none" xmlns="http://www.w3.org/2000/svg">
<g clip-path="url(#clip0_151_3906)">
<path d="M5 0.749923L6 0.749878L11 0.750006C11.2322 0.750012 11.3483 0.750015 11.4465 0.754839C13.5012 0.855876 15.1442 2.49895 15.2452 4.55366C15.25 4.65178 15.25 4.76789 15.25 5.00011V8.84995C15.25 11.0902 15.25 12.2103 14.814 13.066C14.4305 13.8187 13.8186 14.4306 13.0659 14.8141C12.2102 15.25 11.0901 15.25 8.84985 15.25H8.84984L6 15.2499C4.83794 15.2499 4.25691 15.25 3.77841 15.1301C2.3465 14.7716 1.22845 13.6536 0.869837 12.2217C0.75 11.7432 0.75 11.1622 0.75 10.0001V5.00011C0.75 4.76782 0.75 4.65167 0.754825 4.55352C0.855837 2.49889 2.49878 0.855873 4.5534 0.754768C4.65155 0.749939 4.7677 0.749933 5 0.749923Z" stroke="white" stroke-width="1.5" stroke-linecap="round" stroke-linejoin="round"/>
<path d="M6 0V16M0 5H16" stroke="white" stroke-width="1.5" stroke-linecap="round" stroke-linejoin="round"/>
</g>
<defs>
<clipPath id="clip0_151_3906">
<rect width="16" height="16" fill="white"/>
</clipPath>
</defs>
</svg>
