<svg width="16" height="16" viewBox="0 0 16 16" fill="none" xmlns="http://www.w3.org/2000/svg">
<g clip-path="url(#clip0_151_3988)">
<path d="M7.38625 13.5798H4.11162C2.99152 13.5798 2.43146 13.5798 2.00364 13.3618C1.62732 13.1701 1.32135 12.8641 1.12961 12.4878C0.911621 12.0599 0.911621 11.4999 0.911621 10.3798V4.05001C0.911621 2.9299 0.911621 2.36985 1.12961 1.94203C1.32135 1.5657 1.62732 1.25974 2.00364 1.06799C2.43146 0.850006 2.99152 0.850006 4.11162 0.850006H7.38625C8.50636 0.850006 9.06641 0.850006 9.49423 1.06799C9.87056 1.25974 10.1765 1.5657 10.3683 1.94203C10.5863 2.36985 10.5863 2.9299 10.5863 4.05001V10.3798C10.5863 11.4999 10.5863 12.0599 10.3683 12.4878C10.1765 12.8641 9.87056 13.1701 9.49423 13.3618C9.06641 13.5798 8.50636 13.5798 7.38625 13.5798Z" stroke="white" stroke-width="1.5"/>
<path d="M4.56735 13.5798L9.20256 14.8218C10.2845 15.1117 10.8255 15.2566 11.2951 15.1568C11.7083 15.069 12.083 14.8527 12.3656 14.5388C12.6869 14.182 12.8318 13.641 13.1217 12.559L14.76 6.44496C15.0499 5.36302 15.1949 4.82205 15.095 4.35238C15.0072 3.93925 14.7909 3.56453 14.477 3.28191C14.1202 2.96063 13.5792 2.81567 12.4973 2.52577L10.5863 2.01373" stroke="white" stroke-width="1.5"/>
</g>
<defs>
<clipPath id="clip0_151_3988">
<rect width="16" height="16" fill="white"/>
</clipPath>
</defs>
</svg>
