<svg width="16" height="16" viewBox="0 0 16 16" fill="none" xmlns="http://www.w3.org/2000/svg">
<g clip-path="url(#clip0_151_3826)">
<path d="M7.2392 2.21307C7.4702 1.50214 7.58569 1.14668 7.75917 1.05131C7.90917 0.968848 8.09093 0.968848 8.24093 1.05131C8.4144 1.14668 8.5299 1.50214 8.76089 2.21307L9.77371 5.3302C9.83826 5.52887 9.87054 5.6282 9.93134 5.70169C9.98502 5.76659 10.0542 5.81687 10.1325 5.84787C10.2212 5.88298 10.3257 5.88298 10.5346 5.88298H13.8121C14.5596 5.88298 14.9334 5.88298 15.0777 6.0185C15.2025 6.13567 15.2586 6.30853 15.2265 6.47667C15.1894 6.67113 14.8871 6.89082 14.2823 7.33019L11.6307 9.25668C11.4617 9.37947 11.3772 9.44086 11.3261 9.52139C11.281 9.5925 11.2546 9.67386 11.2493 9.75791C11.2433 9.8531 11.2756 9.95244 11.3401 10.1511L12.3529 13.2682C12.5839 13.9792 12.6994 14.3346 12.6151 14.5137C12.5423 14.6686 12.3952 14.7755 12.2254 14.7969C12.029 14.8217 11.7266 14.602 11.1219 14.1627L8.47028 12.2362C8.30128 12.1134 8.21678 12.052 8.12439 12.0283C8.04282 12.0073 7.95728 12.0073 7.8757 12.0283C7.78332 12.052 7.69882 12.1134 7.52982 12.2362L4.87823 14.1627C4.27349 14.602 3.97111 14.8217 3.77471 14.7969C3.60489 14.7755 3.45784 14.6686 3.38496 14.5137C3.30067 14.3346 3.41617 13.9792 3.64716 13.2682L4.65998 10.1511C4.72453 9.95244 4.75681 9.8531 4.75082 9.75791C4.74553 9.67386 4.71909 9.5925 4.67397 9.52139C4.62286 9.44086 4.53836 9.37947 4.36936 9.25668L1.71777 7.33019C1.11302 6.89082 0.81065 6.67113 0.773555 6.47667C0.741481 6.30853 0.797647 6.13567 0.922425 6.0185C1.06673 5.88298 1.44049 5.88298 2.188 5.88298H5.46554C5.67444 5.88298 5.77889 5.88298 5.86757 5.84787C5.94587 5.81687 6.01508 5.76659 6.06876 5.70169C6.12956 5.6282 6.16184 5.52887 6.22639 5.33019L7.2392 2.21307Z" stroke="white" stroke-width="1.5"/>
</g>
<defs>
<clipPath id="clip0_151_3826">
<rect width="16" height="16" fill="white"/>
</clipPath>
</defs>
</svg>
