<svg width="16" height="16" viewBox="0 0 16 16" fill="none" xmlns="http://www.w3.org/2000/svg">
<g clip-path="url(#clip0_151_3983)">
<path d="M6.40024 0.750031L9.6001 0.750031C10.7326 0.750031 11.5369 0.750614 12.1663 0.802038C12.7869 0.852747 13.1712 0.949129 13.4756 1.10427C14.0872 1.41587 14.5844 1.91307 14.8959 2.52461C15.0511 2.82909 15.1475 3.21334 15.1982 3.83399C15.2496 4.46338 15.2501 5.26765 15.2501 6.40016L15.2501 8.3491C15.25 9.36313 15.2452 9.74791 15.1602 10.1019C15.0806 10.4335 14.9493 10.7505 14.7711 11.0412C14.5809 11.3516 14.3122 11.6271 13.5952 12.3441L12.3442 13.5952C11.6271 14.3122 11.3516 14.5809 11.0413 14.7711C10.7505 14.9493 10.4335 15.0806 10.1018 15.1602C9.74789 15.2452 9.3631 15.25 8.34904 15.25L6.40026 15.25C5.26778 15.25 4.46352 15.2494 3.83414 15.198C3.21351 15.1473 2.82925 15.0509 2.52478 14.8958C1.91325 14.5842 1.41606 14.087 1.10447 13.4755C0.949337 13.171 0.852958 12.7868 0.80225 12.1661C0.750828 11.5368 0.750244 10.7325 0.750244 9.60001L0.750244 6.40003C0.750244 5.26755 0.750828 4.4633 0.80225 3.83391C0.852958 3.21328 0.949336 2.82903 1.10447 2.52456C1.41606 1.91303 1.91325 1.41585 2.52478 1.10426C2.82925 0.949123 3.2135 0.852744 3.83413 0.802036C4.46351 0.750614 5.26776 0.750031 6.40024 0.750031Z" stroke="white" stroke-width="1.5"/>
<path d="M15.0002 9.99997H13.2002C12.0801 9.99997 11.5201 9.99997 11.0923 10.218C10.7159 10.4097 10.41 10.7157 10.2182 11.092C10.0002 11.5198 10.0002 12.0799 10.0002 13.2V15" stroke="white" stroke-width="1.5"/>
</g>
<defs>
<clipPath id="clip0_151_3983">
<rect width="16" height="16" fill="white"/>
</clipPath>
</defs>
</svg>
