<svg width="16" height="16" viewBox="0 0 16 16" fill="none" xmlns="http://www.w3.org/2000/svg">
<g clip-path="url(#clip0_151_4298)">
<path d="M10.45 0.75H5.55C3.86984 0.75 3.02976 0.75 2.38803 1.07698C1.82354 1.3646 1.3646 1.82354 1.07698 2.38803C0.75 3.02976 0.75 3.86984 0.75 5.55V10.45C0.75 12.1302 0.75 12.9702 1.07698 13.612C1.3646 14.1765 1.82354 14.6354 2.38803 14.923C3.02976 15.25 3.86984 15.25 5.55 15.25H10.0118C10.7455 15.25 11.1124 15.25 11.4577 15.1671C11.7638 15.0936 12.0564 14.9724 12.3249 14.8079C12.6276 14.6224 12.887 14.363 13.4059 13.8441L13.8441 13.4059C14.363 12.887 14.6224 12.6276 14.8079 12.3249C14.9724 12.0564 15.0936 11.7638 15.1671 11.4577C15.25 11.1124 15.25 10.7455 15.25 10.0118V5.55C15.25 3.86984 15.25 3.02976 14.923 2.38803C14.6354 1.82354 14.1765 1.3646 13.612 1.07698C12.9702 0.75 12.1302 0.75 10.45 0.75Z" stroke="white" stroke-width="1.5" stroke-linecap="round" stroke-linejoin="round"/>
<path d="M5.10083 9.45026C5.10083 9.45026 6.18821 11.0209 8.00071 11.0209C9.81321 11.0209 10.9008 9.45026 10.9008 9.45026" stroke="white" stroke-width="1.5" stroke-linecap="round" stroke-linejoin="round"/>
<path d="M5.8252 5.82526H5.83103" stroke="white" stroke-width="1.5" stroke-linecap="round" stroke-linejoin="round"/>
<path d="M10.175 5.82526H10.1809" stroke="white" stroke-width="1.5" stroke-linecap="round" stroke-linejoin="round"/>
</g>
<defs>
<clipPath id="clip0_151_4298">
<rect width="16" height="16" fill="white"/>
</clipPath>
</defs>
</svg>
