<svg width="16" height="16" viewBox="0 0 16 16" fill="none" xmlns="http://www.w3.org/2000/svg">
<path d="M11.75 14L12.125 12.2857M15.25 14L14.875 12.2857M12.125 12.2857L12.3026 11.4737V11.4737C12.4716 10.7014 12.556 10.3152 12.6328 10.1816C13.0172 9.51218 13.9828 9.51218 14.3672 10.1816C14.444 10.3152 14.5284 10.7014 14.6974 11.4737V11.4737L14.875 12.2857M12.125 12.2857H14.875" stroke="white" stroke-width="1.5" stroke-linecap="round"/>
<path d="M0.75 13.2857L2.01316 9.81202M8.75 13.2857L7.48684 9.81202M2.01316 9.81202L3.24633 6.42079C3.70973 5.14646 3.94142 4.50929 4.28042 4.32899C4.574 4.17284 4.926 4.17284 5.21958 4.32899C5.55858 4.50929 5.79027 5.14646 6.25367 6.4208L7.48684 9.81202M2.01316 9.81202H7.48684" stroke="white" stroke-width="1.5" stroke-linecap="round"/>
</svg>
