<svg width="16" height="16" viewBox="0 0 16 16" fill="none" xmlns="http://www.w3.org/2000/svg">
<path d="M11.75 6L12.125 4.28571M15.25 6L14.875 4.28571M12.125 4.28571L12.3026 3.47368V3.47368C12.4716 2.70139 12.556 2.31524 12.6328 2.18156C13.0172 1.51218 13.9828 1.51218 14.3672 2.18156C14.444 2.31524 14.5284 2.70139 14.6974 3.47368V3.47368L14.875 4.28571M12.125 4.28571H14.875" stroke="white" stroke-width="1.5" stroke-linecap="round"/>
<path d="M0.75 13.2857L2.01316 9.81202M8.75 13.2857L7.48684 9.81202M2.01316 9.81202L3.24633 6.42079C3.70973 5.14646 3.94142 4.50929 4.28042 4.32899C4.574 4.17284 4.926 4.17284 5.21958 4.32899C5.55858 4.50929 5.79027 5.14646 6.25367 6.4208L7.48684 9.81202M2.01316 9.81202H7.48684" stroke="white" stroke-width="1.5" stroke-linecap="round"/>
</svg>
