<svg width="16" height="16" viewBox="0 0 16 16" fill="none" xmlns="http://www.w3.org/2000/svg">
<g clip-path="url(#clip0_151_3883)">
<path d="M0.75 15.25L3.80263 12.1974M3.80263 12.1974H5.52978C6.01896 12.1974 6.26355 12.1974 6.49373 12.1421C6.6978 12.0931 6.89289 12.0123 7.07183 11.9026C7.27367 11.779 7.44662 11.606 7.79252 11.2601L12.9605 6.09211M3.80263 12.1974V10.4702C3.80263 9.98104 3.80263 9.73645 3.85789 9.50627C3.90689 9.3022 3.98769 9.10711 4.09735 8.92817C4.22103 8.72633 4.39399 8.55338 4.73989 8.20748L9.90789 3.03947M12.9605 6.09211L14.4868 7.61842M12.9605 6.09211L11.4342 4.56579M9.90789 3.03947L8.38158 1.51316M9.90789 3.03947L11.4342 4.56579M11.4342 4.56579L13.7237 2.27632M13.7237 2.27632L12.1974 0.75M13.7237 2.27632L15.25 3.80263" stroke="white" stroke-width="1.5" stroke-linecap="round"/>
</g>
<defs>
<clipPath id="clip0_151_3883">
<rect width="16" height="16" fill="white"/>
</clipPath>
</defs>
</svg>
