<svg width="16" height="16" viewBox="0 0 16 16" fill="none" xmlns="http://www.w3.org/2000/svg">
<g clip-path="url(#clip0_151_3911)">
<rect x="3.5" y="3.5" width="1" height="1" rx="0.5" fill="white" stroke="white"/>
<path d="M14.8973 8.30477L15.6079 8.07384L14.8973 8.30478C15.0442 8.75669 15.0442 9.24351 14.8974 9.69544C14.8289 9.90629 14.6934 10.1396 14.3986 10.4868C14.0982 10.8407 13.6784 11.2613 13.0755 11.8641L11.8635 13.0762C11.2608 13.6788 10.8403 14.0985 10.4865 14.3989C10.1394 14.6936 9.90616 14.8291 9.69536 14.8976C9.24352 15.0444 8.7568 15.0445 8.30494 14.8977C8.09412 14.8292 7.86086 14.6938 7.5137 14.3992C7.15985 14.0989 6.73924 13.6792 6.13646 13.0767L1.96301 8.90469L1.96299 8.90467L1.96291 8.9046L1.9629 8.90458C1.40816 8.35004 1.22244 8.15731 1.09264 7.94357C0.967886 7.73813 0.876856 7.51403 0.823008 7.2798C0.76698 7.03608 0.765696 6.76843 0.77658 5.98411L0.793771 4.74526C0.805452 3.90344 0.814168 3.31691 0.857634 2.86042C0.900259 2.41277 0.971705 2.15551 1.07344 1.96056C1.29128 1.54309 1.63461 1.20449 2.05506 0.992461C2.25141 0.893444 2.50963 0.825573 2.95783 0.789163C3.41487 0.752034 4.00147 0.751456 4.84337 0.751454L6.01196 0.751451L6.01195 0.00145133L6.01196 0.751451C6.78132 0.751449 7.04378 0.756267 7.28262 0.813599C7.51217 0.868702 7.73162 0.959588 7.93292 1.08292C8.14236 1.21124 8.33137 1.3934 8.87545 1.93737L13.0752 6.13627C13.6781 6.73904 14.098 7.15964 14.3985 7.5135C14.6932 7.86066 14.8288 8.09394 14.8973 8.30477Z" stroke="white" stroke-width="1.5"/>
</g>
<defs>
<clipPath id="clip0_151_3911">
<rect width="16" height="16" fill="white"/>
</clipPath>
</defs>
</svg>
