<svg width="16" height="16" viewBox="0 0 16 16" fill="none" xmlns="http://www.w3.org/2000/svg">
<path d="M10.2761 3.68133C8.05191 4.60521 1.6388 7.22913 1.6388 7.22913C0.118948 7.82029 1.00874 8.37472 1.00874 8.37472C1.00874 8.37472 2.30619 8.81815 3.41828 9.15077C4.53037 9.48338 5.1234 9.11383 5.1234 9.11383L11.314 5.82478C10.3503 6.7856 8.75624 8.30085 7.42175 9.52032C6.82862 10.0377 7.12519 10.4812 7.38472 10.7029C8.34848 11.5159 10.9804 13.1789 11.1287 13.2898C11.314 13.4377 12.3519 14.1029 12.9822 13.9551C13.6124 13.8072 13.6864 12.9572 13.6864 12.9572C13.6864 12.9572 14.1684 9.92691 14.6132 7.15516C14.9097 5.19648 15.2063 3.38565 15.2434 2.86825C15.3546 1.61185 14.0201 2.12915 14.0201 2.12915C14.0201 2.12915 11.1287 3.31178 10.2761 3.68133Z" stroke="white" stroke-width="1.5" stroke-linejoin="round"/>
</svg>
