<svg width="16" height="16" viewBox="0 0 16 16" fill="none" xmlns="http://www.w3.org/2000/svg">
<path d="M6.2 3.75H9.8C10.3724 3.75 10.7566 3.75058 11.0525 3.77476C11.3396 3.79822 11.4769 3.8401 11.5675 3.88624C11.8027 4.00608 11.9939 4.19731 12.1138 4.43251C12.1599 4.52307 12.2018 4.66035 12.2252 4.94748C12.2494 5.24336 12.25 5.62757 12.25 6.2V11C12.25 13.3472 10.3472 15.25 8 15.25C5.65279 15.25 3.75 13.3472 3.75 11V6.2C3.75 5.62757 3.75058 5.24336 3.77476 4.94748C3.79822 4.66035 3.8401 4.52307 3.88624 4.43251C4.00608 4.19731 4.19731 4.00608 4.43251 3.88624C4.52307 3.8401 4.66035 3.79822 4.94748 3.77476C5.24336 3.75058 5.62757 3.75 6.2 3.75Z" stroke="white" stroke-width="1.5"/>
<path d="M6 3.75V2.35C6 1.78995 6 1.50992 6.10899 1.29601C6.20487 1.10785 6.35785 0.954867 6.54601 0.858993C6.75992 0.75 7.03995 0.75 7.6 0.75H8.4C8.96005 0.75 9.24008 0.75 9.45399 0.858993C9.64215 0.954867 9.79513 1.10785 9.89101 1.29601C10 1.50992 10 1.78995 10 2.35V3.75" stroke="white" stroke-width="1.5"/>
</svg>
