<svg width="16" height="16" viewBox="0 0 16 16" fill="none" xmlns="http://www.w3.org/2000/svg">
<path d="M1.39171 9.76803C1.91306 9.35727 2.25 8.71777 2.25 8C2.25 7.28223 1.91306 6.64273 1.39171 6.23197C1.17647 6.06239 1.00341 5.91441 0.883025 5.76634C0.765929 5.62232 0.75 5.54043 0.75 5.5V4C0.75 3.86193 0.861929 3.75 1 3.75H8H15C15.1381 3.75 15.25 3.86193 15.25 4V5.5C15.25 5.54043 15.2341 5.62232 15.117 5.76634C14.9966 5.91441 14.8235 6.06239 14.6083 6.23197C14.0869 6.64273 13.75 7.28223 13.75 8C13.75 8.71777 14.0869 9.35727 14.6083 9.76803C14.8235 9.93761 14.9966 10.0856 15.117 10.2337C15.2341 10.3777 15.25 10.4596 15.25 10.5V12C15.25 12.1381 15.1381 12.25 15 12.25H8H1C0.861929 12.25 0.75 12.1381 0.75 12V10.5C0.75 10.4596 0.765929 10.3777 0.883025 10.2337C1.00341 10.0856 1.17647 9.93761 1.39171 9.76803Z" stroke="white" stroke-width="1.5"/>
<path d="M9.25 5C9.25 5.41421 9.58579 5.75 10 5.75C10.4142 5.75 10.75 5.41421 10.75 5H9.25ZM9.25 3V5H10.75V3H9.25Z" fill="white"/>
<path d="M10.75 11C10.75 10.5858 10.4142 10.25 10 10.25C9.58579 10.25 9.25 10.5858 9.25 11H10.75ZM10.75 13V11H9.25V13H10.75Z" fill="white"/>
<path d="M10 8.5V7.5" stroke="white" stroke-width="1.5" stroke-linecap="round"/>
</svg>
