<svg width="16" height="16" viewBox="0 0 16 16" fill="none" xmlns="http://www.w3.org/2000/svg">
<path d="M5.25 3H3.95C2.8299 3 2.26984 3 1.84202 3.21799C1.46569 3.40973 1.15973 3.71569 0.967987 4.09202C0.75 4.51984 0.75 5.07989 0.75 6.2V9.8C0.75 10.9201 0.75 11.4802 0.967987 11.908C1.15973 12.2843 1.46569 12.5903 1.84202 12.782C2.26984 13 2.8299 13 3.95 13H5.25" stroke="white" stroke-width="1.5" stroke-linecap="round"/>
<path d="M8 0.75V15.25" stroke="white" stroke-width="1.5" stroke-linecap="round"/>
<path d="M10.75 3H13.25C14.3546 3 15.25 3.89543 15.25 5V11C15.25 12.1046 14.3546 13 13.25 13H10.75" stroke="white" stroke-width="1.5" stroke-linecap="round" stroke-dasharray="1 3"/>
</svg>
