<svg width="16" height="16" viewBox="0 0 16 16" fill="none" xmlns="http://www.w3.org/2000/svg">
<g clip-path="url(#clip0_151_3991)">
<path d="M11.25 3.65001V3.65001C11.168 3.24024 11.1271 3.03536 11.0636 2.87248C10.7453 2.05629 9.93296 1.5422 9.05911 1.604C8.88472 1.61633 8.68202 1.667 8.27661 1.76836L3.17389 3.04404C2.30722 3.2607 1.87389 3.36904 1.55124 3.61063C1.26657 3.82379 1.04388 4.10901 0.906127 4.43688C0.75 4.80849 0.75 5.25516 0.75 6.14849V6.65001" stroke="white" stroke-width="1.5" stroke-linecap="round"/>
<path d="M13.25 11.65V11.65C13.25 12.5819 13.25 13.0478 13.0978 13.4154C12.8948 13.9054 12.5054 14.2948 12.0154 14.4978C11.6478 14.65 11.1819 14.65 10.25 14.65H3.95C2.8299 14.65 2.26984 14.65 1.84202 14.432C1.46569 14.2403 1.15973 13.9343 0.967987 13.558C0.75 13.1302 0.75 12.5701 0.75 11.45V6.85001C0.75 5.7299 0.75 5.16985 0.967987 4.74203C1.15973 4.3657 1.46569 4.05974 1.84202 3.868C2.26984 3.65001 2.8299 3.65001 3.95 3.65001H10.25C11.1819 3.65001 11.6478 3.65001 12.0154 3.80225C12.5054 4.00524 12.8948 4.39459 13.0978 4.88464C13.25 5.25218 13.25 5.71813 13.25 6.65001V6.65001" stroke="white" stroke-width="1.5" stroke-linecap="round"/>
<rect x="11.25" y="6.90001" width="4" height="4" rx="1" stroke="white" stroke-width="1.5"/>
</g>
<defs>
<clipPath id="clip0_151_3991">
<rect width="16" height="16" fill="white"/>
</clipPath>
</defs>
</svg>
