<svg width="16" height="16" viewBox="0 0 16 16" fill="none" xmlns="http://www.w3.org/2000/svg">
<g clip-path="url(#clip0_151_3821)">
<path d="M3.39619 13.196L6.69619 14.6683C7.17625 14.8825 7.41628 14.9896 7.66585 15.0319C7.88704 15.0693 8.11296 15.0693 8.33415 15.0319C8.58372 14.9896 8.82375 14.8825 9.30381 14.6683L9.30381 14.6683L12.6038 13.196C13.2902 12.8897 13.6334 12.7366 13.8851 12.495C14.1075 12.2815 14.2775 12.0194 14.3819 11.7293C14.5 11.4011 14.5 11.0253 14.5 10.2736V5.72635C14.5 4.97472 14.5 4.5989 14.3819 4.27068C14.2775 3.98055 14.1075 3.71848 13.8851 3.50494C13.6334 3.26338 13.2902 3.11025 12.6038 2.80401L9.30381 1.33171C8.82375 1.11753 8.58372 1.01044 8.33415 0.968147C8.11296 0.930666 7.88704 0.930666 7.66585 0.968148C7.41629 1.01044 7.17626 1.11753 6.6962 1.33171L6.69619 1.33171L3.39619 2.80402C2.70977 3.11026 2.36657 3.26339 2.11493 3.50496C1.89251 3.71849 1.72246 3.98056 1.61808 4.27069C1.5 4.59891 1.5 4.97473 1.5 5.72636V10.2737C1.5 11.0253 1.5 11.4011 1.61808 11.7293C1.72246 12.0195 1.89251 12.2815 2.11493 12.4951C2.36657 12.7366 2.70977 12.8897 3.39619 13.196Z" stroke="white" stroke-width="1.5" stroke-linecap="round" stroke-linejoin="round"/>
<rect x="7.25" y="4" width="1.5" height="4.5" rx="0.75" fill="white"/>
<rect x="7.25" y="10.5" width="1.5" height="1.5" rx="0.75" fill="white"/>
</g>
<defs>
<clipPath id="clip0_151_3821">
<rect width="16" height="16" fill="white"/>
</clipPath>
</defs>
</svg>
