<?xml version="1.0" encoding="UTF-8" standalone="no"?>
<svg
   width="16"
   height="16"
   viewBox="0 0 16 16"
   fill="none"
   version="1.1"
   id="svg1"
   sodipodi:docname="WiiU.svg"
   inkscape:version="1.4 (e7c3feb100, 2024-10-09)"
   xmlns:inkscape="http://www.inkscape.org/namespaces/inkscape"
   xmlns:sodipodi="http://sodipodi.sourceforge.net/DTD/sodipodi-0.dtd"
   xmlns="http://www.w3.org/2000/svg"
   xmlns:svg="http://www.w3.org/2000/svg">
  <defs
     id="defs1" />
  <sodipodi:namedview
     id="namedview1"
     pagecolor="#ffffff"
     bordercolor="#000000"
     borderopacity="0.25"
     inkscape:showpageshadow="2"
     inkscape:pageopacity="0.0"
     inkscape:pagecheckerboard="0"
     inkscape:deskcolor="#d1d1d1"
     inkscape:zoom="4"
     inkscape:cx="-39.75"
     inkscape:cy="-34"
     inkscape:window-width="1920"
     inkscape:window-height="1051"
     inkscape:window-x="0"
     inkscape:window-y="-8"
     inkscape:window-maximized="1"
     inkscape:current-layer="svg1" />
  <path
     d="m 5.5,2.7543402 v 3.5752 c 0,1.67658 0.82342,2.7857098 2.5,2.7857098 1.67658,0 2.5,-1.1091298 2.5,-2.7857098 v -3.5752 c 1.1178,0.00645 2.1645,0.03772 2.5734,0.18079 0.9336,0.32666 1.6676,1.06066 1.9942,1.99421 0.1718,0.49089 0.1824,1.12898 0.1824,2.78769 v 0.28572 c 0,0.94215 -4e-4,1.61119 -0.0363,2.1375998 -0.0355,0.5196 -0.103,0.8452 -0.2111,1.1061 -0.3298,0.7964 -0.9625,1.4291 -1.7589,1.7589 -0.2609,0.1081 -0.5865,0.1756 -1.1061,0.2111 -0.5264,0.0359 -1.1955,0.0363 -2.1376,0.0363 H 6 c -0.94214,0 -1.61119,-4e-4 -2.13757,-0.0363 C 3.34279,13.18095 3.0172,13.11345 2.75628,13.00535 1.95994,12.67555 1.32725,12.04285 0.997392,11.24645 0.889313,10.98555 0.821775,10.65995 0.786321,10.14035 0.750406,9.6139402 0.75,8.9449002 0.75,8.0027502 v -0.28572 c 0,-1.65871 0.010609,-2.2968 0.182379,-2.78769 0.326661,-0.93355 1.060661,-1.66755 1.994211,-1.99421 0.40888,-0.14307 1.45558,-0.17434 2.57341,-0.18079 z"
     stroke="white"
     stroke-width="1.5"
     id="path1"
     style="stroke:#000000;stroke-opacity:1"
     sodipodi:nodetypes="cssscscssccccssccccssccc" />
  <path
     style="fill:#000000;stroke:#000000;stroke-width:1.5;stroke-dasharray:none;stroke-opacity:1"
     d="m 5.5,2.75 h 5"
     id="path2"
     sodipodi:nodetypes="cc" />
</svg>
