<svg width="16" height="16" viewBox="0 0 16 16" fill="none" xmlns="http://www.w3.org/2000/svg">
<path d="M6.25398 2.5272C6.42244 2.35774 6.63016 2.23252 6.85867 2.16269C7.08719 2.09285 7.32942 2.08056 7.56383 2.1269C7.79824 2.17324 8.01756 2.27678 8.20231 2.42832C8.38706 2.57985 8.53151 2.77469 8.62282 2.9955C8.71412 3.21632 8.74945 3.45627 8.72567 3.69403C8.70189 3.93179 8.61973 4.15999 8.48651 4.35835C8.35328 4.5567 8.1731 4.71907 7.962 4.83101C7.75089 4.94295 7.5154 5.001 7.27646 5H0.75M8.42947 13.4728C8.59793 13.6423 8.80565 13.7675 9.03416 13.8373C9.26267 13.9072 9.5049 13.9194 9.73931 13.8731C9.97372 13.8268 10.193 13.7232 10.3778 13.5717C10.5626 13.4202 10.707 13.2253 10.7983 13.0045C10.8896 12.7837 10.9249 12.5437 10.9012 12.306C10.8774 12.0682 10.7952 11.84 10.662 11.6417C10.5288 11.4433 10.3486 11.2809 10.1375 11.169C9.92638 11.0571 9.69089 10.999 9.45195 11H0.75M12.1568 4.90356C12.3677 4.69318 12.6272 4.53802 12.9124 4.4518C13.1975 4.36557 13.4995 4.35095 13.7917 4.40921C14.0838 4.46748 14.3571 4.59683 14.5874 4.78585C14.8176 4.97486 14.9977 5.2177 15.1118 5.4929C15.2259 5.76809 15.2704 6.06716 15.2414 6.36364C15.2124 6.66012 15.1108 6.94489 14.9455 7.19276C14.7803 7.44062 14.5565 7.64394 14.2939 7.78474C14.0314 7.92554 13.7382 7.99948 13.4403 8.00001H0.75" stroke="white" stroke-width="1.5" stroke-linecap="round" stroke-linejoin="round"/>
</svg>
