<svg width="16" height="16" viewBox="0 0 16 16" fill="none" xmlns="http://www.w3.org/2000/svg">
<g clip-path="url(#clip0_151_3964)">
<path d="M9.67762 4.0335C9.53783 4.17612 9.45953 4.36787 9.45953 4.56757C9.45953 4.76728 9.53783 4.95902 9.67762 5.10164L10.8984 6.32238C11.041 6.46217 11.2327 6.54047 11.4324 6.54047C11.6321 6.54047 11.8239 6.46217 11.9665 6.32238L14.8429 3.44602C15.2265 4.29381 15.3427 5.23839 15.1759 6.15387C15.009 7.06936 14.5672 7.91226 13.9092 8.57027C13.2512 9.22827 12.4083 9.67011 11.4928 9.83691C10.5773 10.0037 9.63275 9.88756 8.78496 9.50391L3.51292 14.776C3.20939 15.0795 2.79773 15.25 2.36848 15.25C1.93923 15.25 1.52757 15.0795 1.22404 14.776C0.920518 14.4724 0.75 14.0608 0.75 13.6315C0.75 13.2023 0.920518 12.7906 1.22404 12.4871L6.49609 7.21504C6.11244 6.36725 5.99628 5.42267 6.16309 4.50719C6.32989 3.5917 6.77173 2.7488 7.42973 2.0908C8.08774 1.43279 8.93064 0.990951 9.84613 0.824148C10.7616 0.657344 11.7062 0.773504 12.554 1.15715L9.68525 4.02587L9.67762 4.0335Z" stroke="white" stroke-width="1.5" stroke-linecap="round" stroke-linejoin="round"/>
</g>
<defs>
<clipPath id="clip0_151_3964">
<rect width="16" height="16" fill="white"/>
</clipPath>
</defs>
</svg>
