<svg width="16" height="16" viewBox="0 0 16 16" fill="none" xmlns="http://www.w3.org/2000/svg">
<path d="M6.54199 11.0838L6.47992 11.1746C5.99558 11.8828 5.14925 12.2521 4.30062 12.1256L3.47751 12.0029C2.59997 11.872 1.75945 11.4394 1.36744 10.6434C0.831188 9.55462 0.711437 8.45688 0.75979 7.53375C0.839338 6.01503 2.20538 5.09366 3.57274 4.42798C5.13721 3.66633 6.24633 3.66681 7.95457 3.66756L7.99656 3.66757L8.05326 3.6676C9.74388 3.66819 10.8371 3.66857 12.397 4.42798C13.7664 5.09466 15.1408 6.00751 15.2361 7.52762C15.2937 8.44573 15.185 9.53724 14.6608 10.6211C14.268 11.4332 13.411 11.8723 12.5185 12.0035L11.6686 12.1285C10.82 12.2532 9.97445 11.8832 9.49023 11.1752L9.4277 11.0838C9.28248 10.8714 9.09218 10.6938 8.87038 10.5635C8.32372 10.2422 7.64598 10.2422 7.09932 10.5634C6.87751 10.6938 6.68721 10.8715 6.54199 11.0838Z" stroke="white" stroke-width="1.5"/>
</svg>
