<svg width="16" height="16" viewBox="0 0 16 16" fill="none" xmlns="http://www.w3.org/2000/svg">
<g clip-path="url(#clip0_151_3798)">
<path d="M9.45352 3.81285H9.54827H13C14.2426 3.81285 15.25 4.82021 15.25 6.06285V11.8571C15.25 13.0998 14.2426 14.1071 13 14.1071H3C1.75736 14.1071 0.75 13.0998 0.75 11.8571V5.94619H5.76688C6.76145 5.94619 7.71527 5.5511 8.41853 4.84784L9.45352 3.81285ZM5.76688 4.44619H0.75V4.14285C0.75 2.90021 1.75736 1.89285 3 1.89285H5.85832C6.41416 1.89285 6.95033 2.0986 7.36349 2.47044L8.05355 3.0915L7.35787 3.78718C6.93592 4.20913 6.36362 4.44619 5.76688 4.44619Z" stroke="white" stroke-width="1.5"/>
<path d="M10.25 5.71427C10.25 6.12849 10.5858 6.46427 11 6.46427C11.4142 6.46427 11.75 6.12849 11.75 5.71427H10.25ZM10.25 3.42856V5.71427H11.75V3.42856H10.25Z" fill="white"/>
<path d="M11.75 12.5714C11.75 12.1572 11.4142 11.8214 11 11.8214C10.5858 11.8214 10.25 12.1572 10.25 12.5714H11.75ZM11.75 14.8571V12.5714H10.25V14.8571H11.75Z" fill="white"/>
<path d="M11 9.71429V8.57144" stroke="white" stroke-width="1.5" stroke-linecap="round"/>
</g>
<defs>
<clipPath id="clip0_151_3798">
<rect width="16" height="16" fill="white"/>
</clipPath>
</defs>
</svg>
