<svg width="16" height="16" viewBox="0 0 16 16" fill="none" xmlns="http://www.w3.org/2000/svg">
<path d="M9.09893 7.875C9.86873 9.20833 11.7932 9.20833 12.563 7.875L14.2951 4.875C15.0649 3.54167 14.1026 1.875 12.563 1.875H9.09893C7.55933 1.875 6.59708 3.54167 7.36688 4.875L9.09893 7.875Z" stroke="white" stroke-width="1.5"/>
<path fill-rule="evenodd" clip-rule="evenodd" d="M7.93917 14.125H7.97188H10.8311H10.8607H10.8608H10.8608C11.5358 14.125 12.0833 14.125 12.5157 14.0937C12.9508 14.0622 13.3634 13.9947 13.7248 13.8022C14.6372 13.3163 15.2 12.3598 15.1817 11.3262C15.1744 10.9168 15.033 10.5234 14.8493 10.1277C14.7439 9.90076 14.6107 9.64532 14.4539 9.35641C14.3611 9.18551 14.1172 9.1833 14.0199 9.35171L13.4291 10.375V10.375C13.3866 10.4486 13.382 10.5386 13.4195 10.6149C13.4442 10.665 13.4673 10.7132 13.4888 10.7596C13.6473 11.1007 13.6803 11.2629 13.6819 11.3528C13.6903 11.8226 13.4344 12.2574 13.0197 12.4783C12.9403 12.5206 12.7825 12.5704 12.4073 12.5976C12.0357 12.6245 11.5428 12.625 10.8311 12.625H7.97188C7.43421 12.625 7.0818 12.6242 6.80731 12.5987V12.5987C6.72189 12.5907 6.67645 12.4978 6.71811 12.4228L7.97198 10.1658C8.01465 10.089 8.01387 9.9955 7.96995 9.91942L7.38697 8.90967C7.28982 8.74141 7.04628 8.74342 6.95192 8.91326L5.69847 11.1695C5.60787 11.3326 5.3774 11.3423 5.27391 11.1871C5.27185 11.184 5.26979 11.1809 5.26772 11.1778L3.45518 8.45897C3.04902 7.84972 2.76632 7.42492 2.57569 7.09141C2.38161 6.7519 2.33404 6.59091 2.3251 6.50634C2.27125 5.99666 2.53398 5.50575 2.98793 5.26784C3.06325 5.22836 3.22359 5.17865 3.61374 5.1518C3.90894 5.13148 4.27951 5.12656 4.76885 5.12537C4.9613 5.12491 5.08161 4.91668 4.98539 4.75001L4.41063 3.75449C4.36548 3.67629 4.28165 3.62841 4.19136 3.62987C3.9384 3.63396 3.71196 3.64149 3.51075 3.65533C3.07068 3.68562 2.65238 3.75017 2.29163 3.93924C1.29293 4.46265 0.714928 5.54266 0.833405 6.66395C0.876201 7.06899 1.05452 7.45285 1.27343 7.83581C1.49279 8.21956 1.80465 8.68734 2.19125 9.26724L2.20711 9.29102L4.01964 12.0098L4.03778 12.037C4.27789 12.3972 4.487 12.7109 4.68438 12.9676C4.68971 12.9746 4.69041 12.984 4.68616 12.9916V12.9916C4.68029 13.0022 4.6841 13.0155 4.69466 13.0214L4.73873 13.0459C4.74689 13.0504 4.75409 13.0565 4.75994 13.0637L4.77018 13.0765C5.0076 13.3695 5.26432 13.6179 5.60391 13.7996C5.94349 13.9813 6.29257 14.0572 6.66806 14.0922C7.02036 14.125 7.44305 14.125 7.93913 14.125H7.93915H7.93917Z" fill="white"/>
</svg>
