<svg width="16" height="16" viewBox="0 0 16 16" fill="none" xmlns="http://www.w3.org/2000/svg">
<path d="M7.71313 9.7447C8.17188 9.99534 8.67917 10.1444 9.20059 10.1817C9.722 10.2191 10.2454 10.1438 10.7351 9.96113C11.2249 9.77843 11.6697 9.49253 12.0393 9.12282L14.2266 6.9355C14.8906 6.24794 15.2581 5.32707 15.2498 4.37122C15.2415 3.41537 14.8581 2.50102 14.1822 1.82511C13.5063 1.1492 12.5919 0.765799 11.6361 0.757493C10.6802 0.749186 9.75935 1.11664 9.07179 1.7807L7.81773 3.02748" stroke="white" stroke-width="1.5" stroke-linecap="round" stroke-linejoin="round"/>
<path d="M8.28679 6.25528C7.82804 6.00465 7.32076 5.8556 6.79934 5.81826C6.27792 5.78092 5.75458 5.85615 5.26479 6.03885C4.77501 6.22156 4.33024 6.50746 3.96067 6.87717L1.77335 9.06449C1.10928 9.75205 0.741832 10.6729 0.750138 11.6288C0.758444 12.5846 1.14184 13.499 1.81775 14.1749C2.49367 14.8508 3.40801 15.2342 4.36386 15.2425C5.31971 15.2508 6.24058 14.8833 6.92814 14.2193L8.17491 12.9725" stroke="white" stroke-width="1.5" stroke-linecap="round" stroke-linejoin="round"/>
</svg>
