<svg width="16" height="16" viewBox="0 0 16 16" fill="none" xmlns="http://www.w3.org/2000/svg">
<g clip-path="url(#clip0_151_5435)">
<path d="M7.82095 4.28982V4.28982C9.65874 2.45209 12.034 1.24733 14.6024 0.850137L14.6527 0.842366C14.9484 0.796631 15.2033 1.05154 15.1576 1.34729L15.1498 1.39754C14.7526 3.96599 13.5478 6.34122 11.7101 8.17894V8.17894M7.82095 4.28982L4.99252 7.11825M7.82095 4.28982L4.92094 4.41592C4.17108 4.44853 3.46068 4.76103 2.92994 5.29177L0.749893 7.47182L4.99252 7.11825M11.7101 8.17894L8.88164 11.0074M11.7101 8.17894L11.584 11.0789C11.5514 11.8288 11.2389 12.5392 10.7081 13.0699L8.52806 15.25L8.88164 11.0074M8.88164 11.0074L7.40228 11.9532C7.00673 12.2061 6.4885 12.1498 6.15651 11.8178L4.18215 9.8434C3.85017 9.51143 3.79384 8.99321 4.04672 8.59765L4.99252 7.11825" stroke="white" stroke-width="1.5" stroke-linecap="round" stroke-linejoin="round"/>
<path d="M10.4727 5.52727L10.4726 5.52734" stroke="white" stroke-width="1.5" stroke-linecap="round" stroke-linejoin="round"/>
</g>
<defs>
<clipPath id="clip0_151_5435">
<rect width="16" height="16" fill="white"/>
</clipPath>
</defs>
</svg>
