<svg width="16" height="16" viewBox="0 0 16 16" fill="none" xmlns="http://www.w3.org/2000/svg">
<path d="M5.24998 8L5.24998 7.93406C5.25002 5.38541 6.10599 2.9106 7.68059 0.906541V0.906541C7.84323 0.699539 8.15679 0.699534 8.31944 0.906533V0.906533C9.89411 2.9106 10.7501 5.38546 10.75 7.93416L10.75 8M5.24998 8V12M5.24998 8L3.28853 10.1398C2.78135 10.6931 2.5 11.4164 2.5 12.1669V15.25L5.24998 12M10.75 8V12M10.75 8L12.7115 10.1398C13.2186 10.6931 13.5 11.4164 13.5 12.1669L13.5 15.25L10.75 12M10.75 12L10.3728 13.7149C10.2719 14.1734 9.86561 14.5 9.39611 14.5L6.60393 14.5C6.13445 14.5 5.72818 14.1734 5.6273 13.7149L5.24998 12" stroke="white" stroke-width="1.5" stroke-linecap="round" stroke-linejoin="round"/>
<path d="M8 7V7.0001" stroke="white" stroke-width="1.5" stroke-linecap="round" stroke-linejoin="round"/>
</svg>
