<svg width="16" height="16" viewBox="0 0 16 16" fill="none" xmlns="http://www.w3.org/2000/svg">
<g clip-path="url(#clip0_151_5052)">
<path d="M10.5019 1.29721L7.5263 4.27281C7.37963 4.41948 7.30629 4.49282 7.22629 4.55783C7.15521 4.61559 7.08024 4.66841 7.00192 4.71589C6.91377 4.76934 6.82003 4.81371 6.63254 4.90245L3.34458 6.45866C3.21323 6.52082 3.09356 6.60513 2.99081 6.70789V6.70789C2.49615 7.20254 2.49615 8.00454 2.99081 8.49919L5.24577 10.7542M9.9768 0.772103L15.2278 6.02313M14.7027 5.49803L11.7271 8.47363C11.5805 8.6203 11.5071 8.69364 11.4421 8.77364C11.3843 8.84472 11.3315 8.91969 11.284 8.99801C11.2306 9.08616 11.1862 9.1799 11.0975 9.36739L9.54127 12.6553C9.4791 12.7867 9.3948 12.9064 9.29204 13.0091V13.0091C8.79739 13.5038 7.99539 13.5038 7.50074 13.0091L5.24577 10.7542M5.24577 10.7542L1.11183 14.8881" stroke="white" stroke-width="1.5" stroke-linecap="round"/>
</g>
<defs>
<clipPath id="clip0_151_5052">
<rect width="16" height="16" fill="white"/>
</clipPath>
</defs>
</svg>
