<svg width="16" height="16" viewBox="0 0 16 16" fill="none" xmlns="http://www.w3.org/2000/svg">
<path d="M10.8194 0.75V4.4121C10.8194 4.63182 10.8194 4.74169 10.8312 4.85016C10.8418 4.94653 10.8593 5.04201 10.8837 5.13583C10.9112 5.24145 10.9502 5.34413 11.0283 5.54951L12.1559 8.51474C12.2043 8.64193 12.2291 8.77688 12.2291 8.91296V8.91296C12.2291 9.53172 11.7275 10.0333 11.1087 10.0333H7.99992M11.5242 0.75L4.47561 0.75M5.18047 0.75V4.4121C5.18047 4.63182 5.18047 4.74169 5.1686 4.85016C5.15805 4.94653 5.14051 5.04201 5.11612 5.13583C5.08866 5.24145 5.04961 5.34413 4.97151 5.54951L3.84391 8.51474C3.79554 8.64193 3.77075 8.77688 3.77075 8.91296V8.91296C3.77075 9.53172 4.27235 10.0333 4.89111 10.0333H7.99992M7.99992 10.0333V15.25" stroke="white" stroke-width="1.5" stroke-linecap="round"/>
</svg>
