<svg width="16" height="16" viewBox="0 0 16 16" fill="none" xmlns="http://www.w3.org/2000/svg">
<g clip-path="url(#clip0_151_5235)">
<path d="M7.99995 0.75V12.35M7.99995 12.35V15.25M7.99995 12.35L10.175 14.525M7.99995 12.35L5.82495 14.525M10.175 1.475L7.99995 3.65L5.82495 1.475" stroke="white" stroke-width="1.5" stroke-linecap="round"/>
<path d="M1.72135 4.37533L4.23283 5.82533M4.23283 5.82533L11.7673 10.1753M4.23283 5.82533L3.43672 2.85422M4.23283 5.82533L1.26172 6.62143M11.7673 10.1753L14.2787 11.6253M11.7673 10.1753L14.7384 9.37919M11.7673 10.1753L12.5634 13.1464" stroke="white" stroke-width="1.5" stroke-linecap="round"/>
<path d="M14.2784 4.37533L11.767 5.82533M11.767 5.82533L4.23258 10.1753M11.767 5.82533L12.5631 2.85422M11.767 5.82533L14.7381 6.62143M4.23258 10.1753L1.7211 11.6253M4.23258 10.1753L1.26147 9.37919M4.23258 10.1753L3.43647 13.1464" stroke="white" stroke-width="1.5" stroke-linecap="round"/>
</g>
<defs>
<clipPath id="clip0_151_5235">
<rect width="16" height="16" fill="white"/>
</clipPath>
</defs>
</svg>
