<svg width="16" height="16" viewBox="0 0 16 16" fill="none" xmlns="http://www.w3.org/2000/svg">
<g clip-path="url(#clip0_151_5115)">
<path d="M9.05629 12.3326L13.6312 4.40869C13.9112 3.92367 14.0512 3.68116 14.0638 3.44141C14.0748 3.23052 14.0188 3.02155 13.9038 2.84444C13.773 2.64309 13.5305 2.50308 13.0455 2.22305L11.4546 1.30453C10.9696 1.02451 10.7271 0.884493 10.4873 0.871929C10.2764 0.860876 10.0674 0.916871 9.89034 1.03189C9.68899 1.16264 9.54898 1.40515 9.26895 1.89017L4.66877 9.85793C4.61234 9.95566 4.58413 10.0045 4.56171 10.0559C4.5418 10.1015 4.52531 10.1485 4.5124 10.1966C4.49787 10.2507 4.48941 10.3065 4.47249 10.4181L4.13061 12.6728C3.95352 13.8407 3.86497 14.4247 4.05596 14.7361C4.22175 15.0065 4.50596 15.1822 4.82191 15.2096C5.18589 15.2412 5.66868 14.901 6.63426 14.2205L8.59238 12.8404C8.69981 12.7647 8.75352 12.7268 8.80141 12.6828C8.84394 12.6436 8.883 12.6009 8.91815 12.555C8.95772 12.5033 8.99058 12.4464 9.05629 12.3326Z" stroke="white" stroke-width="1.5"/>
</g>
<defs>
<clipPath id="clip0_151_5115">
<rect width="16" height="16" fill="white"/>
</clipPath>
</defs>
</svg>
