<svg width="16" height="16" viewBox="0 0 16 16" fill="none" xmlns="http://www.w3.org/2000/svg">
<g clip-path="url(#clip0_151_5089)">
<path d="M10.3999 10.8427L10.3999 2.35C10.3999 1.78995 10.3999 1.50992 10.2909 1.29601C10.195 1.10785 10.0421 0.954867 9.85389 0.858993C9.63998 0.75 9.35996 0.75 8.7999 0.75L7.1999 0.75C6.63985 0.75 6.35982 0.75 6.14591 0.858993C5.95775 0.954867 5.80477 1.10785 5.7089 1.29601C5.5999 1.50992 5.5999 1.78995 5.5999 2.35L5.5999 10.8938C5.5999 11.0079 5.5999 11.065 5.6063 11.1213C5.61199 11.1713 5.62144 11.2208 5.63459 11.2694C5.64938 11.3241 5.67041 11.3772 5.71247 11.4833L6.43487 13.306C6.8655 14.3925 7.08081 14.9357 7.40086 15.1087C7.67874 15.2589 8.01125 15.269 8.29773 15.1359C8.62768 14.9826 8.87554 14.4534 9.37125 13.3951L10.2488 11.5213C10.3052 11.401 10.3334 11.3408 10.3533 11.2781C10.3709 11.2224 10.3836 11.1652 10.3913 11.1073C10.3999 11.042 10.3999 10.9756 10.3999 10.8427Z" stroke="white" stroke-width="1.5"/>
</g>
<defs>
<clipPath id="clip0_151_5089">
<rect width="16" height="16" fill="white"/>
</clipPath>
</defs>
</svg>
