<svg width="16" height="16" viewBox="0 0 16 16" fill="none" xmlns="http://www.w3.org/2000/svg">
<path d="M15.25 2.07482C14.6188 2.52142 13.92 2.863 13.1805 3.0864C12.7835 2.62855 12.256 2.30404 11.6692 2.15676C11.0824 2.00948 10.4647 2.04652 9.89955 2.26289C9.33444 2.47926 8.8492 2.86451 8.50947 3.36654C8.16973 3.86857 7.99189 4.46316 8 5.06988V5.73104C6.84174 5.76116 5.69402 5.50347 4.65907 4.98092C3.62413 4.45836 2.73407 3.68716 2.06818 2.73599C2.06818 2.73599 -0.568182 8.68642 5.36364 11.3311C4.00626 12.2553 2.38926 12.7188 0.75 12.6534C6.68182 15.9592 13.9318 12.6534 13.9318 5.05004C13.9312 4.86588 13.9136 4.68217 13.8791 4.50128C14.5518 3.83582 15.0265 2.99563 15.25 2.07482Z" stroke="white" stroke-width="1.5" stroke-linecap="round" stroke-linejoin="round"/>
</svg>
