<svg width="16" height="16" viewBox="0 0 16 16" fill="none" xmlns="http://www.w3.org/2000/svg">
<g clip-path="url(#clip0_151_5473)">
<mask id="path-1-inside-1_151_5473" fill="white">
<path d="M0 9.5C0 8.10444 0 7.40666 0.172239 6.83886C0.560039 5.56046 1.56046 4.56004 2.83886 4.17224C3.40666 4 4.10444 4 5.5 4H10.5C11.8956 4 12.5933 4 13.1611 4.17224C14.4395 4.56004 15.44 5.56046 15.8278 6.83886C16 7.40666 16 8.10444 16 9.5V9.5C16 10.8956 16 11.5933 15.8278 12.1611C15.44 13.4395 14.4395 14.44 13.1611 14.8278C12.5933 15 11.8956 15 10.5 15H5.5C4.10444 15 3.40666 15 2.83886 14.8278C1.56046 14.44 0.560039 13.4395 0.172239 12.1611C0 11.5933 0 10.8956 0 9.5V9.5Z"/>
</mask>
<path d="M0 3L5.91747 8.07211C6.65661 8.70567 7.02619 9.02245 7.44066 9.14318C7.80596 9.24959 8.19404 9.24959 8.55934 9.14318C8.97381 9.02245 9.34339 8.70567 10.0825 8.07211L16 3" stroke="white" stroke-width="1.5"/>
</g>
<path d="M0 4H16H0ZM17.5 11C17.5 14.0376 15.0376 16.5 12 16.5H4C0.962434 16.5 -1.5 14.0376 -1.5 11H1.5C1.5 12.3807 2.61929 13.5 4 13.5H12C13.3807 13.5 14.5 12.3807 14.5 11H17.5ZM4 16.5C0.962434 16.5 -1.5 14.0376 -1.5 11V9.5C-1.5 6.46243 0.962434 4 4 4C2.61929 4 1.5 5.79086 1.5 8V11C1.5 12.3807 2.61929 13.5 4 13.5V16.5ZM12 4C15.0376 4 17.5 6.46243 17.5 9.5V11C17.5 14.0376 15.0376 16.5 12 16.5V13.5C13.3807 13.5 14.5 12.3807 14.5 11V8C14.5 5.79086 13.3807 4 12 4Z" fill="white" mask="url(#path-1-inside-1_151_5473)"/>
<mask id="path-4-inside-2_151_5473" fill="white">
<path d="M3 5.8C3 4.11984 3 3.27976 3.32698 2.63803C3.6146 2.07354 4.07354 1.6146 4.63803 1.32698C5.27976 1 6.11984 1 7.8 1H8.2C9.88016 1 10.7202 1 11.362 1.32698C11.9265 1.6146 12.3854 2.07354 12.673 2.63803C13 3.27976 13 4.11984 13 5.8V6H3V5.8Z"/>
</mask>
<path d="M1.5 4C1.5 1.51472 3.51472 -0.5 6 -0.5H10C12.4853 -0.5 14.5 1.51472 14.5 4H11.5C11.5 3.17157 10.8284 2.5 10 2.5H6C5.17157 2.5 4.5 3.17157 4.5 4H1.5ZM13 6H3H13ZM1.5 6V4C1.5 1.51472 3.51472 -0.5 6 -0.5V2.5C5.17157 2.5 4.5 3.17157 4.5 4V6H1.5ZM10 -0.5C12.4853 -0.5 14.5 1.51472 14.5 4V6H11.5V4C11.5 3.17157 10.8284 2.5 10 2.5V-0.5Z" fill="white" mask="url(#path-4-inside-2_151_5473)"/>
<path d="M0.75 9.25V7.25C0.75 5.59315 2.09315 4.25 3.75 4.25V4.25" stroke="white" stroke-width="1.5"/>
<path d="M0.75 9.25V9.25C0.75 10.8818 0.75 11.6977 1.03633 12.3338C1.36224 13.058 1.94201 13.6378 2.66616 13.9637C3.30235 14.25 4.11823 14.25 5.75 14.25H7.75" stroke="white" stroke-width="1.5"/>
<path d="M15.25 9.25V9.25C15.25 10.8818 15.25 11.6977 14.9637 12.3338C14.6378 13.058 14.058 13.6378 13.3338 13.9637C12.6977 14.25 11.8818 14.25 10.25 14.25H7.25" stroke="white" stroke-width="1.5"/>
<path d="M15.25 9.25V7.25C15.25 5.59315 13.9069 4.25 12.25 4.25V4.25" stroke="white" stroke-width="1.5"/>
<defs>
<clipPath id="clip0_151_5473">
<path d="M0 9.5C0 8.10444 0 7.40666 0.172239 6.83886C0.560039 5.56046 1.56046 4.56004 2.83886 4.17224C3.40666 4 4.10444 4 5.5 4H10.5C11.8956 4 12.5933 4 13.1611 4.17224C14.4395 4.56004 15.44 5.56046 15.8278 6.83886C16 7.40666 16 8.10444 16 9.5V9.5C16 10.8956 16 11.5933 15.8278 12.1611C15.44 13.4395 14.4395 14.44 13.1611 14.8278C12.5933 15 11.8956 15 10.5 15H5.5C4.10444 15 3.40666 15 2.83886 14.8278C1.56046 14.44 0.560039 13.4395 0.172239 12.1611C0 11.5933 0 10.8956 0 9.5V9.5Z" fill="white"/>
</clipPath>
</defs>
</svg>
