<svg width="16" height="16" viewBox="0 0 16 16" fill="none" xmlns="http://www.w3.org/2000/svg">
<path d="M15.25 10.45V5.55C15.25 3.86984 15.25 3.02976 14.923 2.38803C14.6354 1.82354 14.1765 1.3646 13.612 1.07698C12.9702 0.75 12.1302 0.75 10.45 0.75H5.55C3.86984 0.75 3.02976 0.75 2.38803 1.07698C1.82354 1.3646 1.3646 1.82354 1.07698 2.38803C0.75 3.02976 0.75 3.86984 0.75 5.55V10.45C0.75 12.1302 0.75 12.9702 1.07698 13.612C1.3646 14.1765 1.82354 14.6354 2.38803 14.923C3.02976 15.25 3.86984 15.25 5.55 15.25H10.45C12.1302 15.25 12.9702 15.25 13.612 14.923C14.1765 14.6354 14.6354 14.1765 14.923 13.612C15.25 12.9702 15.25 12.1302 15.25 10.45Z" stroke="white" stroke-width="1.5" stroke-linecap="round"/>
<path d="M14 14L2 1.99998" stroke="white" stroke-width="1.5" stroke-linecap="round"/>
</svg>
