<svg width="16" height="16" viewBox="0 0 16 16" fill="none" xmlns="http://www.w3.org/2000/svg">
<path d="M0.75 0.75H11.625C12.2057 0.75 12.496 0.75 12.7387 0.79007C14.0067 0.999427 15.0006 1.99326 15.2099 3.26131C15.25 3.50401 15.25 3.79434 15.25 4.375V4.375C15.25 4.95566 15.25 5.24599 15.2099 5.48869C15.0006 6.75674 14.0067 7.75057 12.7387 7.95993C12.496 8 12.2057 8 11.625 8H4.375C3.79434 8 3.50401 8 3.26131 8.04007C1.99326 8.24943 0.999427 9.24326 0.79007 10.5113C0.75 10.754 0.75 11.0443 0.75 11.625V11.625C0.75 12.2057 0.75 12.496 0.79007 12.7387C0.999427 14.0067 1.99326 15.0006 3.26131 15.2099C3.50401 15.25 3.79434 15.25 4.375 15.25H15.25" stroke="white" stroke-width="1.5" stroke-linecap="round"/>
</svg>
