<svg width="16" height="16" viewBox="0 0 16 16" fill="none" xmlns="http://www.w3.org/2000/svg">
<path d="M0.75 0.75H11.0288C12.1654 0.75 12.7337 0.75 13.1929 0.902017C14.0934 1.20015 14.7999 1.90661 15.098 2.80713C15.25 3.26631 15.25 3.83461 15.25 4.97119V5.39922C15.25 5.55454 15.25 5.6322 15.2463 5.70619C15.2065 6.51324 14.8427 7.27008 14.2374 7.80538C14.1819 7.85445 14.1213 7.90297 14 8V8M0.75 8H14M14 8V8C14.1213 8.09703 14.1819 8.14555 14.2374 8.19462C14.8427 8.72992 15.2065 9.48676 15.2463 10.2938C15.25 10.3678 15.25 10.4455 15.25 10.6008V11.0288C15.25 12.1654 15.25 12.7337 15.098 13.1929C14.7999 14.0934 14.0934 14.7999 13.1929 15.098C12.7337 15.25 12.1654 15.25 11.0288 15.25H0.75" stroke="white" stroke-width="1.5" stroke-linecap="round"/>
</svg>
