<svg width="16" height="16" viewBox="0 0 16 16" fill="none" xmlns="http://www.w3.org/2000/svg">
<path d="M15.25 0.75H4.375C3.79434 0.75 3.50401 0.75 3.26131 0.79007C1.99326 0.999427 0.999427 1.99326 0.79007 3.26131C0.75 3.50401 0.75 3.79434 0.75 4.375V4.375C0.75 4.95566 0.75 5.24599 0.79007 5.48869C0.999427 6.75674 1.99326 7.75057 3.26131 7.95993C3.50401 8 3.79434 8 4.375 8H11.625C12.2057 8 12.496 8 12.7387 8.04007C14.0067 8.24943 15.0006 9.24326 15.2099 10.5113C15.25 10.754 15.25 11.0443 15.25 11.625V11.625C15.25 12.2057 15.25 12.496 15.2099 12.7387C15.0006 14.0067 14.0067 15.0006 12.7387 15.2099C12.496 15.25 12.2057 15.25 11.625 15.25H0.75" stroke="white" stroke-width="1.5" stroke-linecap="round"/>
</svg>
