<svg width="16" height="16" viewBox="0 0 16 16" fill="none" xmlns="http://www.w3.org/2000/svg">
<path d="M13.1786 0.75H5.55C3.86984 0.75 3.02976 0.75 2.38803 1.07698C1.82354 1.3646 1.3646 1.82354 1.07698 2.38803C0.75 3.02976 0.75 3.86984 0.75 5.55V8M0.75 8V10.45C0.75 12.1302 0.75 12.9702 1.07698 13.612C1.3646 14.1765 1.82354 14.6354 2.38803 14.923C3.02976 15.25 3.86984 15.25 5.55 15.25H11.625C12.2057 15.25 12.496 15.25 12.7387 15.2099C14.0067 15.0006 15.0006 14.0067 15.2099 12.7387C15.25 12.496 15.25 12.2057 15.25 11.625V11.625C15.25 11.0443 15.25 10.754 15.2099 10.5113C15.0006 9.24326 14.0067 8.24943 12.7387 8.04007C12.496 8 12.2057 8 11.625 8H0.75Z" stroke="white" stroke-width="1.5" stroke-linecap="round"/>
</svg>
