<svg width="16" height="16" viewBox="0 0 16 16" fill="none" xmlns="http://www.w3.org/2000/svg">
<path d="M14 8H2M14 8V8C14.1213 8.09703 14.1819 8.14555 14.2374 8.19462C14.8427 8.72992 15.2065 9.48676 15.2463 10.2938C15.25 10.3678 15.25 10.4455 15.25 10.6008V11.0288C15.25 12.1654 15.25 12.7337 15.098 13.1929C14.7999 14.0934 14.0934 14.7999 13.1929 15.098C12.7337 15.25 12.1654 15.25 11.0288 15.25H4.97119C3.83461 15.25 3.26631 15.25 2.80713 15.098C1.90661 14.7999 1.20015 14.0934 0.902017 13.1929C0.75 12.7337 0.75 12.1654 0.75 11.0288V10.6008C0.75 10.4455 0.75 10.3678 0.753656 10.2938C0.793538 9.48676 1.15729 8.72992 1.76258 8.19462C1.81807 8.14555 1.87871 8.09703 2 8V8M14 8V8C14.2014 7.82687 14.3021 7.7403 14.3912 7.64952C14.8802 7.15119 15.1801 6.49789 15.2392 5.80219C15.25 5.67545 15.25 5.54266 15.25 5.27707V4.98247C15.25 3.83534 15.25 3.26177 15.0952 2.79873C14.7964 1.90501 14.095 1.20363 13.2013 0.904814C12.7382 0.75 12.1647 0.75 11.0175 0.75H4.97119C3.83461 0.75 3.26631 0.75 2.80713 0.902017C1.90661 1.20015 1.20015 1.90661 0.902017 2.80713C0.75 3.26631 0.75 3.83461 0.75 4.97119V5.39922C0.75 5.55454 0.75 5.6322 0.753656 5.70619C0.793538 6.51324 1.15729 7.27008 1.76258 7.80538C1.81807 7.85445 1.87871 7.90297 2 8V8" stroke="white" stroke-width="1.5" stroke-linecap="round"/>
</svg>
