<svg width="16" height="16" viewBox="0 0 16 16" fill="none" xmlns="http://www.w3.org/2000/svg">
<path d="M0.75 15.25H10.45C12.1302 15.25 12.9702 15.25 13.612 14.923C14.1765 14.6354 14.6354 14.1765 14.923 13.612C15.25 12.9702 15.25 12.1302 15.25 10.45V8M15.25 8V5.55C15.25 3.86984 15.25 3.02976 14.923 2.38803C14.6354 1.82354 14.1765 1.3646 13.612 1.07698C12.9702 0.75 12.1302 0.75 10.45 0.75H4.375C3.79434 0.75 3.50401 0.75 3.26131 0.79007C1.99326 0.999427 0.999427 1.99326 0.79007 3.26131C0.75 3.50401 0.75 3.79434 0.75 4.375V4.375C0.75 4.95566 0.75 5.24599 0.79007 5.48869C0.999427 6.75674 1.99326 7.75057 3.26131 7.95993C3.50401 8 3.79434 8 4.375 8H15.25Z" stroke="white" stroke-width="1.5" stroke-linecap="round"/>
</svg>
