<svg width="16" height="16" viewBox="0 0 16 16" fill="none" xmlns="http://www.w3.org/2000/svg">
<rect x="2.5" y="6.75" width="11" height="8.5" rx="2.25" stroke="white" stroke-width="1.5"/>
<path d="M11.125 3.875L11.875 3.875L11.125 3.875ZM10.375 4C10.375 4.41421 10.7108 4.75 11.125 4.75C11.5392 4.75 11.875 4.41421 11.875 4L10.375 4ZM6.01989 0.942022L6.34056 1.62001L6.34056 1.62001L6.01989 0.942022ZM5.06702 1.89489L4.38903 1.57423L4.38903 1.57423L5.06702 1.89489ZM9.9801 0.942021L9.65943 1.62001L9.65944 1.62001L9.9801 0.942021ZM10.933 1.89489L11.611 1.57423L11.611 1.57423L10.933 1.89489ZM5.625 7.25L5.625 3.875L4.125 3.875L4.125 7.25L5.625 7.25ZM10.375 3.875L10.375 4L11.875 4L11.875 3.875L10.375 3.875ZM8 -1.25751e-07C7.48687 -1.464e-07 7.05975 -0.000513381 6.71134 0.0261968C6.35496 0.053517 6.01956 0.112521 5.69922 0.264031L6.34056 1.62001C6.42621 1.5795 6.55616 1.54249 6.82599 1.52181C7.10378 1.50051 7.46371 1.5 8 1.5L8 -1.25751e-07ZM5.625 3.875C5.625 3.33871 5.62551 2.97878 5.64681 2.70099C5.66749 2.43117 5.7045 2.30121 5.74501 2.21556L4.38903 1.57423C4.23752 1.89457 4.17852 2.22996 4.1512 2.58634C4.12449 2.93476 4.125 3.36187 4.125 3.875L5.625 3.875ZM5.69923 0.26403C5.12408 0.536052 4.66105 0.999083 4.38903 1.57423L5.74501 2.21556C5.86866 1.95413 6.07913 1.74366 6.34056 1.62001L5.69923 0.26403ZM8 1.5C8.53628 1.5 8.89622 1.50051 9.174 1.52181C9.44383 1.54249 9.57378 1.5795 9.65943 1.62001L10.3008 0.264029C9.98043 0.11252 9.64503 0.0535168 9.28866 0.0261967C8.94024 -0.000513299 8.51312 -1.05103e-07 8 -1.25751e-07L8 1.5ZM11.875 3.875C11.875 3.36187 11.8755 2.93476 11.8488 2.58634C11.8215 2.22996 11.7625 1.89457 11.611 1.57423L10.255 2.21556C10.2955 2.30121 10.3325 2.43116 10.3532 2.70099C10.3745 2.97878 10.375 3.33872 10.375 3.875L11.875 3.875ZM9.65944 1.62001C9.92086 1.74366 10.1313 1.95413 10.255 2.21556L11.611 1.57423C11.3389 0.999082 10.8759 0.536051 10.3008 0.264029L9.65944 1.62001Z" fill="white"/>
</svg>
