<svg width="16" height="16" viewBox="0 0 16 16" fill="none" xmlns="http://www.w3.org/2000/svg">
<path d="M8.59622 3.47351L8.81838 3.71H9.14286H11.2C12.0525 3.71 12.6467 3.71058 13.1093 3.74838C13.5632 3.78546 13.824 3.8546 14.0215 3.95524C14.4448 4.17095 14.7891 4.51516 15.0048 4.93852C15.1054 5.13604 15.1745 5.3968 15.2116 5.85068C15.2494 6.31331 15.25 6.90754 15.25 7.76V10.2C15.25 11.0525 15.2494 11.6467 15.2116 12.1093C15.1745 12.5632 15.1054 12.824 15.0048 13.0215C14.7891 13.4448 14.4448 13.7891 14.0215 14.0048C13.824 14.1054 13.5632 14.1745 13.1093 14.2116C12.6467 14.2494 12.0525 14.25 11.2 14.25H4.8C3.94755 14.25 3.35331 14.2494 2.89068 14.2116C2.4368 14.1745 2.17604 14.1054 1.97852 14.0048C1.55516 13.7891 1.21095 13.4448 0.995235 13.0215C0.894596 12.824 0.825465 12.5632 0.788382 12.1093C0.750583 11.6467 0.75 11.0525 0.75 10.2V5C0.75 4.02174 0.756442 3.67974 0.826667 3.41766C1.03472 2.6412 1.6412 2.03472 2.41766 1.82667C2.67974 1.75644 3.02174 1.75 4 1.75H5.225C6.02775 1.75 6.30163 1.75522 6.54948 1.81719C6.78769 1.87674 7.01454 1.97489 7.22104 2.10773C7.4359 2.24594 7.62722 2.44199 8.17683 3.02706L8.17676 3.02712L8.18091 3.0314L8.59622 3.47351Z" stroke="white" stroke-width="1.5"/>
<path d="M9.14286 2.96002L8.40126 3.66917C7.88716 4.16079 7.6301 4.40659 7.33327 4.58216C7.07005 4.73785 6.78458 4.85237 6.48675 4.92176C6.15087 5.00002 5.79521 5.00002 5.08388 5.00002H0" stroke="white" stroke-width="1.5"/>
</svg>
