<svg width="16" height="16" viewBox="0 0 16 16" fill="none" xmlns="http://www.w3.org/2000/svg">
<path d="M8.59645 3.47375L8.81858 3.71H9.14286H11.2C12.0525 3.71 12.6467 3.71058 13.1093 3.74838C13.5632 3.78546 13.824 3.8546 14.0215 3.95524C14.4448 4.17095 14.7891 4.51516 15.0048 4.93852C15.1054 5.13604 15.1745 5.3968 15.2116 5.85068C15.2494 6.31331 15.25 6.90754 15.25 7.76V10.2C15.25 11.0525 15.2494 11.6467 15.2116 12.1093C15.1745 12.5632 15.1054 12.824 15.0048 13.0215C14.7891 13.4448 14.4448 13.7891 14.0215 14.0048C13.824 14.1054 13.5632 14.1745 13.1093 14.2116C12.6467 14.2494 12.0525 14.25 11.2 14.25H4.8C3.94755 14.25 3.35331 14.2494 2.89068 14.2116C2.4368 14.1745 2.17604 14.1054 1.97852 14.0048C1.55516 13.7891 1.21095 13.4448 0.995235 13.0215C0.894596 12.824 0.825465 12.5632 0.788382 12.1093C0.750583 11.6467 0.75 11.0525 0.75 10.2V5C0.75 4.02174 0.756442 3.67974 0.826667 3.41766C1.03472 2.6412 1.6412 2.03472 2.41766 1.82667C2.67974 1.75644 3.02174 1.75 4 1.75H5.22463C6.02689 1.75 6.30061 1.75521 6.54833 1.81711C6.78642 1.8766 7.01316 1.97464 7.21959 2.10734C7.43438 2.24542 7.62567 2.44127 8.17523 3.02575L8.59645 3.47375Z" stroke="white" stroke-width="1.5"/>
<path d="M8.47839 8.31078L8.47841 8.31077C8.48058 8.30939 8.48275 8.30801 8.4849 8.30664C8.82293 8.09188 8.94004 8.01922 9.0588 7.96344C9.27114 7.86371 9.49778 7.7978 9.73049 7.7681C9.86147 7.75139 10.0002 7.75 10.4066 7.75H12C12.9783 7.75 13.3203 7.75644 13.5823 7.82667C14.3588 8.03472 14.9653 8.6412 15.1733 9.41766C15.2436 9.67974 15.25 10.0217 15.25 11C15.25 11.9783 15.2436 12.3203 15.1733 12.5823C14.9653 13.3588 14.3588 13.9653 13.5823 14.1733C13.3203 14.2436 12.9783 14.25 12 14.25H3.32226C3.00768 14.25 2.89708 14.2493 2.8104 14.242C1.71746 14.1496 0.85043 13.2825 0.758003 12.1896C0.750672 12.1029 0.75 11.9923 0.75 11.6777C0.75 11.3632 0.750672 11.2526 0.758003 11.1659C0.85043 10.0729 1.71746 9.20591 2.8104 9.11348C2.89708 9.10615 3.00768 9.10548 3.32226 9.10548H5.74576C5.76087 9.10548 5.77578 9.10548 5.7905 9.10549C6.13567 9.10554 6.37463 9.10558 6.61178 9.07531C6.99963 9.02581 7.37736 8.91596 7.73127 8.74974C7.94766 8.64811 8.14933 8.51992 8.44063 8.33478C8.45305 8.32688 8.46564 8.31888 8.47839 8.31078Z" stroke="white" stroke-width="1.5"/>
</svg>
